{"glyphs":{"0":{"ha":846,"x_min":0,"x_max":0,"o":"m 424 -21 b 72 325 200 -21 72 113 l 72 663 b 424 1007 72 874 200 1007 b 772 663 644 1007 772 874 l 772 325 b 424 -21 772 113 644 -21 m 424 179 b 556 322 510 179 556 231 l 556 665 b 424 807 556 757 510 807 b 289 665 335 807 289 757 l 289 322 b 424 179 289 231 335 179 "},"1":{"ha":571,"x_min":0,"x_max":0,"o":"m 306 0 b 249 56 263 0 249 14 l 249 721 l 151 671 b 71 689 106 649 90 653 l 28 769 b 54 846 10 806 19 824 l 251 964 b 331 986 282 982 296 986 l 410 986 b 465 931 451 986 465 972 l 465 56 b 410 0 465 14 451 0 l 306 0 "},"2":{"ha":796,"x_min":0,"x_max":0,"o":"m 114 0 b 63 56 75 0 63 14 l 63 179 b 304 499 63 369 189 444 b 513 685 408 546 513 569 b 403 807 513 767 469 807 b 271 707 335 807 300 776 b 206 669 254 665 242 657 l 103 706 b 71 775 65 718 56 736 b 411 1007 121 913 215 1007 b 738 693 625 1007 738 865 b 453 344 738 503 640 428 b 299 214 369 308 299 274 l 299 200 l 678 200 b 729 143 717 200 729 186 l 729 56 b 678 0 729 14 717 0 l 114 0 "},"3":{"ha":818,"x_min":0,"x_max":0,"o":"m 419 -21 b 58 211 221 -21 108 61 b 90 282 46 250 54 271 l 193 315 b 260 281 229 328 246 321 b 408 178 282 211 324 178 b 535 290 494 178 535 221 b 417 403 535 365 496 403 l 338 403 b 286 458 299 403 286 417 l 286 540 b 338 596 286 582 299 596 l 404 596 b 511 703 471 596 511 632 b 401 808 511 767 474 808 b 258 708 319 808 283 778 b 192 674 244 668 229 661 l 96 704 b 64 775 60 717 50 736 b 411 1007 114 924 215 1007 b 731 722 610 1007 731 897 b 633 517 731 632 697 561 b 758 285 721 469 758 382 b 419 -21 758 107 646 -21 "},"4":{"ha":844,"x_min":0,"x_max":0,"o":"m 536 0 b 485 56 497 0 485 14 l 485 210 l 85 210 b 33 265 46 210 33 224 l 33 331 b 58 408 33 369 40 383 l 449 946 b 526 986 472 978 488 986 l 635 986 b 688 931 674 986 688 972 l 688 396 l 756 396 b 807 340 794 396 807 382 l 807 265 b 756 210 807 224 794 210 l 688 210 l 688 56 b 635 0 688 14 674 0 l 536 0 m 485 396 l 485 699 l 271 396 "},"5":{"ha":790,"x_min":0,"x_max":0,"o":"m 401 -21 b 53 211 206 -21 106 61 b 83 281 39 250 49 269 l 185 314 b 253 279 219 325 238 319 b 397 179 276 213 317 179 b 519 313 464 179 519 218 b 385 438 519 401 458 438 l 132 438 b 81 501 89 438 76 457 l 118 907 b 200 986 124 967 142 986 l 650 986 b 701 931 689 986 701 972 l 701 843 b 650 786 701 800 689 786 l 317 786 l 304 633 l 410 633 b 740 313 644 633 740 489 b 401 -21 740 124 628 -21 "},"6":{"ha":847,"x_min":0,"x_max":0,"o":"m 429 -21 b 71 347 194 -21 71 118 l 71 649 b 429 1007 71 876 197 1007 b 767 789 613 1007 717 931 b 738 719 781 750 774 733 l 644 686 b 576 722 608 672 592 681 b 432 807 554 782 510 807 b 288 658 333 807 288 769 l 288 596 b 442 615 328 606 381 615 b 786 303 679 615 786 513 b 429 -21 786 103 653 -21 m 429 178 b 569 303 529 178 569 221 b 429 426 569 382 533 426 b 288 403 368 426 322 415 l 288 340 b 429 178 288 233 328 178 "},"7":{"ha":722,"x_min":0,"x_max":0,"o":"m 167 0 b 136 56 129 0 121 21 l 451 786 l 88 786 b 35 843 49 786 35 800 l 35 931 b 88 986 35 972 49 986 l 643 986 b 694 931 682 986 694 972 l 694 867 b 681 788 694 835 694 821 l 364 49 b 282 0 346 7 336 0 l 167 0 "},"8":{"ha":839,"x_min":0,"x_max":0,"o":"m 418 -21 b 58 254 161 -21 58 94 b 188 496 58 379 129 458 b 89 719 129 542 89 607 b 422 1007 89 901 218 1007 b 751 736 633 1007 751 908 b 654 521 751 625 700 558 b 781 279 726 478 781 407 b 418 -21 781 104 676 -21 m 463 583 b 539 715 497 606 539 644 b 419 821 539 785 496 821 b 307 715 350 821 307 785 b 418 600 307 644 354 621 l 463 583 m 418 164 b 554 276 511 164 554 207 b 361 415 554 375 474 386 b 275 276 325 397 275 358 b 418 164 275 207 324 164 "},"9":{"ha":847,"x_min":0,"x_max":0,"o":"m 418 -21 b 81 197 235 -21 132 56 b 110 267 67 236 74 253 l 203 300 b 271 264 240 314 256 306 b 417 179 294 204 338 179 b 560 328 515 179 560 217 l 560 390 b 406 371 519 381 467 371 b 61 683 169 371 61 474 b 419 1007 61 883 196 1007 b 776 639 653 1007 776 868 l 776 338 b 418 -21 776 110 651 -21 m 419 561 b 560 583 479 561 526 571 l 560 646 b 419 808 560 753 519 808 b 278 683 319 808 278 765 b 419 561 278 604 314 561 "}," ":{"ha":286,"x_min":0,"x_max":0,"o":""},"!":{"ha":372,"x_min":0,"x_max":0,"o":"m 156 307 b 104 357 117 307 106 319 l 83 978 b 133 1028 82 1015 96 1028 l 240 1028 b 290 978 278 1028 292 1015 l 268 357 b 218 307 267 319 256 307 l 156 307 m 175 -11 b 71 93 96 -11 71 14 l 71 113 b 175 217 71 192 96 217 l 197 217 b 300 113 275 217 300 192 l 300 93 b 197 -11 300 14 275 -11 l 175 -11 "},"\"":{"ha":535,"x_min":0,"x_max":0,"o":"m 121 619 b 75 661 83 619 75 624 l 75 942 b 121 986 75 979 83 986 l 204 986 b 251 942 243 986 254 979 l 231 661 b 181 619 226 624 218 619 l 121 619 m 342 619 b 296 661 304 619 296 624 l 296 942 b 342 986 296 979 304 986 l 425 986 b 472 942 464 986 475 979 l 450 661 b 400 619 447 624 439 619 l 342 619 "},"#":{"ha":949,"x_min":0,"x_max":0,"o":"m 151 0 b 118 49 118 0 110 13 l 160 219 l 78 219 b 44 265 44 219 35 232 l 72 347 b 132 390 83 381 97 390 l 211 390 l 250 542 l 168 542 b 135 588 135 542 124 554 l 163 668 b 221 713 174 703 189 713 l 300 713 l 342 885 b 399 932 350 919 365 932 l 492 932 b 525 885 525 932 533 919 l 483 713 l 607 713 l 649 885 b 706 932 657 919 672 932 l 799 932 b 832 885 832 932 840 919 l 790 713 l 871 713 b 904 667 907 713 915 700 l 879 585 b 819 542 869 553 853 542 l 739 542 l 700 390 l 783 390 b 817 344 817 390 828 378 l 788 264 b 728 219 776 231 763 219 l 647 219 l 608 49 b 551 0 600 13 585 0 l 458 0 b 426 49 425 0 418 14 l 465 219 l 342 219 l 301 49 b 244 0 293 13 278 0 l 151 0 m 517 390 l 557 542 l 432 542 l 393 390 "},"$":{"ha":790,"x_min":0,"x_max":0,"o":"m 339 -82 b 292 -32 304 -82 292 -69 l 292 29 b 54 233 168 50 89 125 b 86 307 42 272 51 294 l 189 342 b 258 306 226 354 243 349 b 388 218 279 249 318 218 b 522 311 476 218 522 243 b 385 404 522 374 464 396 b 57 685 249 419 57 460 b 292 960 57 828 138 931 l 292 1018 b 339 1068 292 1056 304 1068 l 454 1068 b 501 1018 489 1068 501 1056 l 501 960 b 714 776 608 938 671 875 b 686 700 731 738 724 717 l 588 658 b 521 690 554 643 540 650 b 396 768 497 740 458 768 b 278 685 311 768 278 746 b 419 594 278 626 338 603 b 740 315 554 581 740 546 b 501 32 740 168 656 64 l 501 -32 b 454 -82 501 -69 489 -82 l 339 -82 "},"%":{"ha":1108,"x_min":0,"x_max":0,"o":"m 265 493 b 46 700 126 493 46 571 l 46 799 b 265 1007 46 929 126 1007 b 485 799 406 1007 485 929 l 485 700 b 265 493 485 571 406 493 m 189 0 b 164 56 153 0 144 26 l 742 940 b 838 986 769 981 781 986 l 924 986 b 949 933 958 986 967 961 l 372 49 b 271 0 343 6 332 0 l 189 0 m 265 647 b 324 711 304 647 324 669 l 324 789 b 265 851 324 831 304 851 b 206 789 226 851 206 831 l 206 711 b 265 647 206 669 226 647 m 843 -21 b 624 185 704 -21 624 57 l 624 283 b 843 493 624 415 704 493 b 1063 283 983 493 1063 415 l 1063 185 b 843 -21 1063 57 983 -21 m 844 133 b 903 197 883 133 903 156 l 903 275 b 844 338 903 317 883 338 b 785 275 804 338 785 317 l 785 197 b 844 133 785 156 804 133 "},"&":{"ha":910,"x_min":0,"x_max":0,"o":"m 343 -21 b 50 276 169 -21 50 94 b 213 557 50 403 118 497 b 140 744 164 614 140 674 b 404 1007 140 885 231 1007 b 650 758 550 1007 650 901 b 508 513 650 644 601 578 l 496 504 l 599 365 l 667 440 b 729 442 688 463 707 461 l 804 372 b 800 313 824 356 822 338 l 722 225 l 869 49 b 847 0 894 18 888 0 l 711 0 b 642 29 678 0 661 4 l 592 93 b 343 -21 506 6 432 -21 m 411 663 b 474 758 454 696 474 715 b 403 838 474 801 444 838 b 322 746 349 838 322 794 b 374 633 322 710 331 683 m 350 165 b 474 232 392 165 421 176 l 331 418 b 247 281 265 376 247 325 b 350 165 247 211 290 165 "},"'":{"ha":319,"x_min":0,"x_max":0,"o":"m 124 619 b 78 661 86 619 78 624 l 78 942 b 124 986 78 979 86 986 l 207 986 b 253 942 244 986 257 979 l 232 661 b 182 619 229 624 221 619 l 124 619 "},"(":{"ha":418,"x_min":0,"x_max":0,"o":"m 254 -362 b 75 -19 139 -304 75 -208 l 75 701 b 254 1043 75 892 139 985 b 317 1013 285 1058 296 1044 l 364 939 b 339 871 385 907 368 890 b 272 701 299 842 272 789 l 272 -22 b 338 -189 272 -110 296 -162 b 360 -256 369 -208 378 -224 l 317 -333 b 254 -362 299 -365 285 -378 "},")":{"ha":411,"x_min":0,"x_max":0,"o":"m 157 -360 b 93 -329 126 -375 113 -362 l 50 -253 b 72 -186 32 -221 42 -206 b 139 -18 115 -160 139 -107 l 139 704 b 72 874 139 793 113 844 b 47 942 42 894 25 910 l 93 1015 b 157 1046 115 1047 126 1061 b 336 704 272 988 336 894 l 336 -17 b 157 -360 336 -206 272 -301 "},"*":{"ha":469,"x_min":0,"x_max":0,"o":"m 114 604 b 110 650 93 621 94 629 l 169 725 l 88 740 b 63 779 61 744 56 757 l 78 831 b 121 847 86 854 100 860 l 194 806 l 183 904 b 211 938 179 928 186 938 l 258 938 b 289 904 286 938 292 928 l 279 807 l 353 847 b 396 829 375 860 386 854 l 411 779 b 385 740 418 758 411 746 l 303 724 l 364 650 b 360 604 379 633 381 619 l 321 575 b 276 586 300 560 288 564 l 236 661 l 197 585 b 154 572 186 563 172 558 "},"+":{"ha":701,"x_min":0,"x_max":0,"o":"m 310 122 b 257 179 271 122 257 136 l 257 363 l 100 363 b 47 418 61 363 47 376 l 47 492 b 100 547 47 533 61 547 l 257 547 l 257 729 b 310 786 257 772 271 786 l 390 786 b 443 729 431 786 443 772 l 443 547 l 601 547 b 654 492 642 547 654 533 l 654 418 b 601 363 654 376 642 363 l 443 363 l 443 179 b 390 122 443 136 431 122 l 310 122 "},",":{"ha":346,"x_min":0,"x_max":0,"o":"m 81 -168 b 46 -131 49 -168 43 -160 l 78 143 b 144 204 83 190 99 204 l 226 204 b 279 143 279 204 293 183 l 190 -118 b 126 -168 178 -154 164 -168 l 81 -168 "},"-":{"ha":540,"x_min":0,"x_max":0,"o":"m 131 274 b 79 331 92 274 79 288 l 79 410 b 131 465 79 451 92 465 l 410 465 b 461 410 447 465 461 451 l 461 331 b 410 274 461 288 447 274 l 131 274 "},".":{"ha":356,"x_min":0,"x_max":0,"o":"m 168 -11 b 64 93 89 -11 64 14 l 64 114 b 168 218 64 193 89 218 l 188 218 b 292 114 265 218 292 193 l 292 93 b 188 -11 292 14 265 -11 l 168 -11 "},"/":{"ha":650,"x_min":0,"x_max":0,"o":"m 75 -83 b 40 -37 36 -83 29 -69 l 406 940 b 474 988 419 978 435 988 l 576 988 b 610 940 614 988 621 974 l 246 -37 b 178 -83 231 -74 215 -83 l 75 -83 "},":":{"ha":385,"x_min":0,"x_max":0,"o":"m 183 465 b 79 569 104 465 79 490 l 79 590 b 183 694 79 669 104 694 l 201 694 b 306 590 281 694 306 669 l 306 569 b 201 465 306 490 281 465 l 183 465 m 183 -11 b 79 93 104 -11 79 14 l 79 114 b 183 218 79 193 104 218 l 201 218 b 306 114 281 218 306 193 l 306 93 b 201 -11 306 14 281 -11 l 183 -11 "},";":{"ha":392,"x_min":0,"x_max":0,"o":"m 197 465 b 93 569 118 465 93 490 l 93 590 b 197 694 93 669 118 694 l 215 694 b 319 590 294 694 319 669 l 319 569 b 215 465 319 490 294 465 l 197 465 m 94 -168 b 60 -131 63 -168 57 -160 l 92 143 b 158 204 97 190 113 204 l 242 204 b 293 143 293 204 307 183 l 204 -118 b 140 -168 192 -154 178 -168 l 94 -168 "},"<":{"ha":608,"x_min":0,"x_max":0,"o":"m 82 353 b 42 422 51 372 42 385 l 42 485 b 82 554 42 524 51 535 l 479 804 b 533 763 519 828 533 811 l 533 674 b 486 581 533 613 522 603 l 282 456 l 282 447 l 488 321 b 533 228 524 299 533 289 l 533 146 b 479 104 533 97 519 79 "},"=":{"ha":742,"x_min":0,"x_max":0,"o":"m 136 497 b 81 553 94 497 81 511 l 81 633 b 136 690 81 676 94 690 l 606 690 b 663 633 649 690 663 676 l 663 553 b 606 497 663 511 649 497 l 136 497 m 136 217 b 81 274 94 217 81 231 l 81 354 b 136 410 81 396 94 410 l 606 410 b 663 354 649 410 663 396 l 663 274 b 606 217 663 231 649 217 l 136 217 "},">":{"ha":608,"x_min":0,"x_max":0,"o":"m 129 104 b 75 146 90 79 75 97 l 75 228 b 121 321 75 289 86 299 l 326 447 l 326 456 l 122 581 b 75 674 88 603 75 613 l 75 763 b 129 804 75 811 90 828 l 526 554 b 568 485 558 535 568 524 l 568 422 b 526 353 568 385 558 372 l 129 104 "},"?":{"ha":753,"x_min":0,"x_max":0,"o":"m 296 279 b 246 332 260 279 246 292 b 356 556 246 461 299 514 b 486 731 419 601 486 631 b 381 842 486 801 451 842 b 235 731 308 842 267 806 b 168 694 218 690 206 682 l 79 726 b 46 796 42 739 32 757 b 382 1028 97 935 197 1028 b 707 742 594 1028 707 903 b 489 435 707 563 588 507 b 439 332 456 410 439 374 b 389 279 439 292 425 279 l 296 279 m 335 -11 b 231 93 256 -11 231 14 l 231 113 b 335 217 231 192 256 217 l 354 217 b 458 113 433 217 458 192 l 458 93 b 354 -11 458 14 433 -11 l 335 -11 "},"@":{"ha":1194,"x_min":0,"x_max":0,"o":"m 601 -183 b 61 350 247 -183 61 19 l 61 463 b 601 1007 61 792 247 1007 b 1129 460 946 1007 1129 789 l 1129 353 b 904 54 1129 163 1031 54 b 782 104 838 54 817 72 b 565 71 721 85 647 71 b 325 308 400 71 325 160 l 325 503 b 565 740 325 653 400 740 b 806 697 668 740 757 718 b 849 632 843 683 849 669 l 849 250 b 904 196 849 208 879 196 b 981 350 943 196 981 231 l 981 463 b 601 871 981 717 847 871 b 213 465 346 871 213 719 l 213 347 b 601 -47 213 92 346 -47 b 869 -15 693 -47 814 -26 b 904 -36 896 -11 904 -15 l 904 -107 b 869 -150 904 -136 894 -144 b 601 -183 826 -161 746 -183 m 586 221 b 688 232 632 221 668 225 l 688 571 b 679 582 688 576 685 581 b 586 593 654 589 611 593 b 485 500 514 593 485 565 l 485 313 b 586 221 485 249 514 221 "},"A":{"ha":885,"x_min":0,"x_max":0,"o":"m 53 0 b 18 54 14 0 6 18 l 319 940 b 383 986 332 978 347 986 l 501 986 b 565 943 536 986 553 978 l 867 54 b 831 0 879 18 868 0 l 721 0 b 631 50 660 0 642 11 l 594 185 l 282 185 l 244 50 b 157 0 233 11 215 0 l 53 0 m 539 365 l 481 586 b 443 778 461 661 447 739 l 433 778 b 397 588 429 738 418 660 l 339 365 "},"B":{"ha":864,"x_min":0,"x_max":0,"o":"m 146 0 b 93 56 107 0 93 14 l 93 929 b 146 986 93 972 107 986 l 490 986 b 778 719 661 986 778 886 b 686 517 778 624 750 564 l 686 513 b 813 274 767 471 813 396 b 511 0 813 99 697 0 l 146 0 m 475 590 b 565 692 529 590 565 621 b 475 793 565 761 529 793 l 310 793 l 310 590 m 499 194 b 597 300 557 194 597 229 b 499 408 597 374 557 408 l 310 408 l 310 194 "},"C":{"ha":849,"x_min":0,"x_max":0,"o":"m 444 -21 b 67 350 203 -21 67 121 l 67 636 b 444 1007 67 865 203 1007 b 804 775 635 1007 751 924 b 771 704 818 736 807 715 l 668 672 b 601 708 629 660 615 667 b 446 807 579 776 528 807 b 283 638 335 807 283 751 l 283 349 b 444 179 283 236 333 181 b 599 279 524 178 575 211 b 665 317 613 321 628 329 l 772 282 b 804 211 808 271 817 250 b 444 -21 754 63 635 -21 "},"D":{"ha":892,"x_min":0,"x_max":0,"o":"m 146 0 b 93 56 107 0 93 14 l 93 931 b 146 986 93 972 107 986 l 446 986 b 826 615 690 986 826 844 l 826 371 b 446 0 826 142 690 0 l 146 0 m 447 200 b 608 371 558 200 608 258 l 608 615 b 447 786 608 728 558 786 l 310 786 l 310 200 "},"E":{"ha":768,"x_min":0,"x_max":0,"o":"m 146 0 b 93 56 107 0 93 14 l 93 931 b 146 986 93 972 107 986 l 657 986 b 710 931 697 986 710 972 l 710 843 b 657 786 710 800 697 786 l 310 786 l 310 599 l 593 599 b 644 543 632 599 644 585 l 644 456 b 593 399 644 414 632 399 l 310 399 l 310 200 l 668 200 b 721 143 708 200 721 186 l 721 56 b 668 0 721 14 708 0 l 146 0 "},"F":{"ha":738,"x_min":0,"x_max":0,"o":"m 146 0 b 93 56 107 0 93 14 l 93 931 b 146 986 93 972 107 986 l 644 986 b 697 931 685 986 697 972 l 697 843 b 644 786 697 800 685 786 l 310 786 l 310 582 l 581 582 b 633 526 619 582 633 568 l 633 439 b 581 382 633 396 619 382 l 310 382 l 310 56 b 257 0 310 14 294 0 l 146 0 "},"G":{"ha":881,"x_min":0,"x_max":0,"o":"m 446 -21 b 67 350 203 -21 67 121 l 67 636 b 446 1007 67 865 203 1007 b 803 774 636 1007 754 924 b 769 704 815 735 807 717 l 665 669 b 599 706 628 657 613 665 b 447 807 575 775 525 807 b 283 638 333 807 283 750 l 283 349 b 447 179 283 236 335 179 b 614 300 558 179 614 221 l 614 367 l 461 367 b 410 422 422 367 410 381 l 410 504 b 461 561 410 547 422 561 l 771 561 b 824 504 811 561 824 547 l 824 308 b 446 -21 824 121 688 -21 "},"H":{"ha":914,"x_min":0,"x_max":0,"o":"m 146 0 b 93 56 107 0 93 14 l 93 929 b 146 986 93 972 107 986 l 258 986 b 310 929 297 986 310 972 l 310 599 l 604 599 l 604 929 b 657 986 604 972 617 986 l 768 986 b 821 929 807 986 821 972 l 821 56 b 768 0 821 14 807 0 l 657 0 b 604 56 617 0 604 14 l 604 400 l 310 400 l 310 56 b 258 0 310 14 297 0 l 146 0 "},"I":{"ha":404,"x_min":0,"x_max":0,"o":"m 142 0 b 93 51 113 0 93 10 l 93 936 b 142 986 93 978 113 986 l 264 986 b 310 936 293 986 310 978 l 310 51 b 261 0 310 10 289 0 l 142 0 "},"J":{"ha":765,"x_min":0,"x_max":0,"o":"m 340 -21 b 24 203 172 -21 71 61 b 54 272 10 242 18 260 l 158 308 b 226 272 196 321 211 313 b 344 179 249 208 290 179 b 463 332 426 179 463 229 l 463 931 b 513 986 463 972 474 986 l 628 986 b 679 931 665 986 679 972 l 679 333 b 340 -21 679 108 565 -21 "},"K":{"ha":846,"x_min":0,"x_max":0,"o":"m 146 0 b 93 56 107 0 93 14 l 93 931 b 146 986 93 972 107 986 l 258 986 b 310 931 297 986 310 972 l 310 597 l 351 597 l 364 597 l 560 939 b 651 986 583 981 596 986 l 774 986 b 803 932 810 986 819 961 l 561 547 b 660 397 601 517 628 465 l 818 58 b 786 0 832 25 826 0 l 671 0 b 583 50 613 0 601 7 l 467 317 b 365 401 439 382 425 401 l 310 401 l 310 56 b 258 0 310 14 297 0 l 146 0 "},"L":{"ha":700,"x_min":0,"x_max":0,"o":"m 144 0 b 93 56 107 0 93 14 l 93 931 b 144 986 93 972 107 986 l 258 986 b 310 931 297 986 310 972 l 310 200 l 626 200 b 678 143 665 200 678 186 l 678 56 b 626 0 678 14 665 0 l 144 0 "},"M":{"ha":1090,"x_min":0,"x_max":0,"o":"m 146 0 b 93 56 107 0 93 14 l 93 931 b 146 986 93 972 107 986 l 244 986 b 318 944 288 986 303 978 l 543 454 l 768 943 b 838 986 785 979 797 986 l 943 986 b 997 931 985 986 997 972 l 997 56 b 943 0 997 14 985 0 l 842 0 b 789 56 801 0 789 14 l 789 389 b 825 693 789 472 793 560 l 814 693 b 718 432 783 589 754 510 l 636 256 b 576 217 622 226 610 217 l 507 217 b 447 256 475 217 463 224 l 364 432 b 274 693 325 511 301 583 l 263 693 b 297 388 292 557 297 479 l 297 56 b 246 0 297 14 285 0 l 146 0 "},"N":{"ha":928,"x_min":0,"x_max":0,"o":"m 146 0 b 93 56 107 0 93 14 l 93 931 b 146 986 93 972 107 986 l 275 986 b 326 960 303 986 317 978 l 558 531 b 656 281 610 435 628 365 l 668 281 b 625 579 643 376 625 456 l 625 931 b 678 986 625 972 639 986 l 782 986 b 835 931 821 986 835 972 l 835 56 b 782 0 835 14 821 0 l 657 0 b 607 26 631 0 617 7 l 379 453 b 281 710 331 544 304 631 l 271 710 b 303 407 288 626 303 528 l 303 56 b 250 0 303 14 289 0 l 146 0 "},"O":{"ha":893,"x_min":0,"x_max":0,"o":"m 446 -21 b 67 350 203 -21 67 121 l 67 636 b 446 1007 67 865 203 1007 b 826 636 690 1007 826 865 l 826 350 b 446 -21 826 121 690 -21 m 446 179 b 610 346 553 179 610 236 l 610 640 b 446 807 610 750 553 807 b 283 640 339 807 283 750 l 283 346 b 446 179 283 236 339 179 "},"P":{"ha":843,"x_min":0,"x_max":0,"o":"m 146 0 b 93 56 107 0 93 14 l 93 931 b 146 986 93 972 107 986 l 482 986 b 803 654 675 986 803 863 b 483 325 803 449 678 325 l 310 325 l 310 56 b 258 0 310 14 297 0 l 146 0 m 471 525 b 585 656 543 525 585 574 b 471 786 585 736 543 786 l 310 786 l 310 525 "},"Q":{"ha":914,"x_min":0,"x_max":0,"o":"m 601 6 b 447 -21 556 -12 504 -21 b 67 350 203 -21 67 121 l 67 636 b 447 1007 67 865 203 1007 b 828 636 692 1007 828 865 l 828 350 b 768 124 828 261 807 185 l 839 33 b 832 -46 864 0 863 -19 l 757 -106 b 682 -96 724 -128 707 -128 m 447 179 b 610 346 554 179 610 236 l 610 640 b 447 807 610 750 554 807 b 283 640 339 807 283 750 l 283 346 b 447 179 283 236 339 179 "},"R":{"ha":869,"x_min":0,"x_max":0,"o":"m 146 0 b 93 56 107 0 93 14 l 93 931 b 146 986 93 972 107 986 l 488 986 b 803 669 675 986 803 869 b 646 404 803 531 747 446 b 689 340 667 385 681 357 l 819 58 b 788 0 833 25 828 0 l 675 0 b 576 51 610 0 594 8 l 483 269 b 379 360 451 342 439 360 l 310 360 l 310 56 b 258 0 310 14 297 0 l 146 0 m 476 550 b 585 668 540 550 585 592 b 476 786 585 743 542 786 l 310 786 l 310 550 "},"S":{"ha":843,"x_min":0,"x_max":0,"o":"m 415 -21 b 56 206 224 -21 103 60 b 88 278 43 246 53 265 l 192 313 b 261 278 228 325 246 319 b 417 178 286 217 340 178 b 575 293 521 178 575 211 b 410 399 575 365 504 388 b 58 700 260 417 58 453 b 424 1007 58 879 186 1007 b 764 799 610 1007 704 928 b 736 724 782 761 774 739 l 636 685 b 569 714 601 671 588 676 b 424 806 544 772 493 806 b 278 707 319 806 278 776 b 465 596 278 626 360 608 b 797 288 613 579 797 526 b 415 -21 797 100 657 -21 "},"T":{"ha":756,"x_min":0,"x_max":0,"o":"m 322 0 b 269 54 283 0 269 13 l 269 786 l 78 786 b 25 843 38 786 25 800 l 25 931 b 78 986 25 972 38 986 l 678 986 b 731 931 718 986 731 972 l 731 843 b 678 786 731 800 718 786 l 486 786 l 486 54 b 433 0 486 13 472 0 l 322 0 "},"U":{"ha":917,"x_min":0,"x_max":0,"o":"m 458 -21 b 86 344 214 -21 86 122 l 86 932 b 139 986 86 974 100 986 l 251 986 b 303 932 290 986 303 974 l 303 340 b 458 179 303 238 353 179 b 614 340 564 179 614 238 l 614 932 b 665 986 614 974 626 986 l 778 986 b 831 932 817 986 831 974 l 831 344 b 458 -21 831 122 701 -21 "},"V":{"ha":865,"x_min":0,"x_max":0,"o":"m 368 0 b 306 43 333 0 317 8 l 21 932 b 57 986 10 968 19 986 l 172 986 b 253 936 229 986 242 975 l 400 415 b 432 246 415 361 426 288 l 442 246 b 474 414 447 286 460 358 l 613 936 b 697 986 624 975 635 986 l 811 986 b 846 932 850 986 858 968 l 563 46 b 499 0 550 8 533 0 l 368 0 "},"W":{"ha":1229,"x_min":0,"x_max":0,"o":"m 306 0 b 240 43 269 0 249 7 l 33 932 b 69 986 24 969 31 986 l 200 986 b 265 938 244 986 258 978 l 343 499 b 363 289 353 443 358 354 l 372 289 b 401 499 375 363 388 438 l 503 938 b 574 986 513 978 533 986 l 668 986 b 740 938 710 986 732 978 l 833 499 b 863 289 847 432 856 350 l 872 289 b 893 499 875 349 882 436 l 972 938 b 1038 986 979 978 993 986 l 1156 986 b 1196 932 1196 986 1204 969 l 990 46 b 925 0 982 7 961 0 l 804 0 b 738 43 767 0 746 8 l 639 514 b 618 694 628 568 619 635 l 608 694 b 585 515 607 635 597 571 l 485 46 b 419 0 476 7 456 0 l 306 0 "},"X":{"ha":858,"x_min":0,"x_max":0,"o":"m 56 0 b 29 56 18 0 11 25 l 290 506 l 42 933 b 67 986 24 961 32 986 l 190 986 b 290 939 253 986 268 983 l 429 672 l 568 939 b 657 986 589 982 601 986 l 793 986 b 818 933 828 986 835 961 l 564 507 l 831 56 b 804 0 849 26 842 0 l 669 0 b 576 50 608 0 600 4 l 424 342 l 281 50 b 192 0 258 4 247 0 l 56 0 "},"Y":{"ha":867,"x_min":0,"x_max":0,"o":"m 375 0 b 322 56 336 0 322 14 l 322 385 l 24 931 b 50 986 7 961 13 986 l 179 986 b 271 936 240 986 251 979 l 433 593 l 601 936 b 692 986 621 979 631 986 l 815 986 b 842 931 853 986 858 961 l 539 383 l 539 56 b 486 0 539 14 525 0 l 375 0 "},"Z":{"ha":790,"x_min":0,"x_max":0,"o":"m 104 0 b 51 56 65 0 51 14 l 51 136 b 69 192 51 158 57 175 l 474 788 l 110 788 b 58 844 72 788 58 801 l 58 931 b 110 986 58 972 72 986 l 681 986 b 732 931 719 986 732 972 l 732 850 b 715 793 732 826 728 810 l 314 200 l 686 200 b 738 143 725 200 738 186 l 738 56 b 686 0 738 14 725 0 l 104 0 "},"[":{"ha":431,"x_min":0,"x_max":0,"o":"m 138 -356 b 86 -306 94 -356 86 -347 l 86 986 b 138 1036 86 1028 94 1036 l 344 1036 b 393 988 386 1036 393 1029 l 393 911 b 344 863 393 869 386 863 l 278 863 l 278 -181 l 344 -181 b 393 -229 386 -181 393 -187 l 393 -307 b 344 -356 393 -349 386 -356 l 138 -356 "},"\\":{"ha":564,"x_min":0,"x_max":0,"o":"m 378 -83 b 325 -40 349 -83 335 -75 l 38 943 b 64 986 29 974 35 986 l 186 986 b 240 943 217 986 231 978 l 528 -40 b 500 -83 536 -71 529 -83 l 378 -83 "},"]":{"ha":431,"x_min":0,"x_max":0,"o":"m 86 -356 b 38 -307 44 -356 38 -349 l 38 -229 b 86 -181 38 -187 44 -181 l 153 -181 l 153 863 l 86 863 b 38 911 44 863 38 869 l 38 988 b 86 1036 38 1029 44 1036 l 294 1036 b 344 986 336 1036 344 1028 l 344 -306 b 294 -356 344 -347 336 -356 l 86 -356 "},"^":{"ha":806,"x_min":0,"x_max":0,"o":"m 96 722 b 69 782 49 722 39 744 l 294 1068 b 368 1114 318 1100 333 1114 l 436 1114 b 510 1068 478 1114 485 1099 l 736 782 b 710 722 765 746 756 722 l 607 722 b 508 767 547 722 536 728 l 403 921 l 399 921 l 290 767 b 190 722 261 726 247 722 l 96 722 "},"_":{"ha":671,"x_min":0,"x_max":0,"o":"m 88 -192 b 32 -135 46 -192 32 -178 l 32 -56 b 88 0 32 -14 46 0 l 582 0 b 639 -56 625 0 639 -14 l 639 -135 b 582 -192 639 -178 625 -192 l 88 -192 "},"`":{"ha":368,"x_min":0,"x_max":0,"o":"m 35 903 b 28 958 3 915 4 929 l 75 1014 b 167 1017 101 1046 135 1036 l 363 901 b 365 849 388 888 386 875 l 340 817 b 276 814 326 799 308 803 "},"a":{"ha":686,"x_min":0,"x_max":0,"o":"m 333 -21 b 44 208 128 -21 44 49 b 336 433 44 369 128 433 b 419 429 360 433 404 431 l 419 475 b 333 571 419 549 396 571 b 236 517 286 571 256 553 b 169 494 218 486 203 478 l 101 524 b 75 596 68 539 57 557 b 336 743 119 688 201 743 b 619 464 550 743 619 635 l 619 96 b 574 15 619 47 610 32 b 333 -21 526 -7 443 -21 m 325 139 b 413 144 363 139 399 142 b 419 156 418 146 419 149 l 419 278 b 328 281 394 279 353 281 b 243 208 269 281 243 258 b 325 139 243 161 268 139 "},"b":{"ha":722,"x_min":0,"x_max":0,"o":"m 363 -21 b 122 25 256 -21 168 3 b 76 103 82 46 76 58 l 76 978 b 122 1028 76 1015 88 1028 l 231 1028 b 278 978 267 1028 278 1015 l 278 728 b 386 743 307 736 350 743 b 665 458 578 743 665 639 l 665 279 b 363 -21 665 85 568 -21 m 357 161 b 464 282 435 161 464 200 l 464 454 b 363 561 464 525 433 561 b 278 547 333 561 299 557 l 278 179 b 281 172 278 178 278 174 b 357 161 300 164 332 161 "},"c":{"ha":679,"x_min":0,"x_max":0,"o":"m 346 -21 b 56 265 144 -21 56 85 l 56 456 b 360 743 56 635 151 743 b 633 560 511 743 601 663 b 601 489 646 519 636 500 l 519 463 b 451 500 481 451 465 460 b 351 568 435 544 406 568 b 257 461 286 568 257 531 l 257 261 b 349 154 257 192 285 154 b 447 226 403 154 431 181 b 514 261 461 265 476 272 l 604 235 b 635 161 639 224 650 203 b 346 -21 592 47 501 -21 "},"d":{"ha":722,"x_min":0,"x_max":0,"o":"m 360 -21 b 57 279 154 -21 57 85 l 57 458 b 336 743 57 639 144 743 b 444 728 372 743 415 736 l 444 978 b 492 1028 444 1015 456 1028 l 600 1028 b 646 978 635 1028 646 1015 l 646 103 b 600 25 646 58 640 46 b 360 -21 554 3 467 -21 m 365 161 b 442 172 390 161 422 164 b 444 179 444 174 444 178 l 444 547 b 360 561 424 557 389 561 b 258 454 289 561 258 525 l 258 282 b 365 161 258 200 288 161 "},"e":{"ha":700,"x_min":0,"x_max":0,"o":"m 356 -21 b 54 285 140 -21 54 110 l 54 438 b 356 743 54 636 163 743 b 654 453 563 743 654 611 l 654 365 b 588 297 654 324 638 297 l 254 297 l 254 261 b 358 147 254 183 290 147 b 464 203 414 147 444 165 b 532 222 482 236 496 242 l 601 188 b 624 107 636 169 644 144 b 356 -21 579 26 490 -21 m 456 446 l 456 468 b 356 579 456 542 425 579 b 254 468 286 579 254 542 l 254 446 "},"f":{"ha":475,"x_min":0,"x_max":0,"o":"m 164 0 b 117 50 128 0 117 13 l 117 540 l 68 540 b 22 592 33 540 22 554 l 22 672 b 68 722 22 710 33 722 l 117 722 l 117 726 b 392 1028 117 919 219 1025 l 411 1028 b 460 976 449 1028 460 1015 l 460 899 b 411 846 460 860 449 846 b 318 726 343 846 318 808 l 318 722 l 411 722 b 458 672 446 722 458 710 l 458 592 b 411 540 458 554 446 540 l 318 540 l 318 50 b 269 0 318 13 307 0 l 164 0 "},"g":{"ha":721,"x_min":0,"x_max":0,"o":"m 354 -319 b 82 -190 215 -319 133 -272 b 101 -112 60 -154 68 -131 l 181 -71 b 251 -90 215 -51 233 -60 b 350 -143 272 -126 304 -143 b 443 -33 415 -143 443 -111 l 443 35 b 335 19 414 26 369 19 b 56 299 143 19 56 119 l 56 446 b 357 743 56 639 153 743 b 596 701 464 743 553 724 b 644 617 638 681 644 661 l 644 -22 b 354 -319 644 -203 564 -319 m 357 201 b 443 210 399 201 424 204 l 443 543 b 438 551 443 547 442 550 b 364 561 422 557 397 561 b 257 443 286 561 257 533 l 257 308 b 357 201 257 231 283 201 "},"h":{"ha":733,"x_min":0,"x_max":0,"o":"m 125 0 b 79 50 90 0 79 13 l 79 978 b 125 1028 79 1015 90 1028 l 233 1028 b 279 978 268 1028 279 1015 l 281 733 b 390 743 290 733 332 743 b 663 465 578 743 663 644 l 663 50 b 615 0 663 13 650 0 l 508 0 b 461 50 472 0 461 13 l 461 451 b 363 560 461 528 432 560 b 281 551 315 560 286 551 l 281 50 b 233 0 281 13 269 0 l 125 0 "},"i":{"ha":357,"x_min":0,"x_max":0,"o":"m 144 813 b 69 900 86 813 69 829 l 69 922 b 144 1011 69 990 88 1011 l 211 1011 b 286 922 269 1011 286 990 l 286 900 b 211 813 286 829 269 813 l 144 813 m 128 0 b 78 50 90 0 78 13 l 78 672 b 128 722 78 710 90 722 l 228 722 b 279 672 267 722 279 710 l 279 50 b 228 0 279 13 267 0 l 128 0 "},"j":{"ha":349,"x_min":0,"x_max":0,"o":"m 146 813 b 71 900 88 813 71 829 l 71 922 b 146 1011 71 990 89 1011 l 213 1011 b 288 922 271 1011 288 990 l 288 900 b 213 813 288 829 271 813 l 146 813 m -3 -319 b -49 -268 -37 -319 -49 -307 l -49 -187 b -3 -135 -49 -147 -37 -135 b 74 -3 75 -135 74 -85 l 74 672 b 121 722 74 710 86 722 l 231 722 b 276 672 265 722 276 710 l 276 -11 b -3 -319 276 -208 228 -319 "},"k":{"ha":699,"x_min":0,"x_max":0,"o":"m 126 0 b 79 53 90 0 79 13 l 79 976 b 126 1028 79 1015 90 1028 l 233 1028 b 281 976 268 1028 281 1015 l 281 457 l 318 457 l 324 457 l 444 682 b 531 722 464 719 479 722 l 618 722 b 654 663 665 722 676 700 l 503 413 b 563 307 525 389 542 354 l 665 61 b 628 0 685 18 676 0 l 539 0 b 454 47 486 0 469 7 l 390 218 b 329 276 374 258 361 276 l 281 276 l 281 53 b 233 0 281 13 268 0 l 126 0 "},"l":{"ha":364,"x_min":0,"x_max":0,"o":"m 121 0 b 82 50 90 0 82 13 l 82 978 b 121 1028 82 1015 90 1028 l 243 1028 b 283 978 272 1028 283 1015 l 283 50 b 243 0 283 13 272 0 l 121 0 "},"m":{"ha":1106,"x_min":0,"x_max":0,"o":"m 125 0 b 76 50 89 0 76 13 l 76 614 b 128 694 76 658 86 676 b 385 743 183 717 258 743 b 546 704 450 743 504 729 b 761 743 597 724 665 743 b 1035 458 950 743 1035 638 l 1035 50 b 985 0 1035 13 1021 0 l 882 0 b 832 50 844 0 832 13 l 832 451 b 735 560 832 522 806 560 b 649 544 701 560 674 554 b 654 457 653 518 654 489 l 654 50 b 607 0 654 13 643 0 l 503 0 b 456 50 465 0 456 13 l 456 451 b 358 560 456 522 428 560 b 283 549 328 560 306 556 b 278 540 279 547 278 544 l 278 50 b 229 0 278 13 265 0 l 125 0 "},"n":{"ha":731,"x_min":0,"x_max":0,"o":"m 122 0 b 76 50 88 0 76 13 l 76 614 b 125 694 76 658 85 676 b 386 743 178 717 260 743 b 660 458 572 743 660 638 l 660 50 b 613 0 660 13 647 0 l 504 0 b 458 50 469 0 458 13 l 458 451 b 360 560 458 526 418 560 b 282 547 335 560 301 554 b 278 542 279 546 278 544 l 278 50 b 231 0 278 13 267 0 l 122 0 "},"o":{"ha":718,"x_min":0,"x_max":0,"o":"m 358 -21 b 56 268 161 -21 56 89 l 56 453 b 358 743 56 632 161 743 b 663 453 558 743 663 632 l 663 268 b 358 -21 663 89 558 -21 m 358 160 b 461 268 426 160 461 199 l 461 454 b 358 563 461 526 426 563 b 257 454 292 563 257 526 l 257 268 b 358 160 257 199 292 160 "},"p":{"ha":722,"x_min":0,"x_max":0,"o":"m 122 -306 b 76 -254 88 -306 76 -293 l 76 619 b 122 697 76 664 82 676 b 363 743 168 719 256 743 b 665 444 568 743 665 639 l 665 264 b 386 -21 665 83 578 -21 b 278 -6 350 -21 307 -14 l 278 -254 b 231 -306 278 -293 267 -306 l 122 -306 m 363 161 b 464 268 433 161 464 197 l 464 443 b 357 561 464 525 435 561 b 281 550 332 561 300 560 b 278 543 278 549 278 544 l 278 174 b 363 161 306 164 333 161 "},"q":{"ha":722,"x_min":0,"x_max":0,"o":"m 492 -306 b 444 -254 456 -306 444 -293 l 444 -6 b 336 -21 415 -14 372 -21 b 57 264 144 -21 57 83 l 57 444 b 360 743 57 639 154 743 b 600 697 467 743 554 719 b 646 619 640 676 646 664 l 646 -254 b 600 -306 646 -293 635 -306 l 492 -306 m 360 161 b 444 174 389 161 417 164 l 444 543 b 442 550 444 544 444 549 b 365 561 422 560 390 561 b 258 443 288 561 258 525 l 258 268 b 360 161 258 197 289 161 "},"r":{"ha":497,"x_min":0,"x_max":0,"o":"m 121 0 b 76 50 88 0 76 13 l 76 604 b 125 686 76 650 85 669 b 367 722 176 706 247 722 l 436 722 b 481 676 469 722 481 710 l 481 592 b 436 540 481 553 469 540 l 363 540 b 286 532 329 540 304 538 b 278 519 279 529 278 524 l 278 50 b 233 0 278 13 267 0 l 121 0 "},"s":{"ha":668,"x_min":0,"x_max":0,"o":"m 338 -21 b 50 143 183 -21 90 31 b 79 211 36 178 46 200 l 172 240 b 235 210 208 250 219 246 b 336 154 250 171 283 154 b 431 214 403 154 431 175 b 310 286 431 260 406 276 b 53 514 168 299 53 343 b 332 742 53 651 158 742 b 604 594 481 742 561 685 b 578 521 621 557 614 535 l 499 490 b 435 514 461 476 453 481 b 335 567 418 544 389 567 b 249 511 274 567 249 546 b 358 444 249 467 272 454 b 628 215 531 428 626 369 b 338 -21 626 74 525 -21 "},"t":{"ha":503,"x_min":0,"x_max":0,"o":"m 418 0 b 122 282 211 -7 122 38 l 122 540 l 65 540 b 19 592 31 540 19 554 l 19 672 b 65 722 19 710 31 722 l 122 722 l 122 839 b 169 889 122 876 135 889 l 276 889 b 324 839 313 889 324 876 l 324 722 l 419 722 b 467 672 456 722 467 710 l 467 592 b 419 540 467 554 456 540 l 324 540 l 324 293 b 418 189 324 189 349 186 b 467 144 456 189 467 178 l 467 54 b 418 0 467 14 454 1 "},"u":{"ha":731,"x_min":0,"x_max":0,"o":"m 346 -21 b 72 264 158 -21 72 85 l 72 672 b 118 722 72 710 83 722 l 226 722 b 274 672 261 722 274 710 l 274 271 b 372 163 274 196 301 163 b 446 172 397 163 425 164 b 454 188 451 175 454 178 l 454 672 b 500 722 454 710 465 722 l 608 722 b 656 672 643 722 656 710 l 656 107 b 604 28 656 63 646 46 b 346 -21 553 4 471 -21 "},"v":{"ha":686,"x_min":0,"x_max":0,"o":"m 286 0 b 222 44 251 0 233 10 l 24 663 b 61 722 8 708 17 722 l 154 722 b 232 672 206 722 221 713 l 307 396 b 342 219 321 343 333 264 l 349 219 b 383 396 356 264 369 342 l 456 671 b 531 722 468 713 476 722 l 624 722 b 664 663 669 722 679 710 l 458 44 b 396 0 447 10 431 0 l 286 0 "},"w":{"ha":988,"x_min":0,"x_max":0,"o":"m 251 0 b 186 44 215 0 194 10 l 32 664 b 72 722 21 710 26 722 l 163 722 b 244 672 219 722 238 714 l 289 424 b 306 236 297 375 303 289 l 315 236 b 336 424 318 286 325 372 l 388 671 b 467 722 396 714 408 722 l 528 722 b 607 672 585 722 597 714 l 660 424 b 681 236 671 367 678 283 l 690 236 b 707 424 690 281 696 360 l 751 671 b 832 722 758 714 774 722 l 915 722 b 956 664 961 722 967 710 l 803 44 b 738 0 794 10 774 0 l 642 0 b 575 44 606 0 585 10 l 518 338 b 496 499 508 394 500 461 l 489 499 b 464 338 485 461 475 394 l 404 44 b 342 0 397 10 376 0 l 251 0 "},"x":{"ha":683,"x_min":0,"x_max":0,"o":"m 69 0 b 35 60 14 0 11 19 l 210 369 l 43 663 b 79 722 22 697 25 722 l 178 722 b 260 679 228 722 243 715 l 343 506 l 424 678 b 501 722 442 718 453 722 l 608 722 b 639 663 656 722 663 701 l 476 372 l 651 60 b 617 0 674 19 668 0 l 514 0 b 432 43 464 0 451 4 l 340 236 l 254 43 b 172 0 236 4 221 0 l 69 0 "},"y":{"ha":733,"x_min":0,"x_max":0,"o":"m 365 -321 b 93 -192 226 -321 142 -274 b 114 -112 71 -154 79 -129 l 192 -74 b 263 -94 228 -56 243 -61 b 361 -144 281 -129 318 -144 b 454 -32 426 -144 454 -110 l 454 31 b 346 21 426 25 390 21 b 72 306 158 21 72 126 l 72 672 b 118 722 72 710 83 722 l 226 722 b 274 672 261 722 274 710 l 274 313 b 372 204 274 238 300 204 b 454 214 407 204 433 208 l 454 672 b 500 722 454 710 465 722 l 608 722 b 656 672 643 722 656 710 l 656 -14 b 365 -321 656 -194 575 -321 "},"z":{"ha":622,"x_min":0,"x_max":0,"o":"m 93 0 b 46 50 58 0 46 13 l 46 128 b 64 179 46 154 50 161 l 321 543 l 99 543 b 54 593 65 543 54 556 l 54 672 b 99 722 54 710 65 722 l 524 722 b 569 672 557 722 569 710 l 569 594 b 549 538 569 569 563 557 l 285 179 l 531 179 b 576 129 565 179 576 167 l 576 50 b 531 0 576 13 565 0 l 93 0 "},"{":{"ha":482,"x_min":0,"x_max":0,"o":"m 342 -357 b 139 -167 189 -357 139 -300 l 139 124 b 69 235 139 181 133 235 l 61 235 b 19 285 31 235 19 250 l 19 386 b 60 438 19 421 29 438 l 69 438 b 139 547 133 438 139 492 l 139 846 b 339 1036 139 978 190 1036 l 396 1036 b 447 986 435 1036 447 1024 l 447 907 b 396 856 447 868 435 856 l 357 856 b 329 828 342 856 329 843 l 329 517 b 228 336 329 429 283 371 b 329 156 301 306 329 243 l 329 -149 b 357 -176 329 -164 342 -176 l 396 -176 b 447 -228 435 -176 447 -189 l 447 -307 b 396 -357 447 -344 435 -357 l 342 -357 "},"|":{"ha":365,"x_min":0,"x_max":0,"o":"m 138 -204 b 86 -154 99 -204 86 -192 l 86 1139 b 138 1189 86 1176 99 1189 l 229 1189 b 279 1139 267 1189 279 1176 l 279 -154 b 229 -204 279 -192 267 -204 l 138 -204 "},"}":{"ha":482,"x_min":0,"x_max":0,"o":"m 86 -357 b 35 -307 49 -357 35 -344 l 35 -228 b 86 -176 35 -189 49 -176 l 125 -176 b 153 -149 140 -176 153 -164 l 153 156 b 257 336 153 243 181 306 b 153 517 197 371 153 429 l 153 828 b 125 856 153 843 140 856 l 86 856 b 35 907 49 856 35 868 l 35 986 b 86 1036 35 1024 49 1036 l 143 1036 b 343 846 292 1036 343 978 l 343 547 b 413 438 343 492 354 438 l 422 438 b 463 386 453 438 463 421 l 463 285 b 421 235 463 250 451 235 l 413 235 b 343 124 354 235 343 181 l 343 -167 b 140 -357 343 -300 293 -357 l 86 -357 "},"~":{"ha":729,"x_min":0,"x_max":0,"o":"m 485 343 b 296 388 389 343 357 388 b 221 361 268 388 238 376 b 154 363 192 335 179 336 l 97 422 b 93 499 69 450 65 471 b 244 565 135 542 185 565 b 435 521 340 565 371 521 b 510 547 460 521 492 532 b 575 546 538 574 550 572 l 633 488 b 636 411 658 460 664 439 b 485 343 594 368 547 343 "}," ":{"ha":286,"x_min":0,"x_max":0,"o":""},"¡":{"ha":363,"x_min":0,"x_max":0,"o":"m 192 733 b 296 629 269 733 296 708 l 296 610 b 192 506 296 531 269 506 l 169 506 b 65 610 90 506 65 531 l 65 629 b 169 733 65 708 90 733 m 213 415 b 263 365 250 415 261 403 l 285 -256 b 235 -306 286 -293 272 -306 l 129 -306 b 78 -256 90 -306 76 -293 l 99 365 b 150 415 100 403 111 415 "},"¢":{"ha":706,"x_min":0,"x_max":0,"o":"m 314 -118 b 267 -68 278 -118 267 -106 l 267 -12 b 67 264 128 14 67 110 l 67 461 b 267 733 67 610 129 703 l 267 796 b 314 847 267 835 278 847 l 414 847 b 461 796 449 847 461 835 l 461 735 b 643 560 558 710 618 642 b 613 490 657 519 646 501 l 528 463 b 461 500 492 450 475 460 b 363 568 444 544 404 568 b 268 461 299 568 268 531 l 268 261 b 360 154 268 192 296 154 b 453 224 403 154 438 179 b 519 258 468 264 482 269 l 614 232 b 644 161 649 222 661 203 b 461 -11 613 74 554 14 l 461 -68 b 414 -118 461 -106 449 -118 l 314 -118 "},"£":{"ha":867,"x_min":0,"x_max":0,"o":"m 114 0 b 63 56 74 0 63 14 l 63 144 b 89 190 63 168 68 190 l 94 190 b 151 319 143 193 151 251 l 151 375 l 115 375 b 63 432 76 375 63 389 l 63 500 b 115 557 63 542 76 557 l 156 557 l 156 703 b 481 1007 156 864 274 1007 b 801 793 663 1007 754 922 b 769 722 815 753 806 736 l 671 685 b 604 722 635 671 622 682 b 489 807 578 781 549 807 b 382 693 418 807 382 757 l 382 557 l 614 557 b 665 500 651 557 665 542 l 665 432 b 614 375 665 389 651 375 l 378 375 l 378 322 b 321 185 378 251 353 213 l 322 176 b 521 199 343 185 418 199 l 747 199 b 799 142 786 199 799 185 l 799 56 b 747 0 799 14 786 0 l 114 0 "},"¤":{"ha":822,"x_min":0,"x_max":0,"o":"m 88 189 b 86 258 61 211 63 231 l 153 329 b 132 468 140 368 132 415 b 153 607 132 521 140 568 l 86 678 b 88 749 63 706 61 725 l 168 821 b 233 819 194 844 210 846 l 290 757 b 414 781 326 772 368 781 b 533 758 458 781 497 772 l 589 819 b 654 821 613 846 628 844 l 735 747 b 736 678 761 725 760 706 l 671 610 b 692 468 685 569 692 521 b 671 326 692 415 685 367 l 736 258 b 735 188 760 231 761 211 l 654 115 b 589 118 628 92 613 90 l 533 178 b 414 156 497 164 458 156 b 290 179 368 156 326 164 l 233 118 b 168 117 210 90 194 92 m 413 328 b 514 468 478 328 514 378 b 413 608 514 558 478 608 b 310 468 346 608 310 558 b 413 328 310 378 346 328 "},"¥":{"ha":897,"x_min":0,"x_max":0,"o":"m 392 0 b 340 56 353 0 340 14 l 340 169 l 201 169 b 156 219 167 169 156 183 l 156 271 b 201 321 156 308 167 321 l 343 321 l 343 381 l 201 381 b 156 431 167 381 156 393 l 156 482 b 201 532 156 518 167 532 l 278 532 l 51 931 b 78 986 35 961 40 986 l 207 986 b 301 936 268 986 279 983 l 451 604 l 603 936 b 697 986 625 985 636 986 l 818 986 b 846 931 857 986 863 961 l 621 532 l 694 532 b 742 482 729 532 742 518 l 742 431 b 694 381 742 393 729 381 l 553 381 l 553 321 l 694 321 b 742 271 729 321 742 308 l 742 219 b 694 169 742 183 729 169 l 557 169 l 557 56 b 506 0 557 14 544 0 l 392 0 "},"¦":{"ha":376,"x_min":0,"x_max":0,"o":"m 142 594 b 92 644 104 594 92 607 l 92 1139 b 142 1189 92 1176 104 1189 l 235 1189 b 285 1139 272 1189 285 1176 l 285 644 b 235 594 285 607 272 594 l 142 594 m 142 -203 b 92 -153 104 -203 92 -190 l 92 342 b 142 392 92 379 104 392 l 235 392 b 285 342 272 392 285 379 l 285 -153 b 235 -203 285 -190 272 -203 l 142 -203 "},"§":{"ha":810,"x_min":0,"x_max":0,"o":"m 401 -303 b 64 -93 231 -303 111 -228 b 100 -17 51 -54 63 -31 l 193 15 b 265 -22 232 29 249 22 b 397 -107 286 -81 326 -107 b 522 -15 485 -107 522 -78 b 406 63 522 40 475 53 b 65 325 276 81 65 103 b 163 515 65 406 100 471 b 82 718 115 556 82 615 b 413 1007 82 885 194 1007 b 721 813 576 1007 667 935 b 692 733 740 774 732 751 l 610 697 b 538 726 574 682 557 686 b 411 807 513 779 471 807 b 303 717 336 807 303 778 b 426 633 303 661 357 646 b 739 365 551 610 739 579 b 664 190 739 294 713 233 b 744 -15 713 153 744 90 b 401 -303 744 -183 625 -303 m 483 246 b 525 344 507 267 526 299 b 382 440 524 411 458 425 b 332 453 364 444 349 447 b 282 353 304 432 282 401 b 433 253 283 272 353 264 b 483 246 450 250 465 247 "},"¨":{"ha":610,"x_min":0,"x_max":0,"o":"m 160 814 b 74 900 93 814 74 836 l 74 915 b 160 1001 74 979 93 1001 l 169 1001 b 257 915 236 1001 257 979 l 257 900 b 169 814 257 836 236 814 l 160 814 m 433 814 b 346 900 367 814 346 836 l 346 915 b 433 1001 346 979 367 1001 l 443 1001 b 529 915 510 1001 529 979 l 529 900 b 443 814 529 836 510 814 l 433 814 "},"©":{"ha":1057,"x_min":0,"x_max":0,"o":"m 529 -11 b 57 488 232 -11 57 174 b 529 986 57 801 232 986 b 999 488 825 986 999 801 b 529 -11 999 174 825 -11 m 529 106 b 882 488 751 106 882 247 b 529 868 882 728 751 868 b 175 488 307 868 175 728 b 529 106 175 247 307 106 m 528 222 b 328 414 400 222 328 296 l 328 557 b 528 750 328 675 400 750 b 721 626 629 750 693 706 b 697 572 732 594 726 582 l 647 556 b 599 582 618 546 608 551 b 528 624 588 613 567 624 b 460 558 483 624 460 601 l 460 414 b 528 347 460 371 483 347 b 597 388 564 347 586 361 b 647 415 608 418 619 425 l 697 397 b 721 344 726 386 732 374 b 528 222 692 268 632 222 "},"ª":{"ha":481,"x_min":0,"x_max":0,"o":"m 238 492 b 64 624 99 492 64 544 b 240 757 64 707 103 757 b 261 756 247 757 253 757 l 261 774 b 231 811 261 800 246 811 b 183 786 204 811 194 800 b 138 778 169 769 158 767 l 93 801 b 81 857 68 814 63 829 b 240 932 115 908 174 932 b 410 758 369 932 410 858 l 410 579 b 367 513 410 539 400 528 b 238 492 338 501 296 492 m 233 603 b 258 604 246 603 254 604 b 261 608 261 606 261 606 l 261 654 l 235 654 b 206 629 213 654 206 647 b 233 603 206 607 213 603 "},"«":{"ha":806,"x_min":0,"x_max":0,"o":"m 54 333 b 54 396 32 357 32 372 l 296 653 b 354 654 317 675 333 676 l 411 596 b 413 536 433 574 433 560 l 263 368 l 410 206 b 410 143 431 182 433 164 l 347 85 b 290 85 325 63 311 64 m 369 333 b 369 396 347 356 347 372 l 613 653 b 669 653 633 674 647 675 l 728 597 b 728 536 751 575 750 560 l 572 368 l 725 206 b 725 143 746 183 747 165 l 663 85 b 607 85 640 63 626 64 "},"¬":{"ha":751,"x_min":0,"x_max":0,"o":"m 519 190 b 468 240 481 190 468 203 l 468 399 l 117 399 b 65 449 79 399 65 411 l 65 533 b 117 585 65 572 79 585 l 615 585 b 667 533 653 585 667 572 l 667 240 b 615 190 667 203 653 190 l 519 190 "},"®":{"ha":607,"x_min":0,"x_max":0,"o":"m 304 446 b 53 717 147 446 53 546 b 304 988 53 888 147 988 b 554 717 461 988 554 888 b 304 446 554 546 461 446 m 306 517 b 482 717 419 517 482 592 b 306 915 482 842 419 915 b 126 717 192 915 126 842 b 306 517 126 592 192 517 m 225 582 b 206 601 208 582 206 588 l 206 832 b 225 851 206 846 208 851 l 326 851 b 418 758 381 851 418 815 b 374 676 418 717 403 690 l 410 611 b 392 582 419 593 418 582 l 367 582 b 336 600 346 582 343 588 l 304 667 l 278 667 l 278 601 b 260 582 278 586 274 582 l 225 582 m 325 733 b 344 757 339 733 344 743 b 325 781 344 769 339 781 l 278 781 l 278 733 "},"¯":{"ha":500,"x_min":0,"x_max":0,"o":"m 92 842 b 43 889 54 842 43 851 l 43 933 b 92 981 43 971 58 981 l 414 981 b 463 933 453 981 463 971 l 463 889 b 414 842 463 851 453 842 l 92 842 "},"°":{"ha":549,"x_min":0,"x_max":0,"o":"m 275 525 b 47 765 133 525 47 617 b 275 1004 47 915 133 1004 b 501 765 415 1004 501 915 b 275 525 501 617 415 525 m 275 669 b 353 765 322 669 351 706 b 275 863 351 825 322 863 b 197 765 225 863 197 825 b 275 669 197 706 225 669 "},"±":{"ha":681,"x_min":0,"x_max":0,"o":"m 306 328 b 249 383 263 328 249 342 l 249 469 l 107 469 b 50 526 64 469 50 483 l 50 586 b 107 642 50 628 64 642 l 249 642 l 249 733 b 306 790 249 776 263 790 l 374 790 b 429 733 415 790 429 776 l 429 642 l 574 642 b 631 586 615 642 631 628 l 631 526 b 574 469 631 483 615 469 l 429 469 l 429 383 b 374 328 429 342 415 328 l 306 328 m 107 99 b 50 154 64 99 50 113 l 50 215 b 107 271 50 257 64 271 l 574 271 b 631 215 615 271 631 257 l 631 154 b 574 99 631 113 615 99 l 107 99 "},"´":{"ha":368,"x_min":0,"x_max":0,"o":"m 115 814 b 51 817 83 803 65 799 l 26 849 b 29 901 6 875 4 888 l 225 1017 b 317 1014 257 1036 290 1046 l 364 958 b 357 903 388 929 389 915 l 115 814 "},"µ":{"ha":746,"x_min":0,"x_max":0,"o":"m 129 -306 b 82 -256 94 -306 82 -293 l 82 672 b 129 722 82 710 94 722 l 236 722 b 283 672 272 722 283 710 l 283 271 b 382 163 283 196 311 163 b 457 174 419 163 436 167 b 465 188 463 175 465 181 l 465 672 b 513 722 465 710 476 722 l 619 722 b 667 672 656 722 667 710 l 667 107 b 624 28 667 64 656 46 b 425 -21 567 -1 493 -21 b 283 10 371 -21 324 -14 l 283 -256 b 236 -306 283 -293 272 -306 l 129 -306 "},"¶":{"ha":854,"x_min":0,"x_max":0,"o":"m 365 -124 b 319 -74 331 -124 319 -111 l 319 321 b 42 653 158 326 42 460 b 326 986 42 851 161 986 l 717 986 b 763 936 751 986 763 974 l 763 -74 b 717 -124 763 -111 751 -124 l 615 -124 b 569 -74 582 -124 569 -111 l 569 788 l 513 788 l 513 -74 b 467 -124 513 -111 500 -124 l 365 -124 "},"·":{"ha":388,"x_min":0,"x_max":0,"o":"m 185 292 b 81 396 106 292 81 317 l 81 417 b 185 521 81 496 106 521 l 203 521 b 307 417 282 521 307 496 l 307 396 b 203 292 307 317 282 292 l 185 292 "},"¸":{"ha":360,"x_min":0,"x_max":0,"o":"m 150 -340 b 53 -325 132 -340 81 -339 b 24 -282 29 -315 24 -306 l 22 -232 b 51 -211 22 -214 29 -200 b 126 -231 75 -224 90 -231 b 182 -193 168 -231 182 -211 b 131 -161 182 -171 169 -162 l 101 -161 b 81 -122 75 -161 69 -150 l 135 0 l 249 0 l 221 -69 l 232 -69 b 347 -203 306 -69 356 -129 b 150 -340 335 -312 240 -340 "},"º":{"ha":483,"x_min":0,"x_max":0,"o":"m 242 493 b 63 665 125 493 63 558 l 63 758 b 242 932 63 865 125 932 b 422 758 360 932 422 865 l 422 665 b 242 493 422 558 360 493 m 242 628 b 274 660 264 628 274 642 l 274 765 b 242 797 274 783 264 797 b 210 765 221 797 210 783 l 210 660 b 242 628 210 642 221 628 "},"»":{"ha":806,"x_min":0,"x_max":0,"o":"m 82 143 b 81 206 58 165 60 185 l 238 368 l 78 536 b 78 599 56 558 56 575 l 136 654 b 194 654 160 676 175 676 l 436 396 b 436 333 457 372 458 357 l 200 85 b 143 85 179 64 165 63 m 397 143 b 397 206 374 164 375 183 l 553 368 l 393 536 b 394 597 372 558 371 575 l 451 654 b 510 654 474 676 489 676 l 751 396 b 751 333 774 372 774 357 l 517 85 b 460 85 494 63 482 64 "},"¼":{"ha":1079,"x_min":0,"x_max":0,"o":"m 228 438 b 172 493 185 438 172 451 l 172 782 l 151 771 b 74 790 115 750 92 760 l 50 829 b 75 906 29 865 42 885 l 182 971 b 246 986 203 983 219 986 l 279 986 b 336 931 324 986 336 972 l 336 493 b 281 438 336 451 322 438 l 228 438 m 218 0 b 190 56 179 0 172 26 l 722 940 b 813 986 747 982 756 986 l 879 986 b 903 933 915 986 921 961 l 374 49 b 283 0 347 6 335 0 l 218 0 m 861 0 b 822 46 831 0 822 10 l 822 103 l 628 103 b 583 151 593 103 583 113 l 583 190 b 599 243 583 217 586 224 l 794 519 b 863 549 814 547 826 549 l 926 549 b 974 496 967 549 974 539 l 974 238 l 988 238 b 1029 194 1022 238 1029 229 l 1029 146 b 988 103 1029 110 1022 103 l 974 103 l 974 46 b 935 0 974 10 965 0 l 861 0 m 824 238 l 825 349 l 750 238 "},"½":{"ha":1122,"x_min":0,"x_max":0,"o":"m 229 443 b 172 499 186 443 172 457 l 172 788 l 153 776 b 75 796 117 756 93 765 l 51 835 b 76 911 29 871 42 890 l 183 976 b 247 992 204 989 221 992 l 281 992 b 338 936 324 992 338 978 l 338 499 b 281 443 338 457 324 443 l 229 443 m 200 0 b 172 56 161 0 154 26 l 704 940 b 794 986 729 982 738 986 l 861 986 b 885 933 897 986 903 961 l 356 49 b 265 0 329 6 317 0 l 200 0 m 719 0 b 675 47 686 0 675 11 l 675 86 b 789 285 675 188 700 246 l 854 313 b 901 371 888 326 901 336 b 868 407 901 393 889 407 b 826 374 849 407 838 397 b 764 343 811 339 800 329 l 708 363 b 681 429 674 374 667 389 b 879 560 710 508 767 560 b 1067 385 997 560 1067 486 b 944 200 1067 292 1036 236 l 889 178 b 857 153 872 171 857 163 l 857 147 l 1018 147 b 1061 99 1051 147 1061 133 l 1061 47 b 1019 0 1061 14 1051 0 l 719 0 "},"¾":{"ha":1119,"x_min":0,"x_max":0,"o":"m 257 436 b 51 565 147 436 79 478 b 74 631 40 603 46 622 l 125 647 b 186 618 161 658 171 656 b 251 579 199 593 221 579 b 294 614 281 579 294 592 b 258 653 294 640 286 653 l 222 653 b 188 700 193 653 188 660 l 188 743 b 226 794 188 789 192 794 l 250 794 b 288 831 272 794 288 806 b 249 865 288 853 274 865 b 186 831 217 865 197 858 b 122 799 169 789 161 782 l 79 815 b 56 876 56 825 43 839 b 258 1007 83 963 146 1007 b 440 847 374 1007 439 940 b 389 735 440 790 426 763 b 456 600 439 703 456 654 b 257 436 456 500 390 436 m 261 0 b 233 56 222 0 215 26 l 765 940 b 856 986 790 982 799 986 l 922 986 b 946 933 958 986 964 961 l 418 49 b 326 0 390 6 379 0 l 261 0 m 906 0 b 868 46 875 0 868 10 l 868 103 l 672 103 b 629 151 638 103 629 113 l 629 190 b 643 243 629 217 631 224 l 839 519 b 907 549 858 547 871 549 l 971 549 b 1018 496 1011 549 1018 539 l 1018 238 l 1032 238 b 1074 194 1067 238 1074 229 l 1074 146 b 1032 103 1074 110 1067 103 l 1018 103 l 1018 46 b 979 0 1018 10 1010 0 l 906 0 m 868 238 l 869 349 l 794 238 "},"¿":{"ha":792,"x_min":0,"x_max":0,"o":"m 457 732 b 561 628 536 732 561 707 l 561 608 b 457 504 561 529 536 504 l 438 504 b 333 608 358 504 333 529 l 333 628 b 438 732 333 707 358 732 l 457 732 m 496 442 b 546 389 532 442 546 429 b 436 165 546 260 493 207 b 306 -10 372 119 306 90 b 411 -121 306 -81 340 -121 b 557 -11 483 -121 525 -85 b 624 26 574 31 586 39 l 713 -6 b 746 -76 750 -18 760 -36 b 410 -307 694 -214 594 -307 b 85 -21 197 -307 85 -182 b 303 286 85 157 204 213 b 353 389 336 311 353 347 b 403 442 353 429 367 442 l 496 442 "},"À":{"ha":885,"x_min":0,"x_max":0,"o":"m 286 1146 b 279 1201 254 1157 256 1172 l 326 1258 b 418 1261 353 1290 386 1279 l 614 1146 b 617 1093 639 1132 638 1119 l 592 1061 b 529 1057 578 1043 560 1046 m 53 0 b 18 54 14 0 6 18 l 319 940 b 383 986 332 978 347 986 l 501 986 b 565 943 536 986 553 978 l 867 54 b 831 0 879 18 868 0 l 721 0 b 631 50 660 0 642 11 l 594 185 l 282 185 l 244 50 b 157 0 233 11 215 0 l 53 0 m 539 365 l 481 586 b 443 778 461 661 447 739 l 433 778 b 397 588 429 738 418 660 l 339 365 "},"Á":{"ha":885,"x_min":0,"x_max":0,"o":"m 360 1057 b 297 1061 329 1046 311 1042 l 272 1093 b 275 1146 251 1119 250 1132 l 471 1260 b 563 1257 503 1278 536 1289 l 610 1200 b 603 1144 633 1172 635 1157 l 360 1057 m 53 0 b 18 54 14 0 6 18 l 319 940 b 383 986 332 978 347 986 l 501 986 b 565 943 536 986 553 978 l 867 54 b 831 0 879 18 868 0 l 721 0 b 631 50 660 0 642 11 l 594 185 l 282 185 l 244 50 b 157 0 233 11 215 0 l 53 0 m 539 365 l 481 586 b 443 778 461 661 447 739 l 433 778 b 397 588 429 738 418 660 l 339 365 "},"Â":{"ha":885,"x_min":0,"x_max":0,"o":"m 231 1051 b 207 1093 188 1051 186 1072 l 339 1226 b 436 1268 376 1265 388 1268 l 460 1268 b 550 1226 500 1268 511 1267 l 682 1093 b 660 1051 703 1072 701 1051 l 579 1051 b 497 1079 536 1051 519 1054 l 443 1142 l 383 1081 b 304 1051 358 1053 347 1051 l 231 1051 m 53 0 b 18 54 14 0 6 18 l 319 940 b 383 986 332 978 347 986 l 501 986 b 565 943 536 986 553 978 l 867 54 b 831 0 879 18 868 0 l 721 0 b 631 50 660 0 642 11 l 594 185 l 282 185 l 244 50 b 157 0 233 11 215 0 l 53 0 m 539 365 l 481 586 b 443 778 461 661 447 739 l 433 778 b 397 588 429 738 418 660 l 339 365 "},"Ã":{"ha":885,"x_min":0,"x_max":0,"o":"m 246 1060 b 215 1090 224 1060 215 1069 b 336 1253 215 1215 258 1253 b 513 1183 433 1253 463 1183 b 536 1224 528 1183 536 1193 b 564 1253 536 1244 542 1253 l 621 1253 b 653 1222 646 1253 653 1243 b 529 1060 653 1099 613 1060 b 357 1131 440 1060 408 1131 b 333 1090 342 1131 333 1119 b 304 1060 333 1069 325 1060 l 246 1060 m 53 0 b 18 54 14 0 6 18 l 319 940 b 383 986 332 978 347 986 l 501 986 b 565 943 536 986 553 978 l 867 54 b 831 0 879 18 868 0 l 721 0 b 631 50 660 0 642 11 l 594 185 l 282 185 l 244 50 b 157 0 233 11 215 0 l 53 0 m 539 365 l 481 586 b 443 778 461 661 447 739 l 433 778 b 397 588 429 738 418 660 l 339 365 "},"Ä":{"ha":885,"x_min":0,"x_max":0,"o":"m 294 1064 b 208 1150 228 1064 208 1085 l 208 1164 b 294 1250 208 1229 228 1250 l 304 1250 b 392 1164 371 1250 392 1229 l 392 1150 b 304 1064 392 1085 371 1064 l 294 1064 m 579 1064 b 492 1150 513 1064 492 1085 l 492 1164 b 579 1250 492 1229 513 1250 l 589 1250 b 675 1164 656 1250 675 1229 l 675 1150 b 589 1064 675 1085 656 1064 l 579 1064 m 53 0 b 18 54 14 0 6 18 l 319 940 b 383 986 332 978 347 986 l 501 986 b 565 943 536 986 553 978 l 867 54 b 831 0 879 18 868 0 l 721 0 b 631 50 660 0 642 11 l 594 185 l 282 185 l 244 50 b 157 0 233 11 215 0 l 53 0 m 539 365 l 481 586 b 443 778 461 661 447 739 l 433 778 b 397 588 429 738 418 660 l 339 365 "},"Å":{"ha":885,"x_min":0,"x_max":0,"o":"m 53 0 b 18 54 14 0 6 18 l 315 922 b 258 1053 279 953 258 999 b 443 1231 258 1158 335 1231 b 624 1053 549 1231 624 1158 b 571 925 624 999 604 956 l 867 54 b 831 0 879 18 868 0 l 721 0 b 631 50 660 0 642 11 l 594 185 l 282 185 l 244 50 b 157 0 233 11 215 0 l 53 0 m 443 989 b 506 1053 479 989 506 1015 b 443 1118 506 1092 479 1118 b 375 1053 403 1118 375 1092 b 443 989 375 1017 403 989 m 539 365 l 481 586 b 443 778 461 661 447 739 l 433 778 b 397 588 429 738 418 660 l 339 365 "},"Æ":{"ha":1169,"x_min":0,"x_max":0,"o":"m 39 0 b 6 54 1 0 -11 19 l 539 940 b 604 986 560 974 568 986 l 1058 986 b 1111 931 1097 986 1111 972 l 1111 843 b 1058 786 1111 800 1097 786 l 778 786 l 778 599 l 990 599 b 1044 543 1031 599 1044 585 l 1044 456 b 990 399 1044 414 1031 399 l 778 399 l 778 200 l 1069 200 b 1124 143 1110 200 1124 186 l 1124 56 b 1069 0 1124 14 1110 0 l 625 0 b 572 56 585 0 572 14 l 572 185 l 315 185 l 244 50 b 146 0 226 13 214 0 l 39 0 m 572 358 l 575 651 l 424 358 "},"Ç":{"ha":849,"x_min":0,"x_max":0,"o":"m 422 -340 b 324 -325 403 -340 353 -339 b 294 -282 301 -315 294 -306 l 294 -232 b 322 -211 294 -214 300 -200 b 397 -231 346 -224 361 -231 b 453 -193 439 -231 453 -211 b 404 -161 453 -171 443 -162 l 375 -161 b 354 -122 349 -161 343 -150 l 393 -18 b 67 350 183 0 67 138 l 67 636 b 444 1007 67 865 203 1007 b 804 775 635 1007 751 924 b 771 704 818 736 807 715 l 668 672 b 601 708 629 660 615 667 b 446 807 579 776 528 807 b 283 638 335 807 283 751 l 283 349 b 444 179 283 236 333 181 b 599 279 524 178 575 211 b 665 317 613 321 628 329 l 772 282 b 804 211 808 271 817 250 b 511 -18 760 81 663 0 l 492 -69 l 504 -69 b 619 -203 578 -69 628 -129 b 422 -340 607 -312 513 -340 "},"È":{"ha":768,"x_min":0,"x_max":0,"o":"m 251 1146 b 244 1201 219 1157 221 1172 l 292 1258 b 383 1261 318 1290 351 1279 l 579 1146 b 582 1093 604 1132 603 1119 l 557 1061 b 494 1057 543 1043 525 1046 m 146 0 b 93 56 107 0 93 14 l 93 931 b 146 986 93 972 107 986 l 657 986 b 710 931 697 986 710 972 l 710 843 b 657 786 710 800 697 786 l 310 786 l 310 599 l 593 599 b 644 543 632 599 644 585 l 644 456 b 593 399 644 414 632 399 l 310 399 l 310 200 l 668 200 b 721 143 708 200 721 186 l 721 56 b 668 0 721 14 708 0 l 146 0 "},"É":{"ha":768,"x_min":0,"x_max":0,"o":"m 325 1057 b 263 1061 294 1046 276 1042 l 238 1093 b 240 1146 217 1119 215 1132 l 436 1260 b 528 1257 468 1278 501 1289 l 575 1200 b 568 1144 599 1172 600 1157 l 325 1057 m 146 0 b 93 56 107 0 93 14 l 93 931 b 146 986 93 972 107 986 l 657 986 b 710 931 697 986 710 972 l 710 843 b 657 786 710 800 697 786 l 310 786 l 310 599 l 593 599 b 644 543 632 599 644 585 l 644 456 b 593 399 644 414 632 399 l 310 399 l 310 200 l 668 200 b 721 143 708 200 721 186 l 721 56 b 668 0 721 14 708 0 l 146 0 "},"Ê":{"ha":768,"x_min":0,"x_max":0,"o":"m 194 1051 b 171 1093 151 1051 150 1072 l 303 1226 b 400 1268 340 1265 351 1268 l 424 1268 b 514 1226 464 1268 475 1267 l 646 1093 b 624 1051 667 1072 665 1051 l 543 1051 b 461 1079 500 1051 483 1054 l 407 1142 l 347 1081 b 268 1051 322 1053 311 1051 l 194 1051 m 146 0 b 93 56 107 0 93 14 l 93 931 b 146 986 93 972 107 986 l 657 986 b 710 931 697 986 710 972 l 710 843 b 657 786 710 800 697 786 l 310 786 l 310 599 l 593 599 b 644 543 632 599 644 585 l 644 456 b 593 399 644 414 632 399 l 310 399 l 310 200 l 668 200 b 721 143 708 200 721 186 l 721 56 b 668 0 721 14 708 0 l 146 0 "},"Ë":{"ha":768,"x_min":0,"x_max":0,"o":"m 258 1064 b 172 1150 192 1064 172 1085 l 172 1164 b 258 1250 172 1229 192 1250 l 268 1250 b 356 1164 335 1250 356 1229 l 356 1150 b 268 1064 356 1085 335 1064 l 258 1064 m 543 1064 b 456 1150 476 1064 456 1085 l 456 1164 b 543 1250 456 1229 476 1250 l 553 1250 b 639 1164 619 1250 639 1229 l 639 1150 b 553 1064 639 1085 619 1064 l 543 1064 m 146 0 b 93 56 107 0 93 14 l 93 931 b 146 986 93 972 107 986 l 657 986 b 710 931 697 986 710 972 l 710 843 b 657 786 710 800 697 786 l 310 786 l 310 599 l 593 599 b 644 543 632 599 644 585 l 644 456 b 593 399 644 414 632 399 l 310 399 l 310 200 l 668 200 b 721 143 708 200 721 186 l 721 56 b 668 0 721 14 708 0 l 146 0 "},"Ì":{"ha":404,"x_min":0,"x_max":0,"o":"m 49 1146 b 42 1201 17 1157 18 1172 l 89 1258 b 181 1261 115 1290 149 1279 l 376 1146 b 379 1093 401 1132 400 1119 l 354 1061 b 292 1057 340 1043 322 1046 m 142 0 b 93 51 113 0 93 10 l 93 936 b 142 986 93 978 113 986 l 264 986 b 310 936 293 986 310 978 l 310 51 b 261 0 310 10 289 0 l 142 0 "},"Í":{"ha":404,"x_min":0,"x_max":0,"o":"m 122 1057 b 60 1061 92 1046 74 1042 l 35 1093 b 38 1146 14 1119 13 1132 l 233 1260 b 325 1257 265 1278 299 1289 l 372 1200 b 365 1144 396 1172 397 1157 l 122 1057 m 142 0 b 93 51 113 0 93 10 l 93 936 b 142 986 93 978 113 986 l 264 986 b 310 936 293 986 310 978 l 310 51 b 261 0 310 10 289 0 l 142 0 "},"Î":{"ha":404,"x_min":0,"x_max":0,"o":"m -8 1051 b -32 1093 -51 1051 -53 1072 l 100 1226 b 197 1268 138 1265 149 1268 l 221 1268 b 311 1226 261 1268 272 1267 l 443 1093 b 421 1051 464 1072 463 1051 l 340 1051 b 258 1079 297 1051 281 1054 l 204 1142 l 144 1081 b 65 1051 119 1053 108 1051 l -8 1051 m 142 0 b 93 51 113 0 93 10 l 93 936 b 142 986 93 978 113 986 l 264 986 b 310 936 293 986 310 978 l 310 51 b 261 0 310 10 289 0 l 142 0 "},"Ï":{"ha":404,"x_min":0,"x_max":0,"o":"m 57 1064 b -29 1150 -10 1064 -29 1085 l -29 1164 b 57 1250 -29 1229 -10 1250 l 67 1250 b 154 1164 133 1250 154 1229 l 154 1150 b 67 1064 154 1085 133 1064 l 57 1064 m 342 1064 b 254 1150 275 1064 254 1085 l 254 1164 b 342 1250 254 1229 275 1250 l 351 1250 b 438 1164 418 1250 438 1229 l 438 1150 b 351 1064 438 1085 418 1064 l 342 1064 m 142 0 b 93 51 113 0 93 10 l 93 936 b 142 986 93 978 113 986 l 264 986 b 310 936 293 986 310 978 l 310 51 b 261 0 310 10 289 0 l 142 0 "},"Ð":{"ha":897,"x_min":0,"x_max":0,"o":"m 150 0 b 99 56 111 0 99 14 l 99 429 l 51 429 b 19 464 26 429 19 436 l 19 544 b 51 579 19 571 29 579 l 99 579 l 99 931 b 150 986 99 972 111 986 l 451 986 b 831 615 696 986 831 844 l 831 371 b 451 0 831 142 696 0 l 150 0 m 453 200 b 614 371 564 200 614 258 l 614 615 b 453 786 614 728 564 786 l 315 786 l 315 579 l 438 579 b 469 544 463 579 469 571 l 469 464 b 438 429 469 436 463 429 l 315 429 l 315 200 "},"Ñ":{"ha":928,"x_min":0,"x_max":0,"o":"m 271 1060 b 240 1090 249 1060 240 1069 b 361 1253 240 1215 283 1253 b 538 1183 458 1253 488 1183 b 561 1224 553 1183 561 1193 b 589 1253 561 1244 567 1253 l 646 1253 b 678 1222 671 1253 678 1243 b 554 1060 678 1099 638 1060 b 382 1131 465 1060 433 1131 b 358 1090 367 1131 358 1119 b 329 1060 358 1069 350 1060 l 271 1060 m 146 0 b 93 56 107 0 93 14 l 93 931 b 146 986 93 972 107 986 l 275 986 b 326 960 303 986 317 978 l 558 531 b 656 281 610 435 628 365 l 668 281 b 625 579 643 376 625 456 l 625 931 b 678 986 625 972 639 986 l 782 986 b 835 931 821 986 835 972 l 835 56 b 782 0 835 14 821 0 l 657 0 b 607 26 631 0 617 7 l 379 453 b 281 710 331 544 304 631 l 271 710 b 303 407 288 626 303 528 l 303 56 b 250 0 303 14 289 0 l 146 0 "},"Ò":{"ha":893,"x_min":0,"x_max":0,"o":"m 292 1160 b 285 1215 260 1171 261 1186 l 332 1272 b 424 1275 358 1304 392 1293 l 619 1160 b 622 1107 644 1146 643 1133 l 597 1075 b 535 1071 583 1057 565 1060 m 446 -21 b 67 350 203 -21 67 121 l 67 636 b 446 1007 67 865 203 1007 b 826 636 690 1007 826 865 l 826 350 b 446 -21 826 121 690 -21 m 446 179 b 610 346 553 179 610 236 l 610 640 b 446 807 610 750 553 807 b 283 640 339 807 283 750 l 283 346 b 446 179 283 236 339 179 "},"Ó":{"ha":893,"x_min":0,"x_max":0,"o":"m 365 1071 b 303 1075 335 1060 317 1056 l 278 1107 b 281 1160 257 1133 256 1146 l 476 1274 b 568 1271 508 1292 542 1303 l 615 1214 b 608 1158 639 1186 640 1171 l 365 1071 m 446 -21 b 67 350 203 -21 67 121 l 67 636 b 446 1007 67 865 203 1007 b 826 636 690 1007 826 865 l 826 350 b 446 -21 826 121 690 -21 m 446 179 b 610 346 553 179 610 236 l 610 640 b 446 807 610 750 553 807 b 283 640 339 807 283 750 l 283 346 b 446 179 283 236 339 179 "},"Ô":{"ha":893,"x_min":0,"x_max":0,"o":"m 235 1065 b 211 1107 192 1065 190 1086 l 343 1240 b 440 1282 381 1279 392 1282 l 464 1282 b 554 1240 504 1282 515 1281 l 686 1107 b 664 1065 707 1086 706 1065 l 583 1065 b 501 1093 540 1065 524 1068 l 447 1156 l 388 1094 b 308 1065 363 1067 351 1065 l 235 1065 m 446 -21 b 67 350 203 -21 67 121 l 67 636 b 446 1007 67 865 203 1007 b 826 636 690 1007 826 865 l 826 350 b 446 -21 826 121 690 -21 m 446 179 b 610 346 553 179 610 236 l 610 640 b 446 807 610 750 553 807 b 283 640 339 807 283 750 l 283 346 b 446 179 283 236 339 179 "},"Õ":{"ha":893,"x_min":0,"x_max":0,"o":"m 251 1074 b 221 1104 229 1074 221 1083 b 342 1267 221 1229 264 1267 b 518 1197 439 1267 468 1197 b 542 1238 533 1197 542 1207 b 569 1267 542 1258 547 1267 l 626 1267 b 658 1236 651 1267 658 1257 b 535 1074 658 1113 618 1074 b 363 1144 446 1074 414 1144 b 339 1104 347 1144 339 1133 b 310 1074 339 1083 331 1074 l 251 1074 m 446 -21 b 67 350 203 -21 67 121 l 67 636 b 446 1007 67 865 203 1007 b 826 636 690 1007 826 865 l 826 350 b 446 -21 826 121 690 -21 m 446 179 b 610 346 553 179 610 236 l 610 640 b 446 807 610 750 553 807 b 283 640 339 807 283 750 l 283 346 b 446 179 283 236 339 179 "},"Ö":{"ha":893,"x_min":0,"x_max":0,"o":"m 299 1078 b 213 1164 232 1078 213 1099 l 213 1178 b 299 1264 213 1243 232 1264 l 308 1264 b 396 1178 375 1264 396 1243 l 396 1164 b 308 1078 396 1099 375 1078 l 299 1078 m 583 1078 b 496 1164 517 1078 496 1099 l 496 1178 b 583 1264 496 1243 517 1264 l 593 1264 b 679 1178 660 1264 679 1243 l 679 1164 b 593 1078 679 1099 660 1078 l 583 1078 m 446 -21 b 67 350 203 -21 67 121 l 67 636 b 446 1007 67 865 203 1007 b 826 636 690 1007 826 865 l 826 350 b 446 -21 826 121 690 -21 m 446 179 b 610 346 553 179 610 236 l 610 640 b 446 807 610 750 553 807 b 283 640 339 807 283 750 l 283 346 b 446 179 283 236 339 179 "},"×":{"ha":692,"x_min":0,"x_max":0,"o":"m 344 321 l 207 171 b 136 171 182 143 165 144 l 85 222 b 85 297 58 247 58 269 l 229 449 l 86 600 b 86 676 58 629 60 649 l 136 728 b 207 728 164 754 182 756 l 344 576 l 483 729 b 553 729 510 757 528 756 l 606 675 b 606 600 632 649 632 626 l 460 449 l 606 296 b 606 221 632 268 633 247 l 553 169 b 483 169 526 143 510 140 "},"Ø":{"ha":893,"x_min":0,"x_max":0,"o":"m 68 -54 b 58 -35 54 -54 53 -44 l 140 106 b 67 350 92 168 67 250 l 67 636 b 446 1007 67 865 203 1007 b 640 968 521 1007 586 993 l 676 1031 b 711 1047 686 1046 692 1047 l 822 1047 b 832 1029 835 1047 839 1039 l 749 885 b 826 636 800 821 826 738 l 826 350 b 446 -21 826 121 690 -21 b 247 21 369 -21 301 -6 l 217 -33 b 179 -54 207 -50 203 -54 l 68 -54 m 538 788 b 446 807 513 800 483 807 b 283 640 339 807 283 750 l 283 382 l 283 349 m 446 179 b 610 346 553 179 610 236 l 610 622 b 608 647 610 631 610 639 l 351 200 b 446 179 376 186 407 179 "},"Ù":{"ha":917,"x_min":0,"x_max":0,"o":"m 303 1146 b 296 1201 271 1157 272 1172 l 343 1258 b 435 1261 369 1290 403 1279 l 631 1146 b 633 1093 656 1132 654 1119 l 608 1061 b 546 1057 594 1043 576 1046 m 458 -21 b 86 344 214 -21 86 122 l 86 932 b 139 986 86 974 100 986 l 251 986 b 303 932 290 986 303 974 l 303 340 b 458 179 303 238 353 179 b 614 340 564 179 614 238 l 614 932 b 665 986 614 974 626 986 l 778 986 b 831 932 817 986 831 974 l 831 344 b 458 -21 831 122 701 -21 "},"Ú":{"ha":917,"x_min":0,"x_max":0,"o":"m 376 1057 b 314 1061 346 1046 328 1042 l 289 1093 b 292 1146 268 1119 267 1132 l 488 1260 b 579 1257 519 1278 553 1289 l 626 1200 b 619 1144 650 1172 651 1157 l 376 1057 m 458 -21 b 86 344 214 -21 86 122 l 86 932 b 139 986 86 974 100 986 l 251 986 b 303 932 290 986 303 974 l 303 340 b 458 179 303 238 353 179 b 614 340 564 179 614 238 l 614 932 b 665 986 614 974 626 986 l 778 986 b 831 932 817 986 831 974 l 831 344 b 458 -21 831 122 701 -21 "},"Û":{"ha":917,"x_min":0,"x_max":0,"o":"m 246 1051 b 222 1093 203 1051 201 1072 l 354 1226 b 451 1268 392 1265 403 1268 l 475 1268 b 565 1226 515 1268 526 1267 l 697 1093 b 675 1051 718 1072 717 1051 l 594 1051 b 513 1079 551 1051 535 1054 l 458 1142 l 399 1081 b 319 1051 374 1053 363 1051 l 246 1051 m 458 -21 b 86 344 214 -21 86 122 l 86 932 b 139 986 86 974 100 986 l 251 986 b 303 932 290 986 303 974 l 303 340 b 458 179 303 238 353 179 b 614 340 564 179 614 238 l 614 932 b 665 986 614 974 626 986 l 778 986 b 831 932 817 986 831 974 l 831 344 b 458 -21 831 122 701 -21 "},"Ü":{"ha":917,"x_min":0,"x_max":0,"o":"m 311 1064 b 225 1150 244 1064 225 1085 l 225 1164 b 311 1250 225 1229 244 1250 l 321 1250 b 408 1164 388 1250 408 1229 l 408 1150 b 321 1064 408 1085 388 1064 l 311 1064 m 596 1064 b 508 1150 529 1064 508 1085 l 508 1164 b 596 1250 508 1229 529 1250 l 606 1250 b 692 1164 672 1250 692 1229 l 692 1150 b 606 1064 692 1085 672 1064 l 596 1064 m 458 -21 b 86 344 214 -21 86 122 l 86 932 b 139 986 86 974 100 986 l 251 986 b 303 932 290 986 303 974 l 303 340 b 458 179 303 238 353 179 b 614 340 564 179 614 238 l 614 932 b 665 986 614 974 626 986 l 778 986 b 831 932 817 986 831 974 l 831 344 b 458 -21 831 122 701 -21 "},"Ý":{"ha":867,"x_min":0,"x_max":0,"o":"m 356 1057 b 293 1061 325 1046 307 1042 l 268 1093 b 271 1146 247 1119 246 1132 l 467 1260 b 558 1257 499 1278 532 1289 l 606 1200 b 599 1144 629 1172 631 1157 l 356 1057 m 375 0 b 322 56 336 0 322 14 l 322 385 l 24 931 b 50 986 7 961 13 986 l 179 986 b 271 936 240 986 251 979 l 433 593 l 601 936 b 692 986 621 979 631 986 l 815 986 b 842 931 853 986 858 961 l 539 383 l 539 56 b 486 0 539 14 525 0 l 375 0 "},"Þ":{"ha":826,"x_min":0,"x_max":0,"o":"m 146 0 b 93 56 107 0 93 14 l 93 931 b 146 986 93 972 107 986 l 257 986 b 310 931 296 986 310 972 l 310 839 l 469 839 b 786 499 654 839 786 713 b 469 158 786 285 654 158 l 310 158 l 310 56 b 257 0 310 14 296 0 l 146 0 m 446 354 b 572 499 524 354 572 417 b 446 644 572 582 524 644 l 310 644 l 310 354 "},"ß":{"ha":743,"x_min":0,"x_max":0,"o":"m 129 0 b 79 56 92 0 79 14 l 79 733 b 374 1042 79 940 181 1042 b 660 756 572 1042 660 928 b 575 546 660 663 636 593 l 575 540 b 696 288 643 507 696 439 b 425 0 696 101 592 0 l 376 0 b 328 56 339 0 328 14 l 328 143 b 376 200 328 186 339 200 l 393 200 b 492 314 460 200 492 240 b 393 431 492 386 461 431 l 376 431 b 328 486 339 431 328 444 l 328 568 b 368 624 328 610 338 624 l 378 624 b 464 733 432 624 464 661 b 372 847 464 803 438 847 b 281 732 308 847 281 811 l 281 56 b 229 0 281 14 267 0 l 129 0 "},"à":{"ha":686,"x_min":0,"x_max":0,"o":"m 182 903 b 175 958 150 915 151 929 l 222 1014 b 314 1017 249 1046 282 1036 l 510 901 b 513 849 535 888 533 875 l 488 817 b 424 814 474 799 456 803 m 333 -21 b 44 208 128 -21 44 49 b 336 433 44 369 128 433 b 419 429 360 433 404 431 l 419 475 b 333 571 419 549 396 571 b 236 517 286 571 256 553 b 169 494 218 486 203 478 l 101 524 b 75 596 68 539 57 557 b 336 743 119 688 201 743 b 619 464 550 743 619 635 l 619 96 b 574 15 619 47 610 32 b 333 -21 526 -7 443 -21 m 325 139 b 413 144 363 139 399 142 b 419 156 418 146 419 149 l 419 278 b 328 281 394 279 353 281 b 243 208 269 281 243 258 b 325 139 243 161 268 139 "},"á":{"ha":686,"x_min":0,"x_max":0,"o":"m 257 814 b 193 817 225 803 207 799 l 168 849 b 171 901 147 875 146 888 l 367 1017 b 458 1014 399 1036 432 1046 l 506 958 b 499 903 529 929 531 915 l 257 814 m 333 -21 b 44 208 128 -21 44 49 b 336 433 44 369 128 433 b 419 429 360 433 404 431 l 419 475 b 333 571 419 549 396 571 b 236 517 286 571 256 553 b 169 494 218 486 203 478 l 101 524 b 75 596 68 539 57 557 b 336 743 119 688 201 743 b 619 464 550 743 619 635 l 619 96 b 574 15 619 47 610 32 b 333 -21 526 -7 443 -21 m 325 139 b 413 144 363 139 399 142 b 419 156 418 146 419 149 l 419 278 b 328 281 394 279 353 281 b 243 208 269 281 243 258 b 325 139 243 161 268 139 "},"â":{"ha":686,"x_min":0,"x_max":0,"o":"m 126 808 b 103 850 83 808 83 829 l 235 983 b 332 1025 272 1022 282 1025 l 354 1025 b 446 983 394 1025 406 1024 l 576 850 b 554 808 597 829 596 808 l 474 808 b 392 836 431 808 414 811 l 338 899 l 278 838 b 199 808 253 810 242 808 l 126 808 m 333 -21 b 44 208 128 -21 44 49 b 336 433 44 369 128 433 b 419 429 360 433 404 431 l 419 475 b 333 571 419 549 396 571 b 236 517 286 571 256 553 b 169 494 218 486 203 478 l 101 524 b 75 596 68 539 57 557 b 336 743 119 688 201 743 b 619 464 550 743 619 635 l 619 96 b 574 15 619 47 610 32 b 333 -21 526 -7 443 -21 m 325 139 b 413 144 363 139 399 142 b 419 156 418 146 419 149 l 419 278 b 328 281 394 279 353 281 b 243 208 269 281 243 258 b 325 139 243 161 268 139 "},"ã":{"ha":686,"x_min":0,"x_max":0,"o":"m 142 822 b 111 853 119 822 111 832 b 232 1015 111 978 154 1015 b 408 944 329 1015 358 944 b 432 985 424 944 432 956 b 460 1015 432 1006 438 1015 l 517 1015 b 549 985 542 1015 549 1006 b 425 822 549 861 508 822 b 253 892 336 822 304 892 b 229 851 238 892 229 882 b 200 822 229 831 221 822 l 142 822 m 333 -21 b 44 208 128 -21 44 49 b 336 433 44 369 128 433 b 419 429 360 433 404 431 l 419 475 b 333 571 419 549 396 571 b 236 517 286 571 256 553 b 169 494 218 486 203 478 l 101 524 b 75 596 68 539 57 557 b 336 743 119 688 201 743 b 619 464 550 743 619 635 l 619 96 b 574 15 619 47 610 32 b 333 -21 526 -7 443 -21 m 325 139 b 413 144 363 139 399 142 b 419 156 418 146 419 149 l 419 278 b 328 281 394 279 353 281 b 243 208 269 281 243 258 b 325 139 243 161 268 139 "},"ä":{"ha":686,"x_min":0,"x_max":0,"o":"m 189 814 b 103 900 122 814 103 836 l 103 915 b 189 1001 103 979 122 1001 l 199 1001 b 286 915 265 1001 286 979 l 286 900 b 199 814 286 836 265 814 l 189 814 m 463 814 b 375 900 396 814 375 836 l 375 915 b 463 1001 375 979 396 1001 l 472 1001 b 558 915 539 1001 558 979 l 558 900 b 472 814 558 836 539 814 l 463 814 m 333 -21 b 44 208 128 -21 44 49 b 336 433 44 369 128 433 b 419 429 360 433 404 431 l 419 475 b 333 571 419 549 396 571 b 236 517 286 571 256 553 b 169 494 218 486 203 478 l 101 524 b 75 596 68 539 57 557 b 336 743 119 688 201 743 b 619 464 550 743 619 635 l 619 96 b 574 15 619 47 610 32 b 333 -21 526 -7 443 -21 m 325 139 b 413 144 363 139 399 142 b 419 156 418 146 419 149 l 419 278 b 328 281 394 279 353 281 b 243 208 269 281 243 258 b 325 139 243 161 268 139 "},"å":{"ha":686,"x_min":0,"x_max":0,"o":"m 339 774 b 178 925 244 774 178 835 b 339 1081 178 1017 244 1081 b 496 925 431 1081 496 1017 b 339 774 496 836 431 774 m 339 867 b 397 925 372 867 397 892 b 339 985 397 961 372 985 b 276 925 301 985 276 961 b 339 867 276 892 301 867 m 333 -21 b 44 208 128 -21 44 49 b 336 433 44 369 128 433 b 419 429 360 433 404 431 l 419 475 b 333 571 419 549 396 571 b 236 517 286 571 256 553 b 169 494 218 486 203 478 l 101 524 b 75 596 68 539 57 557 b 336 743 119 688 201 743 b 619 464 550 743 619 635 l 619 96 b 574 15 619 47 610 32 b 333 -21 526 -7 443 -21 m 325 139 b 413 144 363 139 399 142 b 419 156 418 146 419 149 l 419 278 b 328 281 394 279 353 281 b 243 208 269 281 243 258 b 325 139 243 161 268 139 "},"æ":{"ha":1026,"x_min":0,"x_max":0,"o":"m 329 -21 b 44 207 125 -21 44 44 b 335 436 44 371 125 436 b 410 432 363 436 393 433 l 410 481 b 328 569 410 538 392 569 b 224 522 285 569 244 558 b 158 500 206 490 196 485 l 96 525 b 69 599 61 539 50 560 b 333 743 114 689 197 743 b 510 676 413 743 468 719 b 692 743 558 724 622 743 b 979 454 904 743 979 614 l 979 365 b 911 297 979 324 963 297 l 593 297 l 593 260 b 692 147 593 185 628 147 b 801 200 744 147 779 165 b 876 219 822 233 836 242 l 933 189 b 954 110 969 168 975 146 b 689 -21 907 28 832 -21 b 539 21 625 -21 574 -4 b 329 -21 488 -3 429 -21 m 788 446 l 788 472 b 692 579 788 546 757 579 b 594 472 626 579 594 546 l 594 446 m 319 139 b 410 149 364 139 397 144 l 410 206 l 410 275 b 322 278 392 276 349 278 b 240 208 251 278 240 250 b 319 139 240 167 250 139 "},"ç":{"ha":679,"x_min":0,"x_max":0,"o":"m 328 -340 b 229 -325 310 -340 258 -339 b 201 -282 207 -315 201 -306 l 200 -232 b 228 -211 200 -214 207 -200 b 304 -231 251 -224 267 -231 b 369 -193 357 -231 369 -211 b 313 -161 369 -171 360 -161 l 279 -161 b 258 -122 253 -161 247 -150 l 301 -19 b 56 265 131 -4 56 99 l 56 456 b 360 743 56 635 151 743 b 633 560 511 743 601 663 b 601 489 646 519 636 500 l 519 463 b 451 500 481 451 465 460 b 351 568 435 544 406 568 b 257 461 286 568 257 531 l 257 261 b 349 154 257 192 285 154 b 447 226 403 154 431 181 b 514 261 461 265 476 272 l 604 235 b 635 161 639 224 650 203 b 417 -15 599 65 531 3 l 399 -69 l 410 -69 b 525 -203 490 -69 533 -129 b 328 -340 513 -312 418 -340 "},"è":{"ha":700,"x_min":0,"x_max":0,"o":"m 200 903 b 193 958 168 915 169 929 l 240 1014 b 332 1017 267 1046 300 1036 l 528 901 b 531 849 553 888 551 875 l 506 817 b 442 814 492 799 474 803 m 356 -21 b 54 285 140 -21 54 110 l 54 438 b 356 743 54 636 163 743 b 654 453 563 743 654 611 l 654 365 b 588 297 654 324 638 297 l 254 297 l 254 261 b 358 147 254 183 290 147 b 464 203 414 147 444 165 b 532 222 482 236 496 242 l 601 188 b 624 107 636 169 644 144 b 356 -21 579 26 490 -21 m 456 446 l 456 468 b 356 579 456 542 425 579 b 254 468 286 579 254 542 l 254 446 "},"é":{"ha":700,"x_min":0,"x_max":0,"o":"m 275 814 b 211 817 243 803 225 799 l 186 849 b 189 901 165 875 164 888 l 385 1017 b 476 1014 417 1036 450 1046 l 524 958 b 517 903 547 929 549 915 l 275 814 m 356 -21 b 54 285 140 -21 54 110 l 54 438 b 356 743 54 636 163 743 b 654 453 563 743 654 611 l 654 365 b 588 297 654 324 638 297 l 254 297 l 254 261 b 358 147 254 183 290 147 b 464 203 414 147 444 165 b 532 222 482 236 496 242 l 601 188 b 624 107 636 169 644 144 b 356 -21 579 26 490 -21 m 456 446 l 456 468 b 356 579 456 542 425 579 b 254 468 286 579 254 542 l 254 446 "},"ê":{"ha":700,"x_min":0,"x_max":0,"o":"m 144 808 b 121 850 101 808 101 829 l 253 983 b 350 1025 290 1022 300 1025 l 372 1025 b 464 983 413 1025 424 1024 l 594 850 b 572 808 615 829 614 808 l 492 808 b 410 836 449 808 432 811 l 356 899 l 296 838 b 217 808 271 810 260 808 l 144 808 m 356 -21 b 54 285 140 -21 54 110 l 54 438 b 356 743 54 636 163 743 b 654 453 563 743 654 611 l 654 365 b 588 297 654 324 638 297 l 254 297 l 254 261 b 358 147 254 183 290 147 b 464 203 414 147 444 165 b 532 222 482 236 496 242 l 601 188 b 624 107 636 169 644 144 b 356 -21 579 26 490 -21 m 456 446 l 456 468 b 356 579 456 542 425 579 b 254 468 286 579 254 542 l 254 446 "},"ë":{"ha":700,"x_min":0,"x_max":0,"o":"m 208 814 b 122 900 142 814 122 836 l 122 915 b 208 1001 122 979 142 1001 l 218 1001 b 306 915 285 1001 306 979 l 306 900 b 218 814 306 836 285 814 l 208 814 m 482 814 b 394 900 415 814 394 836 l 394 915 b 482 1001 394 979 415 1001 l 492 1001 b 578 915 558 1001 578 979 l 578 900 b 492 814 578 836 558 814 l 482 814 m 356 -21 b 54 285 140 -21 54 110 l 54 438 b 356 743 54 636 163 743 b 654 453 563 743 654 611 l 654 365 b 588 297 654 324 638 297 l 254 297 l 254 261 b 358 147 254 183 290 147 b 464 203 414 147 444 165 b 532 222 482 236 496 242 l 601 188 b 624 107 636 169 644 144 b 356 -21 579 26 490 -21 m 456 446 l 456 468 b 356 579 456 542 425 579 b 254 468 286 579 254 542 l 254 446 "},"ì":{"ha":357,"x_min":0,"x_max":0,"o":"m 24 903 b 17 958 -8 915 -7 929 l 64 1014 b 156 1017 90 1046 124 1036 l 351 901 b 354 849 376 888 375 875 l 329 817 b 265 814 315 799 297 803 m 128 0 b 78 50 90 0 78 13 l 78 672 b 128 722 78 710 90 722 l 228 722 b 279 672 267 722 279 710 l 279 50 b 228 0 279 13 267 0 l 128 0 "},"í":{"ha":357,"x_min":0,"x_max":0,"o":"m 99 814 b 35 817 67 803 49 799 l 10 849 b 13 901 -11 875 -12 888 l 208 1017 b 300 1014 240 1036 274 1046 l 347 958 b 340 903 371 929 372 915 l 99 814 m 128 0 b 78 50 90 0 78 13 l 78 672 b 128 722 78 710 90 722 l 228 722 b 279 672 267 722 279 710 l 279 50 b 228 0 279 13 267 0 l 128 0 "},"î":{"ha":357,"x_min":0,"x_max":0,"o":"m -11 807 b -35 847 -53 807 -53 826 l 75 978 b 172 1018 110 1018 124 1018 l 193 1018 b 282 978 233 1018 247 1018 l 393 847 b 369 807 411 826 411 807 l 296 807 b 215 835 253 807 232 808 l 176 896 l 133 835 b 57 807 114 806 97 807 l -11 807 m 128 0 b 78 50 90 0 78 13 l 78 672 b 128 722 78 710 90 722 l 228 722 b 279 672 267 722 279 710 l 279 50 b 228 0 279 13 267 0 l 128 0 "},"ï":{"ha":357,"x_min":0,"x_max":0,"o":"m 43 814 b -43 900 -24 814 -43 836 l -43 915 b 43 1001 -43 979 -24 1001 l 53 1001 b 142 915 119 1001 142 979 l 142 900 b 53 814 142 836 119 814 l 43 814 m 304 814 b 215 900 238 814 215 836 l 215 915 b 304 1001 215 979 238 1001 l 314 1001 b 400 915 379 1001 400 979 l 400 900 b 314 814 400 836 379 814 l 304 814 m 128 0 b 78 50 90 0 78 13 l 78 672 b 128 722 78 710 90 722 l 228 722 b 279 672 267 722 279 710 l 279 50 b 228 0 279 13 267 0 l 128 0 "},"ð":{"ha":722,"x_min":0,"x_max":0,"o":"m 361 -21 b 57 265 160 -21 57 86 l 57 419 b 326 697 57 599 165 697 b 474 654 393 697 440 681 b 426 782 467 710 451 751 l 386 733 b 353 731 374 718 368 719 l 311 763 b 310 799 297 774 297 783 l 336 836 b 196 853 307 849 275 853 b 144 903 157 853 144 865 l 143 981 b 192 1033 143 1019 156 1033 b 468 989 308 1033 397 1019 l 510 1042 b 542 1043 522 1056 528 1056 l 588 1006 b 589 969 603 993 601 985 l 556 928 b 663 547 631 850 663 725 l 663 268 b 361 -21 663 89 558 -21 m 361 160 b 461 268 432 160 461 199 l 461 413 b 361 521 461 483 432 521 b 258 413 289 521 258 483 l 258 268 b 361 160 258 199 289 160 "},"ñ":{"ha":731,"x_min":0,"x_max":0,"o":"m 171 822 b 140 853 149 822 140 832 b 261 1015 140 978 183 1015 b 438 944 358 1015 388 944 b 461 985 453 944 461 956 b 489 1015 461 1006 467 1015 l 546 1015 b 578 985 571 1015 578 1006 b 454 822 578 861 538 822 b 282 892 365 822 333 892 b 258 851 267 892 258 882 b 229 822 258 831 250 822 l 171 822 m 122 0 b 76 50 88 0 76 13 l 76 614 b 125 694 76 658 85 676 b 386 743 178 717 260 743 b 660 458 572 743 660 638 l 660 50 b 613 0 660 13 647 0 l 504 0 b 458 50 469 0 458 13 l 458 451 b 360 560 458 526 418 560 b 282 547 335 560 301 554 b 278 542 279 546 278 544 l 278 50 b 231 0 278 13 267 0 l 122 0 "},"ò":{"ha":718,"x_min":0,"x_max":0,"o":"m 203 903 b 196 958 171 915 172 929 l 243 1014 b 335 1017 269 1046 303 1036 l 531 901 b 533 849 556 888 554 875 l 508 817 b 444 814 494 799 476 803 m 358 -21 b 56 268 161 -21 56 89 l 56 453 b 358 743 56 632 161 743 b 663 453 558 743 663 632 l 663 268 b 358 -21 663 89 558 -21 m 358 160 b 461 268 426 160 461 199 l 461 454 b 358 563 461 526 426 563 b 257 454 292 563 257 526 l 257 268 b 358 160 257 199 292 160 "},"ó":{"ha":718,"x_min":0,"x_max":0,"o":"m 278 814 b 214 817 246 803 228 799 l 189 849 b 192 901 168 875 167 888 l 388 1017 b 479 1014 419 1036 453 1046 l 526 958 b 519 903 550 929 551 915 l 278 814 m 358 -21 b 56 268 161 -21 56 89 l 56 453 b 358 743 56 632 161 743 b 663 453 558 743 663 632 l 663 268 b 358 -21 663 89 558 -21 m 358 160 b 461 268 426 160 461 199 l 461 454 b 358 563 461 526 426 563 b 257 454 292 563 257 526 l 257 268 b 358 160 257 199 292 160 "},"ô":{"ha":718,"x_min":0,"x_max":0,"o":"m 149 808 b 125 850 106 808 106 829 l 257 983 b 354 1025 294 1022 304 1025 l 376 1025 b 468 983 417 1025 428 1024 l 599 850 b 576 808 619 829 618 808 l 496 808 b 414 836 453 808 436 811 l 360 899 l 300 838 b 221 808 275 810 264 808 l 149 808 m 358 -21 b 56 268 161 -21 56 89 l 56 453 b 358 743 56 632 161 743 b 663 453 558 743 663 632 l 663 268 b 358 -21 663 89 558 -21 m 358 160 b 461 268 426 160 461 199 l 461 454 b 358 563 461 526 426 563 b 257 454 292 563 257 526 l 257 268 b 358 160 257 199 292 160 "},"õ":{"ha":718,"x_min":0,"x_max":0,"o":"m 163 822 b 132 853 140 822 132 832 b 253 1015 132 978 175 1015 b 429 944 350 1015 379 944 b 453 985 444 944 453 956 b 481 1015 453 1006 458 1015 l 538 1015 b 569 985 563 1015 569 1006 b 446 822 569 861 529 822 b 274 892 357 822 325 892 b 250 851 258 892 250 882 b 221 822 250 831 242 822 l 163 822 m 358 -21 b 56 268 161 -21 56 89 l 56 453 b 358 743 56 632 161 743 b 663 453 558 743 663 632 l 663 268 b 358 -21 663 89 558 -21 m 358 160 b 461 268 426 160 461 199 l 461 454 b 358 563 461 526 426 563 b 257 454 292 563 257 526 l 257 268 b 358 160 257 199 292 160 "},"ö":{"ha":718,"x_min":0,"x_max":0,"o":"m 211 814 b 125 900 144 814 125 836 l 125 915 b 211 1001 125 979 144 1001 l 221 1001 b 308 915 288 1001 308 979 l 308 900 b 221 814 308 836 288 814 l 211 814 m 485 814 b 397 900 418 814 397 836 l 397 915 b 485 1001 397 979 418 1001 l 494 1001 b 581 915 561 1001 581 979 l 581 900 b 494 814 581 836 561 814 l 485 814 m 358 -21 b 56 268 161 -21 56 89 l 56 453 b 358 743 56 632 161 743 b 663 453 558 743 663 632 l 663 268 b 358 -21 663 89 558 -21 m 358 160 b 461 268 426 160 461 199 l 461 454 b 358 563 461 526 426 563 b 257 454 292 563 257 526 l 257 268 b 358 160 257 199 292 160 "},"÷":{"ha":713,"x_min":0,"x_max":0,"o":"m 347 597 b 244 700 269 597 244 622 l 244 714 b 347 818 244 793 269 818 l 364 818 b 468 714 443 818 468 793 l 468 700 b 364 597 468 622 443 597 l 347 597 m 108 357 b 53 413 67 357 53 371 l 53 492 b 108 549 53 533 67 549 l 603 549 b 660 492 646 549 660 533 l 660 413 b 603 357 660 371 646 357 l 108 357 m 347 86 b 244 190 269 86 244 113 l 244 204 b 347 307 244 282 269 307 l 364 307 b 468 204 443 307 468 282 l 468 190 b 364 86 468 113 443 86 l 347 86 "},"ø":{"ha":718,"x_min":0,"x_max":0,"o":"m 83 -50 b 75 -29 69 -50 68 -39 l 128 63 b 56 268 81 111 56 182 l 56 453 b 358 743 56 632 161 743 b 510 717 417 743 468 733 l 531 753 b 564 768 539 767 544 768 l 639 768 b 649 750 653 768 654 761 l 593 657 b 663 453 639 606 663 538 l 663 268 b 358 -21 663 89 558 -21 b 214 4 303 -21 254 -11 l 192 -35 b 156 -50 183 -49 178 -50 l 83 -50 m 415 550 b 358 563 400 560 381 563 b 257 454 292 563 257 526 l 257 313 l 257 281 m 358 160 b 461 268 426 160 461 199 l 461 397 l 461 431 l 308 169 b 358 160 322 163 340 160 "},"ù":{"ha":731,"x_min":0,"x_max":0,"o":"m 208 903 b 201 958 176 915 178 929 l 249 1014 b 340 1017 275 1046 308 1036 l 536 901 b 539 849 561 888 560 875 l 514 817 b 450 814 500 799 482 803 m 346 -21 b 72 264 158 -21 72 85 l 72 672 b 118 722 72 710 83 722 l 226 722 b 274 672 261 722 274 710 l 274 271 b 372 163 274 196 301 163 b 446 172 397 163 425 164 b 454 188 451 175 454 178 l 454 672 b 500 722 454 710 465 722 l 608 722 b 656 672 643 722 656 710 l 656 107 b 604 28 656 63 646 46 b 346 -21 553 4 471 -21 "},"ú":{"ha":731,"x_min":0,"x_max":0,"o":"m 283 814 b 219 817 251 803 233 799 l 194 849 b 197 901 174 875 172 888 l 393 1017 b 485 1014 425 1036 458 1046 l 532 958 b 525 903 556 929 557 915 l 283 814 m 346 -21 b 72 264 158 -21 72 85 l 72 672 b 118 722 72 710 83 722 l 226 722 b 274 672 261 722 274 710 l 274 271 b 372 163 274 196 301 163 b 446 172 397 163 425 164 b 454 188 451 175 454 178 l 454 672 b 500 722 454 710 465 722 l 608 722 b 656 672 643 722 656 710 l 656 107 b 604 28 656 63 646 46 b 346 -21 553 4 471 -21 "},"û":{"ha":731,"x_min":0,"x_max":0,"o":"m 153 808 b 129 850 110 808 110 829 l 261 983 b 358 1025 299 1022 308 1025 l 381 1025 b 472 983 421 1025 432 1024 l 603 850 b 581 808 624 829 622 808 l 500 808 b 418 836 457 808 440 811 l 364 899 l 304 838 b 225 808 279 810 268 808 l 153 808 m 346 -21 b 72 264 158 -21 72 85 l 72 672 b 118 722 72 710 83 722 l 226 722 b 274 672 261 722 274 710 l 274 271 b 372 163 274 196 301 163 b 446 172 397 163 425 164 b 454 188 451 175 454 178 l 454 672 b 500 722 454 710 465 722 l 608 722 b 656 672 643 722 656 710 l 656 107 b 604 28 656 63 646 46 b 346 -21 553 4 471 -21 "},"ü":{"ha":731,"x_min":0,"x_max":0,"o":"m 217 814 b 131 900 150 814 131 836 l 131 915 b 217 1001 131 979 150 1001 l 226 1001 b 314 915 293 1001 314 979 l 314 900 b 226 814 314 836 293 814 l 217 814 m 490 814 b 403 900 424 814 403 836 l 403 915 b 490 1001 403 979 424 1001 l 500 1001 b 586 915 567 1001 586 979 l 586 900 b 500 814 586 836 567 814 l 490 814 m 346 -21 b 72 264 158 -21 72 85 l 72 672 b 118 722 72 710 83 722 l 226 722 b 274 672 261 722 274 710 l 274 271 b 372 163 274 196 301 163 b 446 172 397 163 425 164 b 454 188 451 175 454 178 l 454 672 b 500 722 454 710 465 722 l 608 722 b 656 672 643 722 656 710 l 656 107 b 604 28 656 63 646 46 b 346 -21 553 4 471 -21 "},"ý":{"ha":733,"x_min":0,"x_max":0,"o":"m 283 814 b 219 817 251 803 233 799 l 194 849 b 197 901 174 875 172 888 l 393 1017 b 485 1014 425 1036 458 1046 l 532 958 b 525 903 556 929 557 915 l 283 814 m 365 -321 b 93 -192 226 -321 142 -274 b 114 -112 71 -154 79 -129 l 192 -74 b 263 -94 228 -56 243 -61 b 361 -144 281 -129 318 -144 b 454 -32 426 -144 454 -110 l 454 31 b 346 21 426 25 390 21 b 72 306 158 21 72 126 l 72 672 b 118 722 72 710 83 722 l 226 722 b 274 672 261 722 274 710 l 274 313 b 372 204 274 238 300 204 b 454 214 407 204 433 208 l 454 672 b 500 722 454 710 465 722 l 608 722 b 656 672 643 722 656 710 l 656 -14 b 365 -321 656 -194 575 -321 "},"þ":{"ha":717,"x_min":0,"x_max":0,"o":"m 124 -306 b 76 -254 88 -306 76 -293 l 76 976 b 124 1028 76 1015 88 1028 l 231 1028 b 278 976 267 1028 278 1015 l 278 736 b 382 743 306 740 347 743 b 660 458 571 743 660 638 l 660 278 b 372 -21 660 85 563 -21 b 278 -7 342 -21 306 -15 l 278 -254 b 231 -306 278 -293 267 -306 l 124 -306 m 356 161 b 458 279 428 161 458 197 l 458 456 b 363 561 458 525 426 561 b 278 550 333 561 299 557 l 278 169 b 356 161 296 164 329 161 "},"ÿ":{"ha":733,"x_min":0,"x_max":0,"o":"m 217 814 b 131 900 150 814 131 836 l 131 915 b 217 1001 131 979 150 1001 l 226 1001 b 314 915 293 1001 314 979 l 314 900 b 226 814 314 836 293 814 l 217 814 m 490 814 b 403 900 424 814 403 836 l 403 915 b 490 1001 403 979 424 1001 l 500 1001 b 586 915 567 1001 586 979 l 586 900 b 500 814 586 836 567 814 l 490 814 m 365 -321 b 93 -192 226 -321 142 -274 b 114 -112 71 -154 79 -129 l 192 -74 b 263 -94 228 -56 243 -61 b 361 -144 281 -129 318 -144 b 454 -32 426 -144 454 -110 l 454 31 b 346 21 426 25 390 21 b 72 306 158 21 72 126 l 72 672 b 118 722 72 710 83 722 l 226 722 b 274 672 261 722 274 710 l 274 313 b 372 204 274 238 300 204 b 454 214 407 204 433 208 l 454 672 b 500 722 454 710 465 722 l 608 722 b 656 672 643 722 656 710 l 656 -14 b 365 -321 656 -194 575 -321 "},"Ā":{"ha":885,"x_min":0,"x_max":0,"o":"m 281 1085 b 232 1133 243 1085 232 1094 l 232 1176 b 281 1224 232 1214 247 1224 l 603 1224 b 651 1176 642 1224 651 1214 l 651 1133 b 603 1085 651 1094 642 1085 l 281 1085 m 53 0 b 18 54 14 0 6 18 l 319 940 b 383 986 332 978 347 986 l 501 986 b 565 943 536 986 553 978 l 867 54 b 831 0 879 18 868 0 l 721 0 b 631 50 660 0 642 11 l 594 185 l 282 185 l 244 50 b 157 0 233 11 215 0 l 53 0 m 539 365 l 481 586 b 443 778 461 661 447 739 l 433 778 b 397 588 429 738 418 660 l 339 365 "},"ā":{"ha":686,"x_min":0,"x_max":0,"o":"m 175 842 b 126 889 138 842 126 851 l 126 933 b 175 981 126 971 142 981 l 497 981 b 546 933 536 981 546 971 l 546 889 b 497 842 546 851 536 842 l 175 842 m 333 -21 b 44 208 128 -21 44 49 b 336 433 44 369 128 433 b 419 429 360 433 404 431 l 419 475 b 333 571 419 549 396 571 b 236 517 286 571 256 553 b 169 494 218 486 203 478 l 101 524 b 75 596 68 539 57 557 b 336 743 119 688 201 743 b 619 464 550 743 619 635 l 619 96 b 574 15 619 47 610 32 b 333 -21 526 -7 443 -21 m 325 139 b 413 144 363 139 399 142 b 419 156 418 146 419 149 l 419 278 b 328 281 394 279 353 281 b 243 208 269 281 243 258 b 325 139 243 161 268 139 "},"Ă":{"ha":885,"x_min":0,"x_max":0,"o":"m 442 1053 b 221 1193 336 1053 253 1106 b 244 1240 213 1218 218 1229 l 313 1267 b 363 1250 340 1275 353 1272 b 442 1193 376 1215 406 1193 b 521 1250 478 1193 507 1215 b 564 1268 532 1272 542 1275 l 643 1240 b 665 1193 668 1229 674 1218 b 442 1053 632 1106 550 1053 m 53 0 b 18 54 14 0 6 18 l 319 940 b 383 986 332 978 347 986 l 501 986 b 565 943 536 986 553 978 l 867 54 b 831 0 879 18 868 0 l 721 0 b 631 50 660 0 642 11 l 594 185 l 282 185 l 244 50 b 157 0 233 11 215 0 l 53 0 m 539 365 l 481 586 b 443 778 461 661 447 739 l 433 778 b 397 588 429 738 418 660 l 339 365 "},"ă":{"ha":686,"x_min":0,"x_max":0,"o":"m 336 808 b 115 949 231 808 147 861 b 139 996 107 974 113 985 l 207 1022 b 257 1006 235 1031 247 1028 b 336 950 271 969 300 950 b 415 1006 372 950 401 969 b 458 1024 426 1028 436 1031 l 538 996 b 560 949 563 985 568 974 b 336 808 526 861 444 808 m 333 -21 b 44 208 128 -21 44 49 b 336 433 44 369 128 433 b 419 429 360 433 404 431 l 419 475 b 333 571 419 549 396 571 b 236 517 286 571 256 553 b 169 494 218 486 203 478 l 101 524 b 75 596 68 539 57 557 b 336 743 119 688 201 743 b 619 464 550 743 619 635 l 619 96 b 574 15 619 47 610 32 b 333 -21 526 -7 443 -21 m 325 139 b 413 144 363 139 399 142 b 419 156 418 146 419 149 l 419 278 b 328 281 394 279 353 281 b 243 208 269 281 243 258 b 325 139 243 161 268 139 "},"Ą":{"ha":885,"x_min":0,"x_max":0,"o":"m 739 -340 b 606 -251 675 -340 617 -321 b 710 0 592 -179 629 -83 b 631 50 658 1 640 14 l 594 185 l 282 185 l 244 50 b 157 0 233 11 215 0 l 53 0 b 18 54 14 0 6 18 l 319 940 b 383 986 332 978 347 986 l 501 986 b 565 943 536 986 553 978 l 867 54 b 864 10 874 33 872 19 b 774 -175 786 -83 768 -147 b 801 -200 776 -190 788 -200 b 825 -193 808 -200 817 -199 b 857 -201 839 -183 851 -187 l 879 -256 b 878 -290 888 -272 886 -282 b 739 -340 842 -324 789 -340 m 539 365 l 481 586 b 443 778 461 661 447 739 l 433 778 b 397 588 429 738 418 660 l 339 365 "},"ą":{"ha":686,"x_min":0,"x_max":0,"o":"m 482 -340 b 347 -251 417 -340 360 -321 b 447 -14 336 -181 372 -96 b 333 -21 413 -18 375 -21 b 44 208 129 -21 44 46 b 339 433 44 368 129 433 b 419 429 363 433 404 431 l 419 475 b 333 571 419 549 396 571 b 236 517 286 571 256 553 b 169 494 218 485 206 478 l 101 524 b 75 596 68 539 57 557 b 336 743 119 688 201 743 b 619 464 550 743 619 635 l 619 96 b 606 36 619 65 615 49 b 515 -175 531 -62 508 -143 b 544 -200 518 -190 531 -200 b 568 -193 551 -200 560 -199 b 599 -201 581 -183 593 -187 l 622 -256 b 619 -290 629 -272 629 -282 b 482 -340 585 -324 531 -340 m 325 139 b 413 144 363 139 399 142 b 419 156 418 146 419 149 l 419 276 b 328 281 400 278 353 281 b 243 208 258 281 243 251 b 325 139 243 168 257 139 "},"Ć":{"ha":849,"x_min":0,"x_max":0,"o":"m 368 1057 b 306 1061 338 1046 319 1042 l 281 1093 b 283 1146 260 1119 258 1132 l 479 1260 b 571 1257 511 1278 544 1289 l 618 1200 b 611 1144 642 1172 643 1157 l 368 1057 m 444 -21 b 67 350 203 -21 67 121 l 67 636 b 444 1007 67 865 203 1007 b 804 775 635 1007 751 924 b 771 704 818 736 807 715 l 668 672 b 601 708 629 660 615 667 b 446 807 579 776 528 807 b 283 638 335 807 283 751 l 283 349 b 444 179 283 236 333 181 b 599 279 524 178 575 211 b 665 317 613 321 628 329 l 772 282 b 804 211 808 271 817 250 b 444 -21 754 63 635 -21 "},"ć":{"ha":679,"x_min":0,"x_max":0,"o":"m 276 814 b 213 817 244 803 226 799 l 188 849 b 190 901 167 875 165 888 l 386 1017 b 478 1014 418 1036 451 1046 l 525 958 b 518 903 549 929 550 915 l 276 814 m 346 -21 b 56 265 144 -21 56 85 l 56 456 b 360 743 56 635 151 743 b 633 560 511 743 601 663 b 601 489 646 519 636 500 l 519 463 b 451 500 481 451 465 460 b 351 568 435 544 406 568 b 257 461 286 568 257 531 l 257 261 b 349 154 257 192 285 154 b 447 226 403 154 431 181 b 514 261 461 265 476 272 l 604 235 b 635 161 639 224 650 203 b 346 -21 592 47 501 -21 "},"Ĉ":{"ha":849,"x_min":0,"x_max":0,"o":"m 238 1051 b 214 1093 194 1051 193 1072 l 346 1226 b 443 1268 383 1265 394 1268 l 467 1268 b 557 1226 507 1268 518 1267 l 689 1093 b 667 1051 710 1072 708 1051 l 586 1051 b 504 1079 543 1051 526 1054 l 450 1142 l 390 1081 b 311 1051 365 1053 354 1051 l 238 1051 m 444 -21 b 67 350 203 -21 67 121 l 67 636 b 444 1007 67 865 203 1007 b 804 775 635 1007 751 924 b 771 704 818 736 807 715 l 668 672 b 601 708 629 660 615 667 b 446 807 579 776 528 807 b 283 638 335 807 283 751 l 283 349 b 444 179 283 236 333 181 b 599 279 524 178 575 211 b 665 317 613 321 628 329 l 772 282 b 804 211 808 271 817 250 b 444 -21 754 63 635 -21 "},"ĉ":{"ha":679,"x_min":0,"x_max":0,"o":"m 146 808 b 122 850 103 808 103 829 l 254 983 b 351 1025 292 1022 301 1025 l 374 1025 b 465 983 414 1025 425 1024 l 596 850 b 574 808 617 829 615 808 l 493 808 b 411 836 450 808 433 811 l 357 899 l 297 838 b 218 808 272 810 261 808 l 146 808 m 346 -21 b 56 265 144 -21 56 85 l 56 456 b 360 743 56 635 151 743 b 633 560 511 743 601 663 b 601 489 646 519 636 500 l 519 463 b 451 500 481 451 465 460 b 351 568 435 544 406 568 b 257 461 286 568 257 531 l 257 261 b 349 154 257 192 285 154 b 447 226 403 154 431 181 b 514 261 461 265 476 272 l 604 235 b 635 161 639 224 650 203 b 346 -21 592 47 501 -21 "},"Ċ":{"ha":849,"x_min":0,"x_max":0,"o":"m 444 1061 b 356 1151 376 1061 356 1082 l 356 1163 b 444 1251 356 1232 376 1251 l 453 1251 b 543 1163 522 1251 543 1232 l 543 1151 b 453 1061 543 1082 522 1061 l 444 1061 m 444 -21 b 67 350 203 -21 67 121 l 67 636 b 444 1007 67 865 203 1007 b 804 775 635 1007 751 924 b 771 704 818 736 807 715 l 668 672 b 601 708 629 660 615 667 b 446 807 579 776 528 807 b 283 638 335 807 283 751 l 283 349 b 444 179 283 236 333 181 b 599 279 524 178 575 211 b 665 317 613 321 628 329 l 772 282 b 804 211 808 271 817 250 b 444 -21 754 63 635 -21 "},"ċ":{"ha":679,"x_min":0,"x_max":0,"o":"m 322 813 b 247 900 264 813 247 829 l 247 922 b 322 1011 247 990 265 1011 l 389 1011 b 464 922 447 1011 464 990 l 464 900 b 389 813 464 829 447 813 l 322 813 m 346 -21 b 56 265 144 -21 56 85 l 56 456 b 360 743 56 635 151 743 b 633 560 511 743 601 663 b 601 489 646 519 636 500 l 519 463 b 451 500 481 451 465 460 b 351 568 435 544 406 568 b 257 461 286 568 257 531 l 257 261 b 349 154 257 192 285 154 b 447 226 403 154 431 181 b 514 261 461 265 476 272 l 604 235 b 635 161 639 224 650 203 b 346 -21 592 47 501 -21 "},"Č":{"ha":849,"x_min":0,"x_max":0,"o":"m 438 1050 b 342 1092 390 1050 381 1053 l 210 1225 b 232 1267 190 1246 190 1267 l 308 1267 b 388 1238 351 1267 363 1264 l 446 1176 l 501 1238 b 582 1267 524 1264 540 1267 l 661 1267 b 683 1225 703 1267 703 1246 l 553 1092 b 461 1050 513 1051 501 1050 l 438 1050 m 444 -21 b 67 350 203 -21 67 121 l 67 636 b 444 1007 67 865 203 1007 b 804 775 635 1007 751 924 b 771 704 818 736 807 715 l 668 672 b 601 708 629 660 615 667 b 446 807 579 776 528 807 b 283 638 335 807 283 751 l 283 349 b 444 179 283 236 333 181 b 599 279 524 178 575 211 b 665 317 613 321 628 329 l 772 282 b 804 211 808 271 817 250 b 444 -21 754 63 635 -21 "},"č":{"ha":679,"x_min":0,"x_max":0,"o":"m 344 806 b 249 849 297 806 288 810 l 117 982 b 139 1024 97 1003 97 1024 l 215 1024 b 294 994 258 1024 269 1021 l 353 933 l 408 994 b 489 1024 431 1019 447 1024 l 568 1024 b 590 982 610 1024 610 1003 l 460 849 b 368 806 419 808 408 806 l 344 806 m 346 -21 b 56 265 144 -21 56 85 l 56 456 b 360 743 56 635 151 743 b 633 560 511 743 601 663 b 601 489 646 519 636 500 l 519 463 b 451 500 481 451 465 460 b 351 568 435 544 406 568 b 257 461 286 568 257 531 l 257 261 b 349 154 257 192 285 154 b 447 226 403 154 431 181 b 514 261 461 265 476 272 l 604 235 b 635 161 639 224 650 203 b 346 -21 592 47 501 -21 "},"Ď":{"ha":892,"x_min":0,"x_max":0,"o":"m 408 1050 b 313 1092 361 1050 351 1053 l 181 1225 b 203 1267 161 1246 161 1267 l 279 1267 b 358 1238 322 1267 333 1264 l 417 1176 l 472 1238 b 553 1267 494 1264 511 1267 l 632 1267 b 654 1225 674 1267 674 1246 l 524 1092 b 432 1050 483 1051 472 1050 l 408 1050 m 146 0 b 93 56 107 0 93 14 l 93 931 b 146 986 93 972 107 986 l 446 986 b 826 615 690 986 826 844 l 826 371 b 446 0 826 142 690 0 l 146 0 m 447 200 b 608 371 558 200 608 258 l 608 615 b 447 786 608 728 558 786 l 310 786 l 310 200 "},"ď":{"ha":838,"x_min":0,"x_max":0,"o":"m 360 -21 b 57 279 154 -21 57 85 l 57 458 b 336 743 57 639 144 743 b 444 728 372 743 415 736 l 444 978 b 492 1028 444 1015 456 1028 l 600 1028 b 646 978 635 1028 646 1015 l 646 103 b 600 25 646 58 640 46 b 360 -21 554 3 467 -21 m 749 707 b 717 742 719 707 714 714 l 743 975 b 803 1028 749 1017 761 1028 l 879 1028 b 924 975 924 1028 935 1011 l 854 751 b 801 707 844 719 836 707 l 749 707 m 365 161 b 442 172 390 161 422 164 b 444 179 444 174 444 178 l 444 547 b 360 561 424 557 389 561 b 258 454 289 561 258 525 l 258 282 b 365 161 258 200 288 161 "},"Đ":{"ha":897,"x_min":0,"x_max":0,"o":"m 150 0 b 99 56 111 0 99 14 l 99 429 l 51 429 b 19 464 26 429 19 436 l 19 544 b 51 579 19 571 29 579 l 99 579 l 99 931 b 150 986 99 972 111 986 l 451 986 b 831 615 696 986 831 844 l 831 371 b 451 0 831 142 696 0 l 150 0 m 453 200 b 614 371 564 200 614 258 l 614 615 b 453 786 614 728 564 786 l 315 786 l 315 579 l 438 579 b 469 544 463 579 469 571 l 469 464 b 438 429 469 436 463 429 l 315 429 l 315 200 "},"đ":{"ha":703,"x_min":0,"x_max":0,"o":"m 360 -21 b 57 279 154 -21 57 85 l 57 458 b 336 743 57 639 144 743 b 444 728 372 743 415 736 l 444 817 l 306 817 b 274 851 281 817 274 824 l 274 901 b 306 938 274 929 283 938 l 444 938 l 444 978 b 492 1028 444 1015 456 1028 l 599 1028 b 646 978 635 1028 646 1015 l 646 938 l 692 938 b 724 901 717 938 724 929 l 724 851 b 692 817 724 824 717 817 l 646 817 l 646 103 b 600 25 646 58 640 46 b 360 -21 554 3 467 -21 m 365 161 b 442 172 390 161 422 164 b 444 179 444 174 444 178 l 444 547 b 360 561 424 557 389 561 b 258 454 289 561 258 525 l 258 282 b 365 161 258 200 288 161 "},"Ē":{"ha":768,"x_min":0,"x_max":0,"o":"m 244 1085 b 196 1133 207 1085 196 1094 l 196 1176 b 244 1224 196 1214 211 1224 l 567 1224 b 615 1176 606 1224 615 1214 l 615 1133 b 567 1085 615 1094 606 1085 l 244 1085 m 146 0 b 93 56 107 0 93 14 l 93 931 b 146 986 93 972 107 986 l 657 986 b 710 931 697 986 710 972 l 710 843 b 657 786 710 800 697 786 l 310 786 l 310 599 l 593 599 b 644 543 632 599 644 585 l 644 456 b 593 399 644 414 632 399 l 310 399 l 310 200 l 668 200 b 721 143 708 200 721 186 l 721 56 b 668 0 721 14 708 0 l 146 0 "},"ē":{"ha":700,"x_min":0,"x_max":0,"o":"m 194 842 b 146 889 157 842 146 851 l 146 933 b 194 981 146 971 161 981 l 517 981 b 565 933 556 981 565 971 l 565 889 b 517 842 565 851 556 842 l 194 842 m 356 -21 b 54 285 140 -21 54 110 l 54 438 b 356 743 54 636 163 743 b 654 453 563 743 654 611 l 654 365 b 588 297 654 324 638 297 l 254 297 l 254 261 b 358 147 254 183 290 147 b 464 203 414 147 444 165 b 532 222 482 236 496 242 l 601 188 b 624 107 636 169 644 144 b 356 -21 579 26 490 -21 m 456 446 l 456 468 b 356 579 456 542 425 579 b 254 468 286 579 254 542 l 254 446 "},"Ĕ":{"ha":768,"x_min":0,"x_max":0,"o":"m 406 1053 b 185 1193 300 1053 217 1106 b 208 1240 176 1218 182 1229 l 276 1267 b 326 1250 304 1275 317 1272 b 406 1193 340 1215 369 1193 b 485 1250 442 1193 471 1215 b 528 1268 496 1272 506 1275 l 607 1240 b 629 1193 632 1229 638 1218 b 406 1053 596 1106 514 1053 m 146 0 b 93 56 107 0 93 14 l 93 931 b 146 986 93 972 107 986 l 657 986 b 710 931 697 986 710 972 l 710 843 b 657 786 710 800 697 786 l 310 786 l 310 599 l 593 599 b 644 543 632 599 644 585 l 644 456 b 593 399 644 414 632 399 l 310 399 l 310 200 l 668 200 b 721 143 708 200 721 186 l 721 56 b 668 0 721 14 708 0 l 146 0 "},"ĕ":{"ha":700,"x_min":0,"x_max":0,"o":"m 356 808 b 135 949 250 808 167 861 b 158 996 126 974 132 985 l 226 1022 b 276 1006 254 1031 267 1028 b 356 950 290 969 319 950 b 435 1006 392 950 421 969 b 478 1024 446 1028 456 1031 l 557 996 b 579 949 582 985 588 974 b 356 808 546 861 464 808 m 356 -21 b 54 285 140 -21 54 110 l 54 438 b 356 743 54 636 163 743 b 654 453 563 743 654 611 l 654 365 b 588 297 654 324 638 297 l 254 297 l 254 261 b 358 147 254 183 290 147 b 464 203 414 147 444 165 b 532 222 482 236 496 242 l 601 188 b 624 107 636 169 644 144 b 356 -21 579 26 490 -21 m 456 446 l 456 468 b 356 579 456 542 425 579 b 254 468 286 579 254 542 l 254 446 "},"Ė":{"ha":768,"x_min":0,"x_max":0,"o":"m 401 1061 b 313 1151 333 1061 313 1082 l 313 1163 b 401 1251 313 1232 333 1251 l 410 1251 b 500 1163 479 1251 500 1232 l 500 1151 b 410 1061 500 1082 479 1061 l 401 1061 m 146 0 b 93 56 107 0 93 14 l 93 931 b 146 986 93 972 107 986 l 657 986 b 710 931 697 986 710 972 l 710 843 b 657 786 710 800 697 786 l 310 786 l 310 599 l 593 599 b 644 543 632 599 644 585 l 644 456 b 593 399 644 414 632 399 l 310 399 l 310 200 l 668 200 b 721 143 708 200 721 186 l 721 56 b 668 0 721 14 708 0 l 146 0 "},"ė":{"ha":700,"x_min":0,"x_max":0,"o":"m 321 813 b 246 900 263 813 246 829 l 246 922 b 321 1011 246 990 264 1011 l 388 1011 b 463 922 446 1011 463 990 l 463 900 b 388 813 463 829 446 813 l 321 813 m 356 -21 b 54 285 140 -21 54 110 l 54 438 b 356 743 54 636 163 743 b 654 453 563 743 654 611 l 654 365 b 588 297 654 324 638 297 l 254 297 l 254 261 b 358 147 254 183 290 147 b 464 203 414 147 444 165 b 532 222 482 236 496 242 l 601 188 b 624 107 636 169 644 144 b 356 -21 579 26 490 -21 m 456 446 l 456 468 b 356 579 456 542 425 579 b 254 468 286 579 254 542 l 254 446 "},"Ę":{"ha":768,"x_min":0,"x_max":0,"o":"m 582 -340 b 449 -250 517 -340 461 -319 b 564 0 435 -178 479 -85 l 146 0 b 93 56 107 0 93 14 l 93 931 b 146 986 93 972 107 986 l 657 986 b 710 931 697 986 710 972 l 710 843 b 657 786 710 800 697 786 l 310 786 l 310 599 l 593 599 b 644 543 632 599 644 585 l 644 456 b 593 399 644 414 632 399 l 310 399 l 310 200 l 668 200 b 721 143 708 200 721 186 l 721 56 b 710 11 721 35 718 21 b 617 -175 635 -78 610 -142 b 644 -200 619 -190 631 -200 b 668 -193 651 -200 660 -199 b 699 -201 681 -183 693 -187 l 722 -256 b 719 -290 729 -272 729 -282 b 582 -340 685 -324 632 -340 "},"ę":{"ha":700,"x_min":0,"x_max":0,"o":"m 460 -340 b 325 -251 396 -340 338 -321 b 426 -15 314 -181 350 -96 b 356 -21 404 -18 381 -21 b 54 285 140 -21 54 110 l 54 438 b 356 743 54 636 163 743 b 654 453 563 743 654 611 l 654 365 b 588 297 654 324 638 297 l 254 297 l 254 261 b 358 147 254 183 290 147 b 464 203 414 147 444 165 b 532 222 482 236 496 242 l 601 188 b 624 107 636 169 644 144 b 604 79 618 97 613 88 b 493 -175 506 -64 488 -147 b 522 -200 497 -192 508 -200 b 546 -193 529 -200 538 -199 b 576 -201 558 -183 571 -187 l 600 -256 b 597 -290 607 -272 607 -282 b 460 -340 563 -324 510 -340 m 456 446 l 456 468 b 356 579 456 542 425 579 b 254 468 286 579 254 542 l 254 446 "},"Ě":{"ha":768,"x_min":0,"x_max":0,"o":"m 394 1050 b 299 1092 347 1050 338 1053 l 167 1225 b 189 1267 147 1246 147 1267 l 265 1267 b 344 1238 308 1267 319 1264 l 403 1176 l 458 1238 b 539 1267 481 1264 497 1267 l 618 1267 b 640 1225 660 1267 660 1246 l 510 1092 b 418 1050 469 1051 458 1050 l 394 1050 m 146 0 b 93 56 107 0 93 14 l 93 931 b 146 986 93 972 107 986 l 657 986 b 710 931 697 986 710 972 l 710 843 b 657 786 710 800 697 786 l 310 786 l 310 599 l 593 599 b 644 543 632 599 644 585 l 644 456 b 593 399 644 414 632 399 l 310 399 l 310 200 l 668 200 b 721 143 708 200 721 186 l 721 56 b 668 0 721 14 708 0 l 146 0 "},"ě":{"ha":700,"x_min":0,"x_max":0,"o":"m 343 806 b 247 849 296 806 286 810 l 115 982 b 138 1024 96 1003 96 1024 l 214 1024 b 293 994 257 1024 268 1021 l 351 933 l 407 994 b 488 1024 429 1019 446 1024 l 567 1024 b 589 982 608 1024 608 1003 l 458 849 b 367 806 418 808 407 806 l 343 806 m 356 -21 b 54 285 140 -21 54 110 l 54 438 b 356 743 54 636 163 743 b 654 453 563 743 654 611 l 654 365 b 588 297 654 324 638 297 l 254 297 l 254 261 b 358 147 254 183 290 147 b 464 203 414 147 444 165 b 532 222 482 236 496 242 l 601 188 b 624 107 636 169 644 144 b 356 -21 579 26 490 -21 m 456 446 l 456 468 b 356 579 456 542 425 579 b 254 468 286 579 254 542 l 254 446 "},"Ĝ":{"ha":881,"x_min":0,"x_max":0,"o":"m 235 1065 b 211 1107 192 1065 190 1086 l 343 1240 b 440 1282 381 1279 392 1282 l 464 1282 b 554 1240 504 1282 515 1281 l 686 1107 b 664 1065 707 1086 706 1065 l 583 1065 b 501 1093 540 1065 524 1068 l 447 1156 l 388 1094 b 308 1065 363 1067 351 1065 l 235 1065 m 446 -21 b 67 350 203 -21 67 121 l 67 636 b 446 1007 67 865 203 1007 b 803 774 636 1007 754 924 b 769 704 815 735 807 717 l 665 669 b 599 706 628 657 613 665 b 447 807 575 775 525 807 b 283 638 333 807 283 750 l 283 349 b 447 179 283 236 335 179 b 614 300 558 179 614 221 l 614 367 l 461 367 b 410 422 422 367 410 381 l 410 504 b 461 561 410 547 422 561 l 771 561 b 824 504 811 561 824 547 l 824 308 b 446 -21 824 121 688 -21 "},"ĝ":{"ha":721,"x_min":0,"x_max":0,"o":"m 157 808 b 133 850 114 808 114 829 l 265 983 b 363 1025 303 1022 313 1025 l 385 1025 b 476 983 425 1025 436 1024 l 607 850 b 585 808 628 829 626 808 l 504 808 b 422 836 461 808 444 811 l 368 899 l 308 838 b 229 808 283 810 272 808 l 157 808 m 354 -319 b 82 -190 215 -319 133 -272 b 101 -112 60 -154 68 -131 l 181 -71 b 251 -90 215 -51 233 -60 b 350 -143 272 -126 304 -143 b 443 -33 415 -143 443 -111 l 443 35 b 335 19 414 26 369 19 b 56 299 143 19 56 119 l 56 446 b 357 743 56 639 153 743 b 596 701 464 743 553 724 b 644 617 638 681 644 661 l 644 -22 b 354 -319 644 -203 564 -319 m 357 201 b 443 210 399 201 424 204 l 443 543 b 438 551 443 547 442 550 b 364 561 422 557 397 561 b 257 443 286 561 257 533 l 257 308 b 357 201 257 231 283 201 "},"Ğ":{"ha":881,"x_min":0,"x_max":0,"o":"m 446 1067 b 225 1207 340 1067 257 1119 b 249 1254 217 1232 222 1243 l 317 1281 b 367 1264 344 1289 357 1286 b 446 1207 381 1229 410 1207 b 525 1264 482 1207 511 1229 b 568 1282 536 1286 546 1289 l 647 1254 b 669 1207 672 1243 678 1232 b 446 1067 636 1119 554 1067 m 446 -21 b 67 350 203 -21 67 121 l 67 636 b 446 1007 67 865 203 1007 b 803 774 636 1007 754 924 b 769 704 815 735 807 717 l 665 669 b 599 706 628 657 613 665 b 447 807 575 775 525 807 b 283 638 333 807 283 750 l 283 349 b 447 179 283 236 335 179 b 614 300 558 179 614 221 l 614 367 l 461 367 b 410 422 422 367 410 381 l 410 504 b 461 561 410 547 422 561 l 771 561 b 824 504 811 561 824 547 l 824 308 b 446 -21 824 121 688 -21 "},"ğ":{"ha":721,"x_min":0,"x_max":0,"o":"m 367 808 b 146 949 261 808 178 861 b 169 996 138 974 143 985 l 238 1022 b 288 1006 265 1031 278 1028 b 367 950 301 969 331 950 b 446 1006 403 950 432 969 b 489 1024 457 1028 467 1031 l 568 996 b 590 949 593 985 599 974 b 367 808 557 861 475 808 m 354 -319 b 82 -190 215 -319 133 -272 b 101 -112 60 -154 68 -131 l 181 -71 b 251 -90 215 -51 233 -60 b 350 -143 272 -126 304 -143 b 443 -33 415 -143 443 -111 l 443 35 b 335 19 414 26 369 19 b 56 299 143 19 56 119 l 56 446 b 357 743 56 639 153 743 b 596 701 464 743 553 724 b 644 617 638 681 644 661 l 644 -22 b 354 -319 644 -203 564 -319 m 357 201 b 443 210 399 201 424 204 l 443 543 b 438 551 443 547 442 550 b 364 561 422 557 397 561 b 257 443 286 561 257 533 l 257 308 b 357 201 257 231 283 201 "},"Ġ":{"ha":881,"x_min":0,"x_max":0,"o":"m 442 1075 b 353 1165 374 1075 353 1096 l 353 1176 b 442 1265 353 1246 374 1265 l 450 1265 b 540 1176 519 1265 540 1246 l 540 1165 b 450 1075 540 1096 519 1075 l 442 1075 m 446 -21 b 67 350 203 -21 67 121 l 67 636 b 446 1007 67 865 203 1007 b 803 774 636 1007 754 924 b 769 704 815 735 807 717 l 665 669 b 599 706 628 657 613 665 b 447 807 575 775 525 807 b 283 638 333 807 283 750 l 283 349 b 447 179 283 236 335 179 b 614 300 558 179 614 221 l 614 367 l 461 367 b 410 422 422 367 410 381 l 410 504 b 461 561 410 547 422 561 l 771 561 b 824 504 811 561 824 547 l 824 308 b 446 -21 824 121 688 -21 "},"ġ":{"ha":721,"x_min":0,"x_max":0,"o":"m 333 813 b 258 900 275 813 258 829 l 258 922 b 333 1011 258 990 276 1011 l 400 1011 b 475 922 458 1011 475 990 l 475 900 b 400 813 475 829 458 813 l 333 813 m 354 -319 b 82 -190 215 -319 133 -272 b 101 -112 60 -154 68 -131 l 181 -71 b 251 -90 215 -51 233 -60 b 350 -143 272 -126 304 -143 b 443 -33 415 -143 443 -111 l 443 35 b 335 19 414 26 369 19 b 56 299 143 19 56 119 l 56 446 b 357 743 56 639 153 743 b 596 701 464 743 553 724 b 644 617 638 681 644 661 l 644 -22 b 354 -319 644 -203 564 -319 m 357 201 b 443 210 399 201 424 204 l 443 543 b 438 551 443 547 442 550 b 364 561 422 557 397 561 b 257 443 286 561 257 533 l 257 308 b 357 201 257 231 283 201 "},"Ģ":{"ha":881,"x_min":0,"x_max":0,"o":"m 446 -21 b 67 350 203 -21 67 121 l 67 636 b 446 1007 67 865 203 1007 b 803 774 636 1007 754 924 b 769 704 815 735 807 717 l 665 669 b 599 706 628 657 613 665 b 447 807 575 775 525 807 b 283 638 333 807 283 750 l 283 349 b 447 179 283 236 335 179 b 614 300 558 179 614 221 l 614 367 l 461 367 b 410 422 422 367 410 381 l 410 504 b 461 561 410 547 422 561 l 771 561 b 824 504 811 561 824 547 l 824 308 b 446 -21 824 121 688 -21 m 356 -361 b 322 -325 326 -361 319 -353 l 343 -129 b 404 -76 347 -87 363 -76 l 497 -76 b 544 -129 544 -76 557 -94 l 479 -315 b 421 -361 468 -349 456 -361 l 356 -361 "},"ģ":{"ha":721,"x_min":0,"x_max":0,"o":"m 325 801 b 282 861 278 801 267 822 l 332 994 b 396 1040 346 1031 358 1040 l 451 1040 b 486 1003 483 1040 489 1032 l 469 861 b 403 801 463 815 449 801 l 325 801 m 354 -319 b 82 -190 215 -319 133 -272 b 101 -112 60 -154 68 -131 l 181 -71 b 251 -90 215 -51 233 -60 b 350 -143 272 -126 304 -143 b 443 -33 415 -143 443 -111 l 443 35 b 335 19 414 26 369 19 b 56 299 143 19 56 119 l 56 446 b 357 743 56 639 153 743 b 596 701 464 743 553 724 b 644 617 638 681 644 661 l 644 -22 b 354 -319 644 -203 564 -319 m 357 201 b 443 210 399 201 424 204 l 443 543 b 438 551 443 547 442 550 b 364 561 422 557 397 561 b 257 443 286 561 257 533 l 257 308 b 357 201 257 231 283 201 "},"Ĥ":{"ha":914,"x_min":0,"x_max":0,"o":"m 244 1051 b 221 1093 201 1051 200 1072 l 353 1226 b 450 1268 390 1265 401 1268 l 474 1268 b 564 1226 514 1268 525 1267 l 696 1093 b 674 1051 717 1072 715 1051 l 593 1051 b 511 1079 550 1051 533 1054 l 457 1142 l 397 1081 b 318 1051 372 1053 361 1051 l 244 1051 m 146 0 b 93 56 107 0 93 14 l 93 929 b 146 986 93 972 107 986 l 258 986 b 310 929 297 986 310 972 l 310 599 l 604 599 l 604 929 b 657 986 604 972 617 986 l 768 986 b 821 929 807 986 821 972 l 821 56 b 768 0 821 14 807 0 l 657 0 b 604 56 617 0 604 14 l 604 400 l 310 400 l 310 56 b 258 0 310 14 297 0 l 146 0 "},"ĥ":{"ha":733,"x_min":0,"x_max":0,"o":"m -26 1074 b -50 1115 -69 1074 -71 1094 l 82 1249 b 179 1290 119 1288 131 1290 l 203 1290 b 293 1249 243 1290 254 1289 l 425 1115 b 403 1074 446 1094 444 1074 l 322 1074 b 240 1101 279 1074 263 1076 l 186 1164 l 126 1103 b 47 1074 101 1075 90 1074 l -26 1074 m 125 0 b 79 50 90 0 79 13 l 79 978 b 125 1028 79 1015 90 1028 l 233 1028 b 279 978 268 1028 279 1015 l 281 733 b 390 743 290 733 332 743 b 663 465 578 743 663 644 l 663 50 b 615 0 663 13 650 0 l 508 0 b 461 50 472 0 461 13 l 461 451 b 363 560 461 528 432 560 b 281 551 315 560 286 551 l 281 50 b 233 0 281 13 269 0 l 125 0 "},"Ħ":{"ha":917,"x_min":0,"x_max":0,"o":"m 147 0 b 94 56 107 0 94 14 l 94 735 l 50 735 b 18 769 25 735 18 742 l 18 821 b 50 857 18 849 28 857 l 94 857 l 94 929 b 147 986 94 972 107 986 l 258 986 b 311 929 297 986 311 972 l 311 857 l 604 857 l 604 929 b 657 986 604 972 617 986 l 768 986 b 821 929 808 986 821 972 l 821 857 l 865 857 b 899 821 892 857 899 849 l 899 769 b 865 735 899 742 892 735 l 821 735 l 821 56 b 768 0 821 14 808 0 l 657 0 b 604 56 617 0 604 14 l 604 400 l 311 400 l 311 56 b 258 0 311 14 297 0 l 147 0 m 604 599 l 604 735 l 311 735 l 311 599 "},"ħ":{"ha":733,"x_min":0,"x_max":0,"o":"m 125 0 b 79 50 90 0 79 13 l 79 822 l 42 822 b 8 858 15 822 8 829 l 8 904 b 42 939 8 931 18 939 l 79 939 l 79 978 b 125 1028 79 1015 90 1028 l 233 1028 b 279 978 268 1028 279 1015 l 279 939 l 429 939 b 461 904 454 939 461 931 l 461 858 b 429 822 461 829 454 822 l 281 822 l 281 733 b 390 743 290 733 332 743 b 663 465 578 743 663 644 l 663 50 b 615 0 663 13 650 0 l 508 0 b 461 50 472 0 461 13 l 461 451 b 363 560 461 528 432 560 b 281 551 315 560 286 551 l 281 50 b 233 0 281 13 269 0 l 125 0 "},"Ĩ":{"ha":404,"x_min":0,"x_max":0,"o":"m 8 1060 b -22 1090 -14 1060 -22 1069 b 99 1253 -22 1215 21 1253 b 275 1183 196 1253 225 1183 b 299 1224 290 1183 299 1193 b 326 1253 299 1244 304 1253 l 383 1253 b 415 1222 408 1253 415 1243 b 292 1060 415 1099 375 1060 b 119 1131 203 1060 171 1131 b 96 1090 104 1131 96 1119 b 67 1060 96 1069 88 1060 l 8 1060 m 142 0 b 93 51 113 0 93 10 l 93 936 b 142 986 93 978 113 986 l 264 986 b 310 936 293 986 310 978 l 310 51 b 261 0 310 10 289 0 l 142 0 "},"ĩ":{"ha":357,"x_min":0,"x_max":0,"o":"m 14 828 b -12 860 -6 828 -12 839 b 92 1025 -12 989 29 1025 b 229 956 171 1025 189 956 b 254 994 242 956 254 964 b 276 1025 254 1015 258 1025 l 328 1025 b 353 994 347 1025 353 1015 b 247 828 353 865 317 828 b 114 893 176 828 156 893 b 90 860 103 893 90 890 b 67 828 90 839 83 828 l 14 828 m 128 0 b 78 50 90 0 78 13 l 78 672 b 128 722 78 710 90 722 l 228 722 b 279 672 267 722 279 710 l 279 50 b 228 0 279 13 267 0 l 128 0 "},"Ī":{"ha":404,"x_min":0,"x_max":0,"o":"m 43 1085 b -6 1133 6 1085 -6 1094 l -6 1176 b 43 1224 -6 1214 10 1224 l 365 1224 b 414 1176 404 1224 414 1214 l 414 1133 b 365 1085 414 1094 404 1085 l 43 1085 m 142 0 b 93 51 113 0 93 10 l 93 936 b 142 986 93 978 113 986 l 264 986 b 310 936 293 986 310 978 l 310 51 b 261 0 310 10 289 0 l 142 0 "},"ī":{"ha":357,"x_min":0,"x_max":0,"o":"m 79 842 b 32 889 42 842 32 851 l 32 933 b 79 981 32 971 46 981 l 276 981 b 324 933 314 981 324 971 l 324 889 b 276 842 324 851 314 842 l 79 842 m 128 0 b 78 50 90 0 78 13 l 78 672 b 128 722 78 710 90 722 l 228 722 b 279 672 267 722 279 710 l 279 50 b 228 0 279 13 267 0 l 128 0 "},"Ĭ":{"ha":404,"x_min":0,"x_max":0,"o":"m 204 1053 b -17 1193 99 1053 15 1106 b 7 1240 -25 1218 -19 1229 l 75 1267 b 125 1250 103 1275 115 1272 b 204 1193 139 1215 168 1193 b 283 1250 240 1193 269 1215 b 326 1268 294 1272 304 1275 l 406 1240 b 428 1193 431 1229 436 1218 b 204 1053 394 1106 313 1053 m 142 0 b 93 51 113 0 93 10 l 93 936 b 142 986 93 978 113 986 l 264 986 b 310 936 293 986 310 978 l 310 51 b 261 0 310 10 289 0 l 142 0 "},"ĭ":{"ha":357,"x_min":0,"x_max":0,"o":"m 178 808 b -29 949 72 808 1 861 b -7 996 -39 974 -32 985 l 61 1022 b 113 1006 90 1031 101 1028 b 178 951 126 967 144 951 b 246 1006 213 951 229 967 b 289 1024 256 1028 265 1032 l 367 996 b 389 949 392 985 397 974 b 178 808 357 861 286 808 m 128 0 b 78 50 90 0 78 13 l 78 672 b 128 722 78 710 90 722 l 228 722 b 279 672 267 722 279 710 l 279 50 b 228 0 279 13 267 0 l 128 0 "},"Į":{"ha":404,"x_min":0,"x_max":0,"o":"m 186 -340 b 51 -251 122 -340 64 -321 b 158 0 39 -178 76 -83 b 93 57 104 0 93 18 l 93 931 b 149 986 93 972 107 986 l 254 986 b 310 931 296 986 310 972 l 310 56 b 296 7 310 33 306 19 b 219 -175 226 -75 215 -147 b 249 -200 224 -190 235 -200 b 272 -193 257 -200 264 -199 b 303 -201 285 -183 297 -187 l 326 -256 b 324 -290 333 -272 333 -282 b 186 -340 289 -324 236 -340 "},"į":{"ha":357,"x_min":0,"x_max":0,"o":"m 167 815 b 69 913 93 815 69 839 l 69 928 b 167 1025 69 1001 93 1025 l 189 1025 b 288 928 264 1025 288 1001 l 288 913 b 189 815 288 839 264 815 l 167 815 m 179 -340 b 44 -251 114 -340 57 -321 b 128 0 32 -179 57 -93 b 78 51 90 0 78 14 l 78 672 b 128 722 78 710 90 722 l 229 722 b 279 672 267 722 279 710 l 279 50 b 268 11 279 32 276 19 b 213 -175 204 -90 207 -147 b 242 -200 217 -190 228 -200 b 263 -194 249 -200 254 -200 b 293 -203 275 -185 288 -187 l 313 -256 b 311 -290 319 -272 319 -282 b 179 -340 275 -324 228 -340 "},"İ":{"ha":404,"x_min":0,"x_max":0,"o":"m 199 1061 b 110 1151 131 1061 110 1082 l 110 1163 b 199 1251 110 1232 131 1251 l 207 1251 b 297 1163 276 1251 297 1232 l 297 1151 b 207 1061 297 1082 276 1061 l 199 1061 m 142 0 b 93 51 113 0 93 10 l 93 936 b 142 986 93 978 113 986 l 264 986 b 310 936 293 986 310 978 l 310 51 b 261 0 310 10 289 0 l 142 0 "},"ı":{"ha":357,"x_min":0,"x_max":0,"o":"m 128 0 b 78 50 90 0 78 13 l 78 672 b 128 722 78 710 90 722 l 228 722 b 279 672 267 722 279 710 l 279 50 b 228 0 279 13 267 0 l 128 0 "},"Ĳ":{"ha":1160,"x_min":0,"x_max":0,"o":"m 735 -19 b 417 204 567 -19 464 63 b 447 274 404 243 411 261 l 551 310 b 619 274 589 322 604 314 b 739 181 643 210 683 181 b 856 333 819 181 856 231 l 856 932 b 907 988 856 974 867 988 l 1022 988 b 1072 932 1058 988 1072 974 l 1072 335 b 735 -19 1072 110 958 -19 m 142 0 b 93 51 113 0 93 10 l 93 936 b 142 986 93 978 113 986 l 264 986 b 310 936 293 986 310 978 l 310 51 b 261 0 310 10 289 0 l 142 0 "},"ĳ":{"ha":693,"x_min":0,"x_max":0,"o":"m 144 813 b 69 900 86 813 69 829 l 69 922 b 144 1011 69 990 88 1011 l 211 1011 b 286 922 269 1011 286 990 l 286 900 b 211 813 286 829 269 813 l 144 813 m 490 813 b 414 900 432 813 414 829 l 414 922 b 490 1011 414 990 432 1011 l 556 1011 b 632 922 615 1011 632 990 l 632 900 b 556 813 632 829 615 813 l 490 813 m 128 0 b 78 50 90 0 78 13 l 78 672 b 128 722 78 710 90 722 l 228 722 b 279 672 267 722 279 710 l 279 50 b 228 0 279 13 267 0 l 128 0 m 342 -319 b 296 -268 307 -319 296 -307 l 296 -187 b 342 -135 296 -147 307 -135 b 418 -3 419 -135 418 -85 l 418 672 b 465 722 418 710 431 722 l 575 722 b 619 672 610 722 619 710 l 619 -11 b 342 -319 619 -208 572 -319 "},"Ĵ":{"ha":765,"x_min":0,"x_max":0,"o":"m 357 1051 b 333 1093 314 1051 313 1072 l 465 1226 b 563 1268 503 1265 514 1268 l 586 1268 b 676 1226 626 1268 638 1267 l 808 1093 b 786 1051 829 1072 828 1051 l 706 1051 b 624 1079 663 1051 646 1054 l 569 1142 l 510 1081 b 431 1051 485 1053 474 1051 l 357 1051 m 340 -21 b 24 203 172 -21 71 61 b 54 272 10 242 18 260 l 158 308 b 226 272 196 321 211 313 b 344 179 249 208 290 179 b 463 332 426 179 463 229 l 463 931 b 513 986 463 972 474 986 l 628 986 b 679 931 665 986 679 972 l 679 333 b 340 -21 679 108 565 -21 "},"ĵ":{"ha":349,"x_min":0,"x_max":0,"o":"m -28 807 b -50 847 -68 807 -69 826 l 78 978 b 175 1018 117 1015 126 1018 l 196 1018 b 285 978 235 1018 247 1017 l 413 847 b 389 807 432 826 431 807 l 314 807 b 233 835 271 807 254 810 l 179 896 l 122 835 b 44 807 97 810 85 807 l -28 807 m -3 -319 b -49 -268 -37 -319 -49 -307 l -49 -187 b -3 -135 -49 -147 -37 -135 b 74 -3 75 -135 74 -85 l 74 672 b 121 722 74 710 86 722 l 231 722 b 275 672 265 722 275 710 l 275 -11 b -3 -319 275 -208 228 -319 "},"Ķ":{"ha":846,"x_min":0,"x_max":0,"o":"m 146 0 b 93 56 107 0 93 14 l 93 931 b 146 986 93 972 107 986 l 258 986 b 310 931 297 986 310 972 l 310 597 l 351 597 l 364 597 l 560 939 b 651 986 583 981 596 986 l 774 986 b 803 932 810 986 819 961 l 561 547 b 660 397 601 517 628 465 l 818 58 b 786 0 832 25 826 0 l 671 0 b 583 50 613 0 601 7 l 467 317 b 365 401 439 382 425 401 l 310 401 l 310 56 b 258 0 310 14 297 0 l 146 0 m 357 -361 b 324 -325 328 -361 321 -353 l 344 -129 b 406 -76 349 -87 364 -76 l 499 -76 b 546 -129 546 -76 558 -94 l 481 -315 b 422 -361 469 -349 457 -361 l 357 -361 "},"ķ":{"ha":699,"x_min":0,"x_max":0,"o":"m 126 0 b 79 53 90 0 79 13 l 79 976 b 126 1028 79 1015 90 1028 l 233 1028 b 281 976 268 1028 281 1015 l 281 457 l 318 457 l 324 457 l 444 682 b 531 722 464 719 479 722 l 618 722 b 654 663 665 722 676 700 l 503 413 b 563 307 525 389 542 354 l 665 61 b 628 0 685 18 676 0 l 539 0 b 454 47 486 0 469 7 l 390 218 b 329 276 374 258 361 276 l 281 276 l 281 53 b 233 0 281 13 268 0 l 126 0 m 254 -361 b 221 -325 225 -361 218 -353 l 242 -129 b 303 -76 246 -87 261 -76 l 396 -76 b 443 -129 443 -76 456 -94 l 378 -315 b 319 -361 367 -349 354 -361 l 254 -361 "},"ĸ":{"ha":683,"x_min":0,"x_max":0,"o":"m 125 0 b 78 53 89 0 78 13 l 78 671 b 125 722 78 710 89 722 l 232 722 b 279 671 268 722 279 710 l 279 442 l 429 681 b 510 722 453 718 463 722 l 614 722 b 643 664 661 722 668 700 l 475 413 l 649 61 b 613 0 668 22 661 0 l 525 0 b 444 43 468 0 463 4 l 346 264 l 279 185 l 279 53 b 231 0 279 13 267 0 l 125 0 "},"Ĺ":{"ha":700,"x_min":0,"x_max":0,"o":"m 119 1057 b 57 1061 89 1046 71 1042 l 32 1093 b 35 1146 11 1119 10 1132 l 231 1260 b 322 1257 263 1278 296 1289 l 369 1200 b 363 1144 393 1172 394 1157 l 119 1057 m 144 0 b 93 56 107 0 93 14 l 93 931 b 144 986 93 972 107 986 l 258 986 b 310 931 297 986 310 972 l 310 200 l 626 200 b 678 143 665 200 678 186 l 678 56 b 626 0 678 14 665 0 l 144 0 "},"ĺ":{"ha":364,"x_min":0,"x_max":0,"o":"m 101 1061 b 39 1065 69 1050 53 1047 l 14 1097 b 17 1150 -8 1124 -8 1136 l 213 1265 b 304 1261 244 1283 276 1293 l 350 1206 b 343 1150 375 1176 376 1163 l 101 1061 m 121 0 b 82 50 90 0 82 13 l 82 978 b 121 1028 82 1015 90 1028 l 243 1028 b 283 978 272 1028 283 1015 l 283 50 b 243 0 283 13 272 0 l 121 0 "},"Ļ":{"ha":700,"x_min":0,"x_max":0,"o":"m 144 0 b 93 56 107 0 93 14 l 93 931 b 144 986 93 972 107 986 l 258 986 b 310 931 297 986 310 972 l 310 200 l 626 200 b 678 143 665 200 678 186 l 678 56 b 626 0 678 14 665 0 l 144 0 m 293 -361 b 260 -325 264 -361 257 -353 l 281 -129 b 342 -76 285 -87 300 -76 l 435 -76 b 482 -129 482 -76 494 -94 l 417 -315 b 358 -361 406 -349 393 -361 l 293 -361 "},"ļ":{"ha":364,"x_min":0,"x_max":0,"o":"m 121 0 b 82 50 90 0 82 13 l 82 978 b 121 1028 82 1015 90 1028 l 243 1028 b 283 978 272 1028 283 1015 l 283 50 b 243 0 283 13 272 0 l 121 0 m 86 -361 b 53 -325 57 -361 50 -353 l 74 -129 b 135 -76 78 -87 93 -76 l 228 -76 b 275 -129 275 -76 288 -94 l 210 -315 b 151 -361 199 -349 186 -361 l 86 -361 "},"Ľ":{"ha":700,"x_min":0,"x_max":0,"o":"m 144 0 b 93 56 106 0 93 14 l 93 931 b 144 986 93 972 106 986 l 257 986 b 310 931 297 986 310 972 l 310 200 l 626 200 b 678 143 664 200 678 186 l 678 56 b 626 0 678 14 664 0 l 144 0 m 499 665 b 468 699 471 665 465 672 l 494 935 b 554 986 499 975 513 986 l 636 986 b 681 935 681 986 693 969 l 606 710 b 549 665 593 678 582 665 l 499 665 "},"ľ":{"ha":390,"x_min":0,"x_max":0,"o":"m 119 0 b 81 50 89 0 81 13 l 81 978 b 119 1028 81 1015 89 1028 l 243 1028 b 282 978 271 1028 282 1015 l 282 50 b 243 0 282 13 271 0 l 119 0 m 382 740 b 351 774 354 740 349 747 l 374 976 b 432 1028 379 1017 392 1028 l 518 1028 b 563 976 564 1028 576 1011 l 490 785 b 433 740 478 753 467 740 l 382 740 "},"Ŀ":{"ha":700,"x_min":0,"x_max":0,"o":"m 144 0 b 93 56 107 0 93 14 l 93 931 b 144 986 93 972 107 986 l 258 986 b 310 931 297 986 310 972 l 310 200 l 626 200 b 678 143 665 200 678 186 l 678 56 b 626 0 678 14 665 0 l 144 0 m 510 433 b 408 536 433 433 408 458 l 408 557 b 510 658 408 633 433 658 l 528 658 b 631 557 606 658 631 633 l 631 536 b 528 433 631 458 606 433 l 510 433 "},"ŀ":{"ha":597,"x_min":0,"x_max":0,"o":"m 121 0 b 82 50 90 0 82 13 l 82 978 b 121 1028 82 1015 90 1028 l 243 1028 b 283 978 272 1028 283 1015 l 283 50 b 243 0 283 13 272 0 l 121 0 m 465 417 b 369 513 393 417 369 440 l 369 533 b 465 629 369 606 393 629 l 482 629 b 579 533 556 629 579 606 l 579 513 b 482 417 579 440 556 417 l 465 417 "},"Ł":{"ha":729,"x_min":0,"x_max":0,"o":"m 178 0 b 122 56 136 0 122 14 l 122 346 l 83 325 b 29 342 54 310 40 318 l 0 401 b 15 450 -11 422 -4 440 l 122 501 l 122 931 b 178 986 122 972 136 986 l 283 986 b 339 931 325 986 339 972 l 339 599 l 481 664 b 535 649 511 676 525 669 l 565 583 b 547 538 575 563 569 547 l 339 443 l 339 200 l 650 200 b 707 143 692 200 707 186 l 707 56 b 650 0 707 14 692 0 l 178 0 "},"ł":{"ha":474,"x_min":0,"x_max":0,"o":"m 185 0 b 133 50 146 0 133 13 l 133 385 l 107 369 b 51 382 76 354 64 360 l 18 439 b 32 488 7 461 11 476 l 133 543 l 133 978 b 185 1028 133 1015 146 1028 l 285 1028 b 335 978 322 1028 335 1015 l 335 651 l 371 671 b 425 661 399 688 413 685 l 458 601 b 446 553 471 581 465 564 l 335 493 l 335 50 b 285 0 335 13 322 0 l 185 0 "},"Ń":{"ha":928,"x_min":0,"x_max":0,"o":"m 386 1057 b 324 1061 356 1046 338 1042 l 299 1093 b 301 1146 278 1119 276 1132 l 497 1260 b 589 1257 529 1278 563 1289 l 636 1200 b 629 1144 660 1172 661 1157 l 386 1057 m 146 0 b 93 56 107 0 93 14 l 93 931 b 146 986 93 972 107 986 l 275 986 b 326 960 303 986 317 978 l 558 531 b 656 281 610 435 628 365 l 668 281 b 625 579 643 376 625 456 l 625 931 b 678 986 625 972 639 986 l 782 986 b 835 931 821 986 835 972 l 835 56 b 782 0 835 14 821 0 l 657 0 b 607 26 631 0 617 7 l 379 453 b 281 710 331 544 304 631 l 271 710 b 303 407 288 626 303 528 l 303 56 b 250 0 303 14 289 0 l 146 0 "},"ń":{"ha":731,"x_min":0,"x_max":0,"o":"m 286 814 b 222 817 254 803 236 799 l 197 849 b 200 901 176 875 175 888 l 396 1017 b 488 1014 428 1036 461 1046 l 535 958 b 528 903 558 929 560 915 l 286 814 m 122 0 b 76 50 88 0 76 13 l 76 614 b 125 694 76 658 85 676 b 386 743 178 717 260 743 b 660 458 572 743 660 638 l 660 50 b 613 0 660 13 647 0 l 504 0 b 458 50 469 0 458 13 l 458 451 b 360 560 458 526 418 560 b 282 547 335 560 301 554 b 278 542 279 546 278 544 l 278 50 b 231 0 278 13 267 0 l 122 0 "},"Ņ":{"ha":928,"x_min":0,"x_max":0,"o":"m 146 0 b 93 56 107 0 93 14 l 93 931 b 146 986 93 972 107 986 l 275 986 b 326 960 303 986 317 978 l 558 531 b 656 281 610 435 628 365 l 668 281 b 625 579 643 376 625 456 l 625 931 b 678 986 625 972 639 986 l 782 986 b 835 931 821 986 835 972 l 835 56 b 782 0 835 14 821 0 l 657 0 b 607 26 631 0 617 7 l 379 453 b 281 710 331 544 304 631 l 271 710 b 303 407 288 626 303 528 l 303 56 b 250 0 303 14 289 0 l 146 0 m 385 -361 b 351 -325 356 -361 349 -353 l 372 -129 b 433 -76 376 -87 392 -76 l 526 -76 b 574 -129 574 -76 586 -94 l 508 -315 b 450 -361 497 -349 485 -361 l 385 -361 "},"ņ":{"ha":731,"x_min":0,"x_max":0,"o":"m 122 0 b 76 50 88 0 76 13 l 76 614 b 125 694 76 658 85 676 b 386 743 178 717 260 743 b 660 458 572 743 660 638 l 660 50 b 613 0 660 13 647 0 l 504 0 b 458 50 469 0 458 13 l 458 451 b 360 560 458 526 418 560 b 282 547 335 560 301 554 b 278 542 279 546 278 544 l 278 50 b 231 0 278 13 267 0 l 122 0 m 269 -361 b 236 -325 240 -361 233 -353 l 257 -129 b 318 -76 261 -87 276 -76 l 411 -76 b 458 -129 458 -76 471 -94 l 393 -315 b 335 -361 382 -349 369 -361 l 269 -361 "},"Ň":{"ha":928,"x_min":0,"x_max":0,"o":"m 456 1050 b 360 1092 408 1050 399 1053 l 228 1225 b 250 1267 208 1246 208 1267 l 326 1267 b 406 1238 369 1267 381 1264 l 464 1176 l 519 1238 b 600 1267 542 1264 558 1267 l 679 1267 b 701 1225 721 1267 721 1246 l 571 1092 b 479 1050 531 1051 519 1050 l 456 1050 m 146 0 b 93 56 107 0 93 14 l 93 931 b 146 986 93 972 107 986 l 275 986 b 326 960 303 986 317 978 l 558 531 b 656 281 610 435 628 365 l 668 281 b 625 579 643 376 625 456 l 625 931 b 678 986 625 972 639 986 l 782 986 b 835 931 821 986 835 972 l 835 56 b 782 0 835 14 821 0 l 657 0 b 607 26 631 0 617 7 l 379 453 b 281 710 331 544 304 631 l 271 710 b 303 407 288 626 303 528 l 303 56 b 250 0 303 14 289 0 l 146 0 "},"ň":{"ha":731,"x_min":0,"x_max":0,"o":"m 354 806 b 258 849 307 806 297 810 l 126 982 b 149 1024 107 1003 107 1024 l 225 1024 b 304 994 268 1024 279 1021 l 363 933 l 418 994 b 499 1024 440 1019 457 1024 l 578 1024 b 600 982 619 1024 619 1003 l 469 849 b 378 806 429 808 418 806 l 354 806 m 122 0 b 76 50 88 0 76 13 l 76 614 b 125 694 76 658 85 676 b 386 743 178 717 260 743 b 660 458 572 743 660 638 l 660 50 b 613 0 660 13 647 0 l 504 0 b 458 50 469 0 458 13 l 458 451 b 360 560 458 526 418 560 b 282 547 335 560 301 554 b 278 542 279 546 278 544 l 278 50 b 231 0 278 13 267 0 l 122 0 "},"ŉ":{"ha":731,"x_min":0,"x_max":0,"o":"m 61 749 b 36 782 33 749 28 757 l 106 983 b 165 1028 117 1017 124 1028 l 264 1028 b 296 976 308 1028 315 1007 l 175 782 b 115 749 157 754 149 749 l 61 749 m 122 0 b 76 50 88 0 76 13 l 76 614 b 125 694 76 658 85 676 b 386 743 178 717 260 743 b 660 458 572 743 660 638 l 660 50 b 613 0 660 13 647 0 l 504 0 b 458 50 469 0 458 13 l 458 451 b 360 560 458 526 418 560 b 282 547 335 560 301 554 b 278 542 279 546 278 544 l 278 50 b 231 0 278 13 267 0 l 122 0 "},"Ŋ":{"ha":928,"x_min":0,"x_max":0,"o":"m 528 -319 b 475 -268 488 -319 475 -307 l 475 -187 b 528 -135 475 -147 488 -135 b 624 -11 619 -135 624 -87 l 624 8 l 379 453 b 281 710 329 544 304 631 l 271 710 b 303 407 288 626 303 528 l 303 56 b 250 0 303 14 289 0 l 146 0 b 93 56 107 0 93 14 l 93 931 b 146 986 93 972 107 986 l 275 986 b 326 960 303 986 317 978 l 558 531 b 656 281 610 435 628 365 l 668 281 b 625 579 643 376 625 456 l 625 931 b 678 986 625 972 639 986 l 782 986 b 835 931 821 986 835 972 l 833 -36 b 528 -319 831 -235 763 -319 "},"ŋ":{"ha":738,"x_min":0,"x_max":0,"o":"m 365 -319 b 317 -269 329 -319 317 -308 l 317 -192 b 365 -143 317 -154 329 -143 b 458 -15 457 -143 458 -94 l 458 451 b 360 560 458 526 418 560 b 282 547 335 560 301 554 b 278 542 279 546 278 544 l 278 50 b 231 0 278 13 267 0 l 122 0 b 76 50 88 0 76 13 l 76 614 b 125 694 76 658 85 676 b 386 743 178 717 260 743 b 660 458 572 743 660 638 l 660 -22 b 365 -319 660 -214 582 -319 "},"Ō":{"ha":893,"x_min":0,"x_max":0,"o":"m 285 1099 b 236 1147 247 1099 236 1108 l 236 1190 b 285 1238 236 1228 251 1238 l 607 1238 b 656 1190 646 1238 656 1228 l 656 1147 b 607 1099 656 1108 646 1099 l 285 1099 m 446 -21 b 67 350 203 -21 67 121 l 67 636 b 446 1007 67 865 203 1007 b 826 636 690 1007 826 865 l 826 350 b 446 -21 826 121 690 -21 m 446 179 b 610 346 553 179 610 236 l 610 640 b 446 807 610 750 553 807 b 283 640 339 807 283 750 l 283 346 b 446 179 283 236 339 179 "},"ō":{"ha":718,"x_min":0,"x_max":0,"o":"m 197 842 b 149 889 160 842 149 851 l 149 933 b 197 981 149 971 164 981 l 519 981 b 568 933 558 981 568 971 l 568 889 b 519 842 568 851 558 842 l 197 842 m 358 -21 b 56 268 161 -21 56 89 l 56 453 b 358 743 56 632 161 743 b 663 453 558 743 663 632 l 663 268 b 358 -21 663 89 558 -21 m 358 160 b 461 268 426 160 461 199 l 461 454 b 358 563 461 526 426 563 b 257 454 292 563 257 526 l 257 268 b 358 160 257 199 292 160 "},"Ŏ":{"ha":893,"x_min":0,"x_max":0,"o":"m 446 1067 b 225 1207 340 1067 257 1119 b 249 1254 217 1232 222 1243 l 317 1281 b 367 1264 344 1289 357 1286 b 446 1207 381 1229 410 1207 b 525 1264 482 1207 511 1229 b 568 1282 536 1286 546 1289 l 647 1254 b 669 1207 672 1243 678 1232 b 446 1067 636 1119 554 1067 m 446 -21 b 67 350 203 -21 67 121 l 67 636 b 446 1007 67 865 203 1007 b 826 636 690 1007 826 865 l 826 350 b 446 -21 826 121 690 -21 m 446 179 b 610 346 553 179 610 236 l 610 640 b 446 807 610 750 553 807 b 283 640 339 807 283 750 l 283 346 b 446 179 283 236 339 179 "},"ŏ":{"ha":718,"x_min":0,"x_max":0,"o":"m 358 808 b 138 949 253 808 169 861 b 161 996 129 974 135 985 l 229 1022 b 279 1006 257 1031 269 1028 b 358 950 293 969 322 950 b 438 1006 394 950 424 969 b 481 1024 449 1028 458 1031 l 560 996 b 582 949 585 985 590 974 b 358 808 549 861 467 808 m 358 -21 b 56 268 161 -21 56 89 l 56 453 b 358 743 56 632 161 743 b 663 453 558 743 663 632 l 663 268 b 358 -21 663 89 558 -21 m 358 160 b 461 268 426 160 461 199 l 461 454 b 358 563 461 526 426 563 b 257 454 292 563 257 526 l 257 268 b 358 160 257 199 292 160 "},"Ő":{"ha":893,"x_min":0,"x_max":0,"o":"m 247 1079 b 231 1131 213 1089 214 1107 l 315 1256 b 401 1289 338 1286 364 1301 l 464 1269 b 479 1214 499 1257 506 1238 l 339 1092 b 279 1071 313 1071 301 1063 m 478 1074 b 461 1124 443 1083 443 1101 l 557 1256 b 643 1289 579 1286 604 1301 l 710 1268 b 725 1211 744 1256 751 1233 l 568 1085 b 510 1064 543 1064 532 1057 m 446 -21 b 67 350 203 -21 67 121 l 67 636 b 446 1007 67 865 203 1007 b 826 636 690 1007 826 865 l 826 350 b 446 -21 826 121 690 -21 m 446 179 b 610 346 553 179 610 236 l 610 640 b 446 807 610 750 553 807 b 283 640 339 807 283 750 l 283 346 b 446 179 283 236 339 179 "},"ő":{"ha":718,"x_min":0,"x_max":0,"o":"m 160 813 b 143 863 125 824 126 839 l 228 988 b 314 1022 250 1019 275 1032 l 376 1003 b 392 946 411 990 417 971 l 251 825 b 192 804 225 804 214 796 m 390 807 b 374 857 356 815 356 835 l 469 988 b 556 1021 492 1019 517 1032 l 622 1001 b 638 944 657 989 664 967 l 481 818 b 422 797 456 797 444 789 m 358 -21 b 56 268 161 -21 56 89 l 56 453 b 358 743 56 632 161 743 b 663 453 558 743 663 632 l 663 268 b 358 -21 663 89 558 -21 m 358 160 b 461 268 426 160 461 199 l 461 454 b 358 563 461 526 426 563 b 257 454 292 563 257 526 l 257 268 b 358 160 257 199 292 160 "},"Œ":{"ha":1143,"x_min":0,"x_max":0,"o":"m 453 -21 b 67 350 206 -21 67 121 l 67 636 b 453 1007 67 865 206 1007 b 603 986 510 1007 560 1000 l 1029 986 b 1083 931 1071 986 1083 972 l 1083 843 b 1029 786 1083 801 1071 786 l 746 786 l 746 599 l 964 599 b 1017 542 1004 599 1017 583 l 1017 456 b 964 400 1017 414 1004 400 l 746 400 l 746 199 l 1042 199 b 1096 143 1082 199 1096 185 l 1096 56 b 1042 0 1096 14 1082 0 l 607 0 b 453 -21 561 -14 511 -21 m 453 178 b 540 193 488 178 515 183 l 540 794 b 453 808 515 803 488 808 b 283 640 342 808 283 750 l 283 346 b 453 178 283 236 342 178 "},"œ":{"ha":1060,"x_min":0,"x_max":0,"o":"m 350 -21 b 56 268 156 -21 56 89 l 56 453 b 350 743 56 632 156 743 b 539 669 432 743 497 715 b 728 743 586 715 647 743 b 1014 453 942 743 1014 611 l 1014 365 b 944 297 1014 324 996 297 l 629 297 l 629 261 b 728 149 629 185 664 149 b 831 201 779 149 810 168 b 907 221 851 236 865 240 l 971 192 b 992 110 1007 175 1014 146 b 726 -21 944 28 869 -21 b 539 53 644 -21 586 6 b 350 -21 497 4 432 -21 m 825 446 l 825 468 b 728 578 825 542 794 578 b 631 468 663 578 631 542 l 631 446 m 350 154 b 446 268 414 154 446 197 l 446 454 b 350 565 446 526 415 565 b 254 454 285 565 254 526 l 254 268 b 350 154 254 197 285 154 "},"Ŕ":{"ha":869,"x_min":0,"x_max":0,"o":"m 351 1057 b 289 1061 321 1046 303 1042 l 264 1093 b 267 1146 243 1119 242 1132 l 463 1260 b 554 1257 494 1278 528 1289 l 601 1200 b 594 1144 625 1172 626 1157 l 351 1057 m 146 0 b 93 56 107 0 93 14 l 93 931 b 146 986 93 972 107 986 l 488 986 b 803 669 675 986 803 869 b 646 404 803 531 747 446 b 689 340 667 385 681 357 l 819 58 b 788 0 833 25 828 0 l 675 0 b 576 51 610 0 594 8 l 483 269 b 379 360 451 342 439 360 l 310 360 l 310 56 b 258 0 310 14 297 0 l 146 0 m 476 550 b 585 668 540 550 585 592 b 476 786 585 743 542 786 l 310 786 l 310 550 "},"ŕ":{"ha":497,"x_min":0,"x_max":0,"o":"m 163 814 b 99 817 131 803 113 799 l 74 849 b 76 901 53 875 51 888 l 272 1017 b 364 1014 304 1036 338 1046 l 411 958 b 404 903 435 929 436 915 l 163 814 m 121 0 b 76 50 88 0 76 13 l 76 604 b 125 686 76 650 85 669 b 367 722 176 706 247 722 l 436 722 b 481 676 469 722 481 710 l 481 592 b 436 540 481 553 469 540 l 363 540 b 286 532 329 540 304 538 b 278 519 279 529 278 524 l 278 50 b 233 0 278 13 267 0 l 121 0 "},"Ŗ":{"ha":869,"x_min":0,"x_max":0,"o":"m 146 0 b 93 56 107 0 93 14 l 93 931 b 146 986 93 972 107 986 l 488 986 b 803 669 675 986 803 869 b 646 404 803 531 747 446 b 689 340 667 385 681 357 l 819 58 b 788 0 833 25 828 0 l 675 0 b 576 51 610 0 594 8 l 483 269 b 379 360 451 342 439 360 l 310 360 l 310 56 b 258 0 310 14 297 0 l 146 0 m 476 550 b 585 668 540 550 585 592 b 476 786 585 743 542 786 l 310 786 l 310 550 m 371 -361 b 338 -325 342 -361 335 -353 l 358 -129 b 419 -76 363 -87 378 -76 l 513 -76 b 560 -129 560 -76 572 -94 l 494 -315 b 436 -361 483 -349 471 -361 l 371 -361 "},"ŗ":{"ha":497,"x_min":0,"x_max":0,"o":"m 121 0 b 76 50 88 0 76 13 l 76 604 b 125 686 76 650 85 669 b 367 722 176 706 247 722 l 436 722 b 481 676 469 722 481 710 l 481 592 b 436 540 481 553 469 540 l 363 540 b 286 532 329 540 304 538 b 278 519 279 529 278 524 l 278 50 b 233 0 278 13 267 0 l 121 0 m 93 -361 b 60 -325 64 -361 57 -353 l 81 -129 b 142 -76 85 -87 100 -76 l 235 -76 b 282 -129 282 -76 294 -94 l 217 -315 b 158 -361 206 -349 193 -361 l 93 -361 "},"Ř":{"ha":869,"x_min":0,"x_max":0,"o":"m 421 1050 b 325 1092 374 1050 364 1053 l 193 1225 b 215 1267 174 1246 174 1267 l 292 1267 b 371 1238 335 1267 346 1264 l 429 1176 l 485 1238 b 565 1267 507 1264 524 1267 l 644 1267 b 667 1225 686 1267 686 1246 l 536 1092 b 444 1050 496 1051 485 1050 l 421 1050 m 146 0 b 93 56 107 0 93 14 l 93 931 b 146 986 93 972 107 986 l 488 986 b 803 669 675 986 803 869 b 646 404 803 531 747 446 b 689 340 667 385 681 357 l 819 58 b 788 0 833 25 828 0 l 675 0 b 576 51 610 0 594 8 l 483 269 b 379 360 451 342 439 360 l 310 360 l 310 56 b 258 0 310 14 297 0 l 146 0 m 476 550 b 585 668 540 550 585 592 b 476 786 585 743 542 786 l 310 786 l 310 550 "},"ř":{"ha":497,"x_min":0,"x_max":0,"o":"m 231 806 b 135 849 183 806 174 810 l 3 982 b 25 1024 -17 1003 -17 1024 l 101 1024 b 181 994 144 1024 156 1021 l 239 933 l 294 994 b 375 1024 317 1019 333 1024 l 454 1024 b 476 982 496 1024 496 1003 l 346 849 b 254 806 306 808 294 806 l 231 806 m 121 0 b 76 50 88 0 76 13 l 76 604 b 125 686 76 650 85 669 b 367 722 176 706 247 722 l 436 722 b 481 676 469 722 481 710 l 481 592 b 436 540 481 553 469 540 l 363 540 b 286 532 329 540 304 538 b 278 519 279 529 278 524 l 278 50 b 233 0 278 13 267 0 l 121 0 "},"Ś":{"ha":843,"x_min":0,"x_max":0,"o":"m 343 1071 b 281 1075 313 1060 294 1056 l 256 1107 b 258 1160 235 1133 233 1146 l 454 1274 b 546 1271 486 1292 519 1303 l 593 1214 b 586 1158 617 1186 618 1171 l 343 1071 m 415 -21 b 56 206 224 -21 103 60 b 88 278 43 246 53 265 l 192 313 b 261 278 228 325 246 319 b 417 178 286 217 340 178 b 575 293 521 178 575 211 b 410 399 575 365 504 388 b 58 700 260 417 58 453 b 424 1007 58 879 186 1007 b 764 799 610 1007 704 928 b 736 724 782 761 774 739 l 636 685 b 569 714 601 671 588 676 b 424 806 544 772 493 806 b 278 707 319 806 278 776 b 465 596 278 626 360 608 b 797 288 613 579 797 526 b 415 -21 797 100 657 -21 "},"ś":{"ha":668,"x_min":0,"x_max":0,"o":"m 251 814 b 188 817 219 803 201 799 l 163 849 b 165 901 142 875 140 888 l 361 1017 b 453 1014 393 1036 426 1046 l 500 958 b 493 903 524 929 525 915 l 251 814 m 338 -21 b 50 143 183 -21 90 31 b 79 211 36 178 46 200 l 172 240 b 235 210 208 250 219 246 b 336 154 250 171 283 154 b 431 214 403 154 431 175 b 310 286 431 260 406 276 b 53 514 168 299 53 343 b 332 742 53 651 158 742 b 604 594 481 742 561 685 b 578 521 621 557 614 535 l 499 490 b 435 514 461 476 453 481 b 335 567 418 544 389 567 b 249 511 274 567 249 546 b 358 444 249 467 272 454 b 628 215 531 428 626 369 b 338 -21 626 74 525 -21 "},"Ŝ":{"ha":843,"x_min":0,"x_max":0,"o":"m 213 1065 b 189 1107 169 1065 168 1086 l 321 1240 b 418 1282 358 1279 369 1282 l 442 1282 b 532 1240 482 1282 493 1281 l 664 1107 b 642 1065 685 1086 683 1065 l 561 1065 b 479 1093 518 1065 501 1068 l 425 1156 l 365 1094 b 286 1065 340 1067 329 1065 l 213 1065 m 415 -21 b 56 206 224 -21 103 60 b 88 278 43 246 53 265 l 192 313 b 261 278 228 325 246 319 b 417 178 286 217 340 178 b 575 293 521 178 575 211 b 410 399 575 365 504 388 b 58 700 260 417 58 453 b 424 1007 58 879 186 1007 b 764 799 610 1007 704 928 b 736 724 782 761 774 739 l 636 685 b 569 714 601 671 588 676 b 424 806 544 772 493 806 b 278 707 319 806 278 776 b 465 596 278 626 360 608 b 797 288 613 579 797 526 b 415 -21 797 100 657 -21 "},"ŝ":{"ha":668,"x_min":0,"x_max":0,"o":"m 121 808 b 97 850 78 808 78 829 l 229 983 b 326 1025 267 1022 276 1025 l 349 1025 b 440 983 389 1025 400 1024 l 571 850 b 549 808 592 829 590 808 l 468 808 b 386 836 425 808 408 811 l 332 899 l 272 838 b 193 808 247 810 236 808 l 121 808 m 338 -21 b 50 143 183 -21 90 31 b 79 211 36 178 46 200 l 172 240 b 235 210 208 250 219 246 b 336 154 250 171 283 154 b 431 214 403 154 431 175 b 310 286 431 260 406 276 b 53 514 168 299 53 343 b 332 742 53 651 158 742 b 604 594 481 742 561 685 b 578 521 621 557 614 535 l 499 490 b 435 514 461 476 453 481 b 335 567 418 544 389 567 b 249 511 274 567 249 546 b 358 444 249 467 272 454 b 628 215 531 428 626 369 b 338 -21 626 74 525 -21 "},"Ş":{"ha":843,"x_min":0,"x_max":0,"o":"m 406 -340 b 307 -325 388 -340 336 -339 b 279 -282 285 -315 279 -306 l 278 -232 b 306 -211 278 -214 285 -200 b 382 -231 329 -224 344 -231 b 436 -193 422 -231 436 -211 b 385 -161 436 -171 424 -162 l 356 -161 b 336 -122 329 -161 324 -150 l 382 -19 b 56 206 210 -11 100 68 b 88 278 43 246 53 265 l 192 313 b 261 278 228 325 246 319 b 417 178 286 217 340 178 b 575 293 521 178 575 211 b 410 399 575 365 504 388 b 58 700 260 417 58 453 b 424 1007 58 879 186 1007 b 764 799 610 1007 704 928 b 736 724 782 761 774 739 l 636 685 b 569 714 601 671 588 676 b 424 806 544 772 493 806 b 278 707 319 806 278 776 b 465 596 278 626 360 608 b 797 288 613 579 797 526 b 497 -17 797 122 688 8 l 476 -69 l 488 -69 b 603 -203 567 -69 611 -129 b 406 -340 590 -312 496 -340 "},"ş":{"ha":668,"x_min":0,"x_max":0,"o":"m 315 -339 b 218 -325 297 -339 247 -337 b 192 -283 197 -315 192 -306 l 190 -235 b 218 -215 190 -218 197 -206 b 292 -233 242 -228 256 -233 b 346 -197 332 -233 346 -215 b 294 -167 346 -176 333 -168 l 267 -167 b 247 -129 243 -167 238 -156 l 290 -19 b 50 143 160 -11 86 40 b 79 211 36 178 46 200 l 172 240 b 235 210 208 250 219 246 b 336 154 250 171 283 154 b 431 214 403 154 431 175 b 310 286 431 260 406 276 b 53 514 168 299 53 343 b 332 742 53 651 158 742 b 604 594 481 742 561 685 b 578 521 621 557 614 535 l 499 490 b 435 514 461 476 453 481 b 335 567 418 544 389 567 b 249 511 274 567 249 546 b 358 444 249 467 272 454 b 628 215 531 428 626 369 b 403 -15 626 93 544 6 l 381 -79 l 393 -79 b 507 -207 464 -79 515 -136 b 315 -339 496 -312 403 -339 "},"Š":{"ha":843,"x_min":0,"x_max":0,"o":"m 413 1064 b 317 1106 365 1064 356 1067 l 185 1239 b 207 1281 165 1260 165 1281 l 283 1281 b 363 1251 326 1281 338 1278 l 421 1190 l 476 1251 b 557 1281 499 1278 515 1281 l 636 1281 b 658 1239 678 1281 678 1260 l 528 1106 b 436 1064 488 1065 476 1064 l 413 1064 m 415 -21 b 56 206 224 -21 103 60 b 88 278 43 246 53 265 l 192 313 b 261 278 228 325 246 319 b 417 178 286 217 340 178 b 575 293 521 178 575 211 b 410 399 575 365 504 388 b 58 700 260 417 58 453 b 424 1007 58 879 186 1007 b 764 799 610 1007 704 928 b 736 724 782 761 774 739 l 636 685 b 569 714 601 671 588 676 b 424 806 544 772 493 806 b 278 707 319 806 278 776 b 465 596 278 626 360 608 b 797 288 613 579 797 526 b 415 -21 797 100 657 -21 "},"š":{"ha":668,"x_min":0,"x_max":0,"o":"m 319 806 b 224 849 272 806 263 810 l 92 982 b 114 1024 72 1003 72 1024 l 190 1024 b 269 994 233 1024 244 1021 l 328 933 l 383 994 b 464 1024 406 1019 422 1024 l 543 1024 b 565 982 585 1024 585 1003 l 435 849 b 343 806 394 808 383 806 l 319 806 m 338 -21 b 50 143 183 -21 90 31 b 79 211 36 178 46 200 l 172 240 b 235 210 208 250 219 246 b 336 154 250 171 283 154 b 431 214 403 154 431 175 b 310 286 431 260 406 276 b 53 514 168 299 53 343 b 332 742 53 651 158 742 b 604 594 481 742 561 685 b 578 521 621 557 614 535 l 499 490 b 435 514 461 476 453 481 b 335 567 418 544 389 567 b 249 511 274 567 249 546 b 358 444 249 467 272 454 b 628 215 531 428 626 369 b 338 -21 626 74 525 -21 "},"Ţ":{"ha":756,"x_min":0,"x_max":0,"o":"m 322 0 b 269 54 283 0 269 13 l 269 786 l 78 786 b 25 843 38 786 25 800 l 25 931 b 78 986 25 972 38 986 l 678 986 b 731 931 718 986 731 972 l 731 843 b 678 786 731 800 718 786 l 486 786 l 486 54 b 433 0 486 13 472 0 l 322 0 m 282 -361 b 249 -325 253 -361 246 -353 l 269 -129 b 331 -76 274 -87 289 -76 l 424 -76 b 471 -129 471 -76 483 -94 l 406 -315 b 347 -361 394 -349 382 -361 l 282 -361 "},"ţ":{"ha":503,"x_min":0,"x_max":0,"o":"m 367 -69 b 482 -203 440 -69 490 -129 b 285 -340 469 -312 375 -340 b 186 -325 267 -340 215 -339 b 158 -282 164 -315 158 -306 l 157 -232 b 185 -211 157 -214 164 -200 b 261 -231 208 -224 224 -231 b 315 -193 303 -231 315 -211 b 264 -161 315 -171 303 -162 l 235 -161 b 215 -122 208 -161 203 -150 l 272 10 b 122 282 168 33 122 106 l 122 540 l 65 540 b 19 592 31 540 19 554 l 19 672 b 65 722 19 710 31 722 l 122 722 l 122 839 b 169 889 122 876 135 889 l 276 889 b 324 839 313 889 324 876 l 324 722 l 419 722 b 467 672 456 722 467 710 l 467 592 b 419 540 467 554 456 540 l 324 540 l 324 293 b 418 189 324 189 349 186 b 467 144 456 189 467 178 l 467 54 b 418 0 467 14 454 1 l 383 0 l 356 -69 l 367 -69 "},"Ť":{"ha":756,"x_min":0,"x_max":0,"o":"m 367 1050 b 271 1092 319 1050 310 1053 l 139 1225 b 161 1267 119 1246 119 1267 l 238 1267 b 317 1238 281 1267 292 1264 l 375 1176 l 431 1238 b 511 1267 453 1264 469 1267 l 590 1267 b 613 1225 632 1267 632 1246 l 482 1092 b 390 1050 442 1051 431 1050 l 367 1050 m 322 0 b 269 54 283 0 269 13 l 269 786 l 78 786 b 25 843 38 786 25 800 l 25 931 b 78 986 25 972 38 986 l 678 986 b 731 931 718 986 731 972 l 731 843 b 678 786 731 800 718 786 l 486 786 l 486 54 b 433 0 486 13 472 0 l 322 0 "},"ť":{"ha":504,"x_min":0,"x_max":0,"o":"m 432 771 b 401 806 404 771 400 778 l 413 978 b 472 1031 415 1019 431 1031 l 554 1031 b 599 978 600 1031 611 1014 l 540 815 b 482 771 528 783 517 771 l 432 771 m 418 0 b 122 282 211 -7 122 38 l 122 540 l 65 540 b 19 592 31 540 19 554 l 19 672 b 65 722 19 710 31 722 l 122 722 l 122 839 b 169 889 122 876 135 889 l 276 889 b 324 839 313 889 324 876 l 324 722 l 419 722 b 467 672 456 722 467 710 l 467 592 b 419 540 467 554 456 540 l 324 540 l 324 293 b 418 189 324 189 349 186 b 467 144 456 189 467 178 l 467 54 b 418 0 467 14 454 1 "},"Ŧ":{"ha":756,"x_min":0,"x_max":0,"o":"m 322 0 b 269 54 283 0 269 13 l 269 375 l 150 375 b 118 410 125 375 118 382 l 118 489 b 150 524 118 515 128 524 l 269 524 l 269 786 l 78 786 b 25 843 38 786 25 800 l 25 931 b 78 986 25 972 38 986 l 679 986 b 731 931 718 986 731 972 l 731 843 b 679 786 731 800 718 786 l 486 786 l 486 524 l 607 524 b 639 489 632 524 639 515 l 639 410 b 607 375 639 382 632 375 l 486 375 l 486 54 b 433 0 486 13 472 0 l 322 0 "},"ŧ":{"ha":503,"x_min":0,"x_max":0,"o":"m 418 0 b 122 281 211 -7 122 38 l 122 317 l 71 317 b 38 353 44 317 38 324 l 38 413 b 71 449 38 440 47 449 l 122 449 l 122 540 l 65 540 b 19 592 31 540 19 554 l 19 672 b 65 722 19 710 31 722 l 122 722 l 122 839 b 169 889 122 876 135 889 l 276 889 b 324 839 313 889 324 876 l 324 722 l 419 722 b 467 672 456 722 467 710 l 467 592 b 419 540 467 554 456 540 l 324 540 l 324 449 l 406 449 b 438 413 431 449 438 440 l 438 353 b 406 317 438 324 431 317 l 324 317 l 324 289 b 418 189 324 188 349 186 b 467 144 456 189 467 178 l 467 54 b 418 0 467 14 454 1 "},"Ũ":{"ha":917,"x_min":0,"x_max":0,"o":"m 263 1060 b 232 1090 240 1060 232 1069 b 353 1253 232 1215 275 1253 b 529 1183 450 1253 479 1183 b 553 1224 544 1183 553 1193 b 581 1253 553 1244 558 1253 l 638 1253 b 669 1222 663 1253 669 1243 b 546 1060 669 1099 629 1060 b 374 1131 457 1060 425 1131 b 350 1090 358 1131 350 1119 b 321 1060 350 1069 342 1060 l 263 1060 m 458 -21 b 86 344 214 -21 86 122 l 86 932 b 139 986 86 974 100 986 l 251 986 b 303 932 290 986 303 974 l 303 340 b 458 179 303 238 353 179 b 614 340 564 179 614 238 l 614 932 b 665 986 614 974 626 986 l 778 986 b 831 932 817 986 831 974 l 831 344 b 458 -21 831 122 701 -21 "},"ũ":{"ha":731,"x_min":0,"x_max":0,"o":"m 168 822 b 138 853 146 822 138 832 b 258 1015 138 978 181 1015 b 435 944 356 1015 385 944 b 458 985 450 944 458 956 b 486 1015 458 1006 464 1015 l 543 1015 b 575 985 568 1015 575 1006 b 451 822 575 861 535 822 b 279 892 363 822 331 892 b 256 851 264 892 256 882 b 226 822 256 831 247 822 l 168 822 m 346 -21 b 72 264 158 -21 72 85 l 72 672 b 118 722 72 710 83 722 l 226 722 b 274 672 261 722 274 710 l 274 271 b 372 163 274 196 301 163 b 446 172 397 163 425 164 b 454 188 451 175 454 178 l 454 672 b 500 722 454 710 465 722 l 608 722 b 656 672 643 722 656 710 l 656 107 b 604 28 656 63 646 46 b 346 -21 553 4 471 -21 "},"Ū":{"ha":917,"x_min":0,"x_max":0,"o":"m 297 1085 b 249 1133 260 1085 249 1094 l 249 1176 b 297 1224 249 1214 264 1224 l 619 1224 b 668 1176 658 1224 668 1214 l 668 1133 b 619 1085 668 1094 658 1085 l 297 1085 m 458 -21 b 86 344 214 -21 86 122 l 86 932 b 139 986 86 974 100 986 l 251 986 b 303 932 290 986 303 974 l 303 340 b 458 179 303 238 353 179 b 614 340 564 179 614 238 l 614 932 b 665 986 614 974 626 986 l 778 986 b 831 932 817 986 831 974 l 831 344 b 458 -21 831 122 701 -21 "},"ū":{"ha":731,"x_min":0,"x_max":0,"o":"m 203 842 b 154 889 165 842 154 851 l 154 933 b 203 981 154 971 169 981 l 525 981 b 574 933 564 981 574 971 l 574 889 b 525 842 574 851 564 842 l 203 842 m 346 -21 b 72 264 158 -21 72 85 l 72 672 b 118 722 72 710 83 722 l 226 722 b 274 672 261 722 274 710 l 274 271 b 372 163 274 196 301 163 b 446 172 397 163 425 164 b 454 188 451 175 454 178 l 454 672 b 500 722 454 710 465 722 l 608 722 b 656 672 643 722 656 710 l 656 107 b 604 28 656 63 646 46 b 346 -21 553 4 471 -21 "},"Ŭ":{"ha":917,"x_min":0,"x_max":0,"o":"m 458 1053 b 238 1193 353 1053 269 1106 b 261 1240 229 1218 235 1229 l 329 1267 b 379 1250 357 1275 369 1272 b 458 1193 393 1215 422 1193 b 538 1250 494 1193 524 1215 b 581 1268 549 1272 558 1275 l 660 1240 b 682 1193 685 1229 690 1218 b 458 1053 649 1106 567 1053 m 458 -21 b 86 344 214 -21 86 122 l 86 932 b 139 986 86 974 100 986 l 251 986 b 303 932 290 986 303 974 l 303 340 b 458 179 303 238 353 179 b 614 340 564 179 614 238 l 614 932 b 665 986 614 974 626 986 l 778 986 b 831 932 817 986 831 974 l 831 344 b 458 -21 831 122 701 -21 "},"ŭ":{"ha":731,"x_min":0,"x_max":0,"o":"m 364 808 b 143 949 258 808 175 861 b 167 996 135 974 140 985 l 235 1022 b 285 1006 263 1031 275 1028 b 364 950 299 969 328 950 b 443 1006 400 950 429 969 b 486 1024 454 1028 464 1031 l 565 996 b 588 949 590 985 596 974 b 364 808 554 861 472 808 m 346 -21 b 72 264 158 -21 72 85 l 72 672 b 118 722 72 710 83 722 l 226 722 b 274 672 261 722 274 710 l 274 271 b 372 163 274 196 301 163 b 446 172 397 163 425 164 b 454 188 451 175 454 178 l 454 672 b 500 722 454 710 465 722 l 608 722 b 656 672 643 722 656 710 l 656 107 b 604 28 656 63 646 46 b 346 -21 553 4 471 -21 "},"Ů":{"ha":917,"x_min":0,"x_max":0,"o":"m 460 1039 b 299 1190 365 1039 299 1100 b 460 1344 299 1282 365 1344 b 617 1190 551 1344 617 1282 b 460 1039 617 1100 551 1039 m 460 1133 b 517 1190 493 1133 517 1157 b 460 1250 517 1225 493 1250 b 397 1190 424 1250 397 1225 b 460 1133 397 1157 424 1133 m 458 -21 b 86 344 214 -21 86 122 l 86 932 b 139 986 86 974 100 986 l 251 986 b 303 932 290 986 303 974 l 303 340 b 458 179 303 238 353 179 b 614 340 564 179 614 238 l 614 932 b 665 986 614 974 626 986 l 778 986 b 831 932 817 986 831 974 l 831 344 b 458 -21 831 122 701 -21 "},"ů":{"ha":731,"x_min":0,"x_max":0,"o":"m 365 774 b 204 925 271 774 204 835 b 365 1081 204 1017 271 1081 b 522 925 457 1081 522 1017 b 365 774 522 836 457 774 m 365 867 b 424 925 399 867 424 892 b 365 985 424 961 399 985 b 303 925 328 985 303 961 b 365 867 303 892 328 867 m 346 -21 b 72 264 158 -21 72 85 l 72 672 b 118 722 72 710 83 722 l 226 722 b 274 672 261 722 274 710 l 274 271 b 372 163 274 196 301 163 b 446 172 397 163 425 164 b 454 188 451 175 454 178 l 454 672 b 500 722 454 710 465 722 l 608 722 b 656 672 643 722 656 710 l 656 107 b 604 28 656 63 646 46 b 346 -21 553 4 471 -21 "},"Ű":{"ha":917,"x_min":0,"x_max":0,"o":"m 258 1065 b 242 1117 224 1075 225 1093 l 326 1242 b 413 1275 349 1272 375 1288 l 475 1256 b 490 1200 510 1243 517 1224 l 350 1078 b 290 1057 324 1057 313 1049 m 489 1060 b 472 1110 454 1069 454 1088 l 568 1242 b 654 1275 590 1272 615 1288 l 721 1254 b 736 1197 756 1242 763 1219 l 579 1071 b 521 1050 554 1050 543 1043 m 458 -21 b 86 344 214 -21 86 122 l 86 932 b 139 986 86 974 100 986 l 251 986 b 303 932 290 986 303 974 l 303 340 b 458 179 303 238 353 179 b 614 340 564 179 614 238 l 614 932 b 665 986 614 974 626 986 l 778 986 b 831 932 817 986 831 974 l 831 344 b 458 -21 831 122 701 -21 "},"ű":{"ha":731,"x_min":0,"x_max":0,"o":"m 164 813 b 147 863 129 824 131 839 l 232 988 b 318 1022 254 1019 279 1032 l 381 1003 b 396 946 415 990 421 971 l 256 825 b 196 804 229 804 218 796 m 394 807 b 378 857 360 815 360 835 l 474 988 b 560 1021 496 1019 521 1032 l 626 1001 b 642 944 661 989 668 967 l 485 818 b 426 797 460 797 449 789 m 346 -21 b 72 264 158 -21 72 85 l 72 672 b 118 722 72 710 83 722 l 226 722 b 274 672 261 722 274 710 l 274 271 b 372 163 274 196 301 163 b 446 172 397 163 425 164 b 454 188 451 175 454 178 l 454 672 b 500 722 454 710 465 722 l 608 722 b 656 672 643 722 656 710 l 656 107 b 604 28 656 63 646 46 b 346 -21 553 4 471 -21 "},"Ų":{"ha":917,"x_min":0,"x_max":0,"o":"m 553 -340 b 419 -251 489 -340 431 -321 b 519 -17 407 -182 444 -97 b 458 -21 500 -19 479 -21 b 86 344 214 -21 86 122 l 86 932 b 139 986 86 974 100 986 l 251 986 b 303 932 290 986 303 974 l 303 340 b 458 179 303 238 353 179 b 614 340 564 179 614 238 l 614 932 b 665 986 614 974 626 986 l 778 986 b 831 932 817 986 831 974 l 831 344 b 713 57 831 221 790 121 b 586 -175 603 -54 582 -147 b 615 -200 590 -190 601 -200 b 639 -193 622 -200 631 -199 b 671 -201 653 -183 664 -187 l 693 -256 b 692 -290 701 -272 700 -282 b 553 -340 656 -324 603 -340 "},"ų":{"ha":733,"x_min":0,"x_max":0,"o":"m 513 -340 b 379 -251 449 -340 392 -321 b 479 -10 367 -181 406 -90 b 346 -21 442 -17 397 -21 b 72 264 158 -21 72 85 l 72 672 b 118 722 72 710 83 722 l 226 722 b 274 672 261 722 274 710 l 274 271 b 372 163 274 196 301 163 b 446 172 397 163 425 164 b 454 188 451 175 454 178 l 454 672 b 500 722 454 710 465 722 l 608 722 b 656 672 643 722 656 710 l 656 107 b 642 53 656 82 651 65 b 547 -175 560 -62 542 -147 b 575 -200 550 -190 561 -200 b 600 -193 583 -200 592 -199 b 631 -201 613 -183 625 -187 l 654 -256 b 651 -290 661 -272 661 -282 b 513 -340 615 -324 563 -340 "},"Ŵ":{"ha":1229,"x_min":0,"x_max":0,"o":"m 410 1051 b 386 1093 367 1051 365 1072 l 518 1226 b 615 1268 556 1265 567 1268 l 639 1268 b 729 1226 679 1268 690 1267 l 861 1093 b 839 1051 882 1072 881 1051 l 758 1051 b 676 1079 715 1051 699 1054 l 622 1142 l 563 1081 b 483 1051 538 1053 526 1051 l 410 1051 m 306 0 b 240 43 269 0 249 7 l 33 932 b 69 986 24 969 31 986 l 200 986 b 265 938 244 986 258 978 l 343 499 b 363 289 353 443 358 354 l 372 289 b 401 499 375 363 388 438 l 503 938 b 574 986 513 978 533 986 l 668 986 b 740 938 710 986 732 978 l 833 499 b 863 289 847 432 856 350 l 872 289 b 893 499 875 349 882 436 l 972 938 b 1038 986 979 978 993 986 l 1156 986 b 1196 932 1196 986 1204 969 l 990 46 b 925 0 982 7 961 0 l 804 0 b 738 43 767 0 746 8 l 639 514 b 618 694 628 568 619 635 l 608 694 b 585 515 607 635 597 571 l 485 46 b 419 0 476 7 456 0 l 306 0 "},"ŵ":{"ha":988,"x_min":0,"x_max":0,"o":"m 286 808 b 263 850 243 808 243 829 l 394 983 b 492 1025 432 1022 442 1025 l 514 1025 b 606 983 554 1025 565 1024 l 736 850 b 714 808 757 829 756 808 l 633 808 b 551 836 590 808 574 811 l 497 899 l 438 838 b 358 808 413 810 401 808 l 286 808 m 251 0 b 186 44 215 0 194 10 l 32 664 b 72 722 21 710 26 722 l 163 722 b 244 672 219 722 238 714 l 289 424 b 306 236 297 375 303 289 l 315 236 b 336 424 318 286 325 372 l 388 671 b 467 722 396 714 408 722 l 528 722 b 607 672 585 722 597 714 l 660 424 b 681 236 671 367 678 283 l 690 236 b 707 424 690 281 696 360 l 751 671 b 832 722 758 714 774 722 l 915 722 b 956 664 961 722 967 710 l 803 44 b 738 0 794 10 774 0 l 642 0 b 575 44 606 0 585 10 l 518 338 b 496 499 508 394 500 461 l 489 499 b 464 338 485 461 475 394 l 404 44 b 342 0 397 10 376 0 l 251 0 "},"Ŷ":{"ha":867,"x_min":0,"x_max":0,"o":"m 225 1051 b 201 1093 182 1051 181 1072 l 333 1226 b 431 1268 371 1265 382 1268 l 454 1268 b 544 1226 494 1268 506 1267 l 676 1093 b 654 1051 697 1072 696 1051 l 574 1051 b 492 1079 531 1051 514 1054 l 438 1142 l 378 1081 b 299 1051 353 1053 342 1051 l 225 1051 m 375 0 b 322 56 336 0 322 14 l 322 385 l 24 931 b 50 986 7 961 13 986 l 179 986 b 271 936 240 986 251 979 l 433 593 l 601 936 b 692 986 621 979 631 986 l 815 986 b 842 931 853 986 858 961 l 539 383 l 539 56 b 486 0 539 14 525 0 l 375 0 "},"ŷ":{"ha":733,"x_min":0,"x_max":0,"o":"m 153 808 b 129 850 110 808 110 829 l 261 983 b 358 1025 299 1022 308 1025 l 381 1025 b 472 983 421 1025 432 1024 l 603 850 b 581 808 624 829 622 808 l 500 808 b 418 836 457 808 440 811 l 364 899 l 304 838 b 225 808 279 810 268 808 l 153 808 m 365 -321 b 93 -192 226 -321 142 -274 b 114 -112 71 -154 79 -129 l 192 -74 b 263 -94 228 -56 243 -61 b 361 -144 281 -129 318 -144 b 454 -32 426 -144 454 -110 l 454 31 b 346 21 426 25 390 21 b 72 306 158 21 72 126 l 72 672 b 118 722 72 710 83 722 l 226 722 b 274 672 261 722 274 710 l 274 313 b 372 204 274 238 300 204 b 454 214 407 204 433 208 l 454 672 b 500 722 454 710 465 722 l 608 722 b 656 672 643 722 656 710 l 656 -14 b 365 -321 656 -194 575 -321 "},"Ÿ":{"ha":867,"x_min":0,"x_max":0,"o":"m 289 1064 b 203 1150 222 1064 203 1085 l 203 1164 b 289 1250 203 1229 222 1250 l 299 1250 b 386 1164 365 1250 386 1229 l 386 1150 b 299 1064 386 1085 365 1064 l 289 1064 m 574 1064 b 486 1150 507 1064 486 1085 l 486 1164 b 574 1250 486 1229 507 1250 l 583 1250 b 669 1164 650 1250 669 1229 l 669 1150 b 583 1064 669 1085 650 1064 l 574 1064 m 375 0 b 322 56 336 0 322 14 l 322 385 l 24 931 b 50 986 7 961 13 986 l 179 986 b 271 936 240 986 251 979 l 433 593 l 601 936 b 692 986 621 979 631 986 l 815 986 b 842 931 853 986 858 961 l 539 383 l 539 56 b 486 0 539 14 525 0 l 375 0 "},"Ź":{"ha":790,"x_min":0,"x_max":0,"o":"m 321 1057 b 258 1061 290 1046 272 1042 l 233 1093 b 236 1146 213 1119 211 1132 l 432 1260 b 524 1257 464 1278 497 1289 l 571 1200 b 564 1144 594 1172 596 1157 l 321 1057 m 104 0 b 51 56 65 0 51 14 l 51 136 b 69 192 51 158 57 175 l 474 788 l 110 788 b 58 844 72 788 58 801 l 58 931 b 110 986 58 972 72 986 l 681 986 b 732 931 719 986 732 972 l 732 850 b 715 793 732 826 728 810 l 314 200 l 686 200 b 738 143 725 200 738 186 l 738 56 b 686 0 738 14 725 0 l 104 0 "},"ź":{"ha":622,"x_min":0,"x_max":0,"o":"m 235 814 b 171 817 203 803 185 799 l 146 849 b 149 901 125 875 124 888 l 344 1017 b 436 1014 376 1036 410 1046 l 483 958 b 476 903 507 929 508 915 l 235 814 m 93 0 b 46 50 58 0 46 13 l 46 128 b 64 179 46 154 50 161 l 321 543 l 99 543 b 54 593 65 543 54 556 l 54 672 b 99 722 54 710 65 722 l 524 722 b 569 672 557 722 569 710 l 569 594 b 549 538 569 569 563 557 l 285 179 l 531 179 b 576 129 565 179 576 167 l 576 50 b 531 0 576 13 565 0 l 93 0 "},"Ż":{"ha":790,"x_min":0,"x_max":0,"o":"m 397 1061 b 308 1151 329 1061 308 1082 l 308 1163 b 397 1251 308 1232 329 1251 l 406 1251 b 496 1163 475 1251 496 1232 l 496 1151 b 406 1061 496 1082 475 1061 l 397 1061 m 104 0 b 51 56 65 0 51 14 l 51 136 b 69 192 51 158 57 175 l 474 788 l 110 788 b 58 844 72 788 58 801 l 58 931 b 110 986 58 972 72 986 l 681 986 b 732 931 719 986 732 972 l 732 850 b 715 793 732 826 728 810 l 314 200 l 686 200 b 738 143 725 200 738 186 l 738 56 b 686 0 738 14 725 0 l 104 0 "},"ż":{"ha":622,"x_min":0,"x_max":0,"o":"m 281 813 b 206 900 222 813 206 829 l 206 922 b 281 1011 206 990 224 1011 l 347 1011 b 422 922 406 1011 422 990 l 422 900 b 347 813 422 829 406 813 l 281 813 m 93 0 b 46 50 58 0 46 13 l 46 128 b 64 179 46 154 50 161 l 321 543 l 99 543 b 54 593 65 543 54 556 l 54 672 b 99 722 54 710 65 722 l 524 722 b 569 672 557 722 569 710 l 569 594 b 549 538 569 569 563 557 l 285 179 l 531 179 b 576 129 565 179 576 167 l 576 50 b 531 0 576 13 565 0 l 93 0 "},"Ž":{"ha":790,"x_min":0,"x_max":0,"o":"m 390 1050 b 294 1092 343 1050 333 1053 l 163 1225 b 185 1267 143 1246 143 1267 l 261 1267 b 340 1238 304 1267 315 1264 l 399 1176 l 454 1238 b 535 1267 476 1264 493 1267 l 614 1267 b 636 1225 656 1267 656 1246 l 506 1092 b 414 1050 465 1051 454 1050 l 390 1050 m 104 0 b 51 56 65 0 51 14 l 51 136 b 69 192 51 158 57 175 l 474 788 l 110 788 b 58 844 72 788 58 801 l 58 931 b 110 986 58 972 72 986 l 681 986 b 732 931 719 986 732 972 l 732 850 b 715 793 732 826 728 810 l 314 200 l 686 200 b 738 143 725 200 738 186 l 738 56 b 686 0 738 14 725 0 l 104 0 "},"ž":{"ha":622,"x_min":0,"x_max":0,"o":"m 303 806 b 207 849 256 806 246 810 l 75 982 b 97 1024 56 1003 56 1024 l 174 1024 b 253 994 217 1024 228 1021 l 311 933 l 367 994 b 447 1024 389 1019 406 1024 l 526 1024 b 549 982 568 1024 568 1003 l 418 849 b 326 806 378 808 367 806 l 303 806 m 93 0 b 46 50 58 0 46 13 l 46 128 b 64 179 46 154 50 161 l 321 543 l 99 543 b 54 593 65 543 54 556 l 54 672 b 99 722 54 710 65 722 l 524 722 b 569 672 557 722 569 710 l 569 594 b 549 538 569 569 563 557 l 285 179 l 531 179 b 576 129 565 179 576 167 l 576 50 b 531 0 576 13 565 0 l 93 0 "},"ſ":{"ha":386,"x_min":0,"x_max":0,"o":"m 167 0 b 118 50 129 0 118 13 l 118 540 l 71 540 b 24 592 36 540 24 554 l 24 672 b 71 722 24 710 36 722 l 118 722 l 118 738 b 413 1028 118 929 207 1028 b 461 976 449 1028 461 1015 l 461 899 b 413 846 461 860 449 846 b 319 729 343 846 319 811 l 319 50 b 271 0 319 13 307 0 l 167 0 "},"ƒ":{"ha":604,"x_min":0,"x_max":0,"o":"m 32 -306 b -17 -254 -4 -306 -17 -293 l -17 -174 b 32 -121 -17 -133 -4 -121 b 149 14 111 -121 140 -71 l 181 401 l 89 401 b 42 453 53 401 42 414 l 42 533 b 89 585 42 572 53 585 l 200 585 l 211 715 b 528 1028 228 913 319 1028 b 575 976 564 1028 575 1015 l 575 896 b 528 843 575 856 564 843 b 413 708 447 843 419 793 l 401 585 l 500 585 b 547 533 536 585 547 572 l 547 453 b 500 401 547 414 536 401 l 383 401 l 349 7 b 32 -306 332 -190 238 -306 "},"Ǻ":{"ha":885,"x_min":0,"x_max":0,"o":"m 344 1204 b 294 1210 315 1196 307 1196 l 271 1233 b 285 1279 250 1253 261 1268 l 472 1364 b 543 1357 501 1378 518 1379 l 586 1314 b 579 1274 608 1293 608 1281 l 344 1204 m 53 0 b 18 54 14 0 6 18 l 313 919 b 271 1022 285 946 271 983 b 443 1181 271 1119 343 1181 b 611 1021 540 1181 611 1117 b 574 922 611 983 597 947 l 867 54 b 831 0 879 18 868 0 l 721 0 b 631 50 660 0 642 11 l 594 185 l 282 185 l 244 50 b 157 0 233 11 215 0 l 53 0 m 443 964 b 501 1024 476 964 501 989 b 443 1085 501 1060 476 1085 b 379 1024 406 1085 379 1060 b 443 964 379 989 406 964 m 539 365 l 481 586 b 443 778 461 661 447 739 l 436 778 b 397 588 431 738 418 660 l 339 365 "},"ǻ":{"ha":686,"x_min":0,"x_max":0,"o":"m 256 1100 b 193 1103 225 1089 207 1085 l 168 1135 b 171 1188 147 1161 146 1174 l 365 1303 b 457 1300 397 1322 431 1332 l 506 1244 b 499 1189 529 1215 531 1201 l 256 1100 m 338 775 b 176 928 244 775 176 838 b 338 1082 176 1019 244 1082 b 496 928 429 1082 496 1018 b 338 775 496 838 429 775 m 338 869 b 396 928 372 869 396 893 b 338 988 396 963 372 988 b 276 928 301 988 276 963 b 338 869 276 893 301 869 m 333 -21 b 44 208 128 -21 44 49 b 336 433 44 369 128 433 b 419 429 360 433 404 431 l 419 475 b 333 571 419 549 396 571 b 236 517 286 571 256 553 b 169 494 218 486 203 478 l 101 524 b 75 596 68 539 57 557 b 336 743 119 688 201 743 b 619 464 550 743 619 635 l 619 96 b 574 15 619 47 610 32 b 333 -21 526 -7 443 -21 m 325 139 b 413 144 363 139 399 142 b 419 156 418 146 419 149 l 419 278 b 328 281 394 279 353 281 b 243 208 269 281 243 258 b 325 139 243 161 268 139 "},"Ǽ":{"ha":1169,"x_min":0,"x_max":0,"o":"m 747 1057 b 685 1061 717 1046 699 1042 l 660 1093 b 663 1146 639 1119 638 1132 l 858 1260 b 950 1257 890 1278 924 1289 l 997 1200 b 990 1144 1021 1172 1022 1157 l 747 1057 m 39 0 b 6 54 1 0 -11 19 l 539 940 b 604 986 560 974 568 986 l 1058 986 b 1111 931 1097 986 1111 972 l 1111 843 b 1058 786 1111 800 1097 786 l 778 786 l 778 599 l 990 599 b 1044 543 1031 599 1044 585 l 1044 456 b 990 399 1044 414 1031 399 l 778 399 l 778 200 l 1069 200 b 1124 143 1110 200 1124 186 l 1124 56 b 1069 0 1124 14 1110 0 l 625 0 b 572 56 585 0 572 14 l 572 185 l 315 185 l 244 50 b 146 0 226 13 214 0 l 39 0 m 572 358 l 575 651 l 424 358 "},"ǽ":{"ha":1026,"x_min":0,"x_max":0,"o":"m 432 814 b 368 817 400 803 382 799 l 343 849 b 346 901 322 875 321 888 l 542 1017 b 633 1014 574 1036 607 1046 l 681 958 b 674 903 704 929 706 915 l 432 814 m 329 -21 b 44 207 125 -21 44 44 b 335 436 44 371 125 436 b 410 432 363 436 393 433 l 410 481 b 328 569 410 538 392 569 b 224 522 285 569 244 558 b 158 500 206 490 196 485 l 96 525 b 69 599 61 539 50 560 b 333 743 114 689 197 743 b 510 676 413 743 468 719 b 692 743 558 724 622 743 b 979 454 904 743 979 614 l 979 365 b 911 297 979 324 963 297 l 593 297 l 593 260 b 692 147 593 185 628 147 b 801 200 744 147 779 165 b 876 219 822 233 836 242 l 933 189 b 954 110 969 168 975 146 b 689 -21 907 28 832 -21 b 539 21 625 -21 574 -4 b 329 -21 488 -3 429 -21 m 788 446 l 788 472 b 692 579 788 546 757 579 b 594 472 626 579 594 546 l 594 446 m 319 139 b 410 149 364 139 397 144 l 410 206 l 410 275 b 322 278 392 276 349 278 b 240 208 251 278 240 250 b 319 139 240 167 250 139 "},"Ǿ":{"ha":893,"x_min":0,"x_max":0,"o":"m 392 1071 b 329 1075 361 1060 343 1056 l 304 1107 b 307 1160 283 1133 282 1146 l 503 1274 b 594 1271 535 1292 568 1303 l 642 1214 b 635 1158 665 1186 667 1171 l 392 1071 m 68 -54 b 58 -35 54 -54 53 -44 l 140 106 b 67 350 92 168 67 250 l 67 636 b 446 1007 67 865 203 1007 b 640 968 521 1007 586 993 l 676 1031 b 711 1047 686 1046 692 1047 l 822 1047 b 832 1029 835 1047 839 1039 l 749 885 b 826 636 800 821 826 738 l 826 350 b 446 -21 826 121 690 -21 b 247 21 369 -21 301 -6 l 217 -33 b 179 -54 207 -50 203 -54 l 68 -54 m 538 788 b 446 807 513 800 483 807 b 283 640 339 807 283 750 l 283 382 l 283 349 m 446 179 b 610 346 553 179 610 236 l 610 622 b 608 647 610 631 610 639 l 351 200 b 446 179 376 186 407 179 "},"ǿ":{"ha":718,"x_min":0,"x_max":0,"o":"m 279 814 b 215 817 247 803 229 799 l 190 849 b 193 901 169 875 168 888 l 389 1017 b 481 1014 421 1036 454 1046 l 528 958 b 521 903 551 929 553 915 l 279 814 m 83 -50 b 75 -29 69 -50 68 -39 l 128 63 b 56 268 81 111 56 182 l 56 453 b 358 743 56 632 161 743 b 510 717 417 743 468 733 l 531 753 b 564 768 539 767 544 768 l 639 768 b 649 750 653 768 654 761 l 593 657 b 663 453 639 606 663 538 l 663 268 b 358 -21 663 89 558 -21 b 214 4 303 -21 254 -11 l 192 -35 b 156 -50 183 -49 178 -50 l 83 -50 m 415 550 b 358 563 400 560 381 563 b 257 454 292 563 257 526 l 257 313 l 257 281 m 358 160 b 461 268 426 160 461 199 l 461 397 l 461 431 l 308 169 b 358 160 322 163 340 160 "},"Ș":{"ha":843,"x_min":0,"x_max":0,"o":"m 415 -21 b 56 206 224 -21 103 60 b 88 278 43 246 53 265 l 192 313 b 261 278 228 325 246 319 b 417 178 286 217 340 178 b 575 293 521 178 575 211 b 410 399 575 365 504 388 b 58 700 260 417 58 453 b 424 1007 58 879 186 1007 b 764 799 610 1007 704 928 b 736 724 782 761 774 739 l 636 685 b 569 714 601 671 588 676 b 424 806 544 772 493 806 b 278 707 319 806 278 776 b 465 596 278 626 360 608 b 797 288 613 579 797 526 b 415 -21 797 100 657 -21 m 347 -361 b 314 -325 318 -361 311 -353 l 335 -129 b 396 -76 339 -87 354 -76 l 489 -76 b 536 -129 536 -76 549 -94 l 471 -315 b 413 -361 460 -349 447 -361 l 347 -361 "},"ș":{"ha":668,"x_min":0,"x_max":0,"o":"m 338 -21 b 50 143 183 -21 90 31 b 79 211 36 178 46 200 l 172 240 b 235 210 208 250 219 246 b 336 154 250 171 283 154 b 431 214 403 154 431 175 b 310 286 431 260 406 276 b 53 514 168 299 53 343 b 332 742 53 651 158 742 b 604 594 481 742 561 685 b 578 521 621 557 614 535 l 499 490 b 435 514 461 476 453 481 b 335 567 418 544 389 567 b 249 511 274 567 249 546 b 358 444 249 467 272 454 b 628 215 531 428 626 369 b 338 -21 626 74 525 -21 m 239 -361 b 206 -325 210 -361 203 -353 l 226 -129 b 288 -76 231 -87 246 -76 l 381 -76 b 428 -129 428 -76 440 -94 l 363 -315 b 304 -361 351 -349 339 -361 l 239 -361 "},"ț":{"ha":503,"x_min":0,"x_max":0,"o":"m 418 0 b 122 282 211 -7 122 38 l 122 540 l 65 540 b 19 592 31 540 19 554 l 19 672 b 65 722 19 710 31 722 l 122 722 l 122 839 b 169 889 122 876 135 889 l 276 889 b 324 839 313 889 324 876 l 324 722 l 419 722 b 467 672 456 722 467 710 l 467 592 b 419 540 467 554 456 540 l 324 540 l 324 293 b 418 189 324 189 349 186 b 467 144 456 189 467 178 l 467 54 b 418 0 467 14 454 1 m 224 -361 b 190 -325 194 -361 188 -353 l 211 -129 b 272 -76 215 -87 231 -76 l 365 -76 b 413 -129 413 -76 425 -94 l 347 -315 b 289 -361 336 -349 324 -361 l 224 -361 "},"ȷ":{"ha":349,"x_min":0,"x_max":0,"o":"m -3 -319 b -49 -268 -37 -319 -49 -307 l -49 -187 b -3 -135 -49 -147 -37 -135 b 74 -3 75 -135 74 -85 l 74 672 b 121 722 74 710 86 722 l 231 722 b 276 672 265 722 276 710 l 276 -11 b -3 -319 276 -208 228 -319 "},"ˆ":{"ha":568,"x_min":0,"x_max":0,"o":"m 67 808 b 43 850 24 808 24 829 l 175 983 b 272 1025 213 1022 222 1025 l 294 1025 b 386 983 335 1025 346 1024 l 517 850 b 494 808 538 829 536 808 l 414 808 b 332 836 371 808 354 811 l 278 899 l 218 838 b 139 808 193 810 182 808 l 67 808 "},"ˇ":{"ha":494,"x_min":0,"x_max":0,"o":"m 235 806 b 139 849 188 806 178 810 l 7 982 b 29 1024 -12 1003 -12 1024 l 106 1024 b 185 994 149 1024 160 1021 l 243 933 l 299 994 b 379 1024 321 1019 338 1024 l 458 1024 b 481 982 500 1024 500 1003 l 350 849 b 258 806 310 808 299 806 l 235 806 "},"˘":{"ha":410,"x_min":0,"x_max":0,"o":"m 197 808 b -24 949 92 808 8 861 b 0 996 -32 974 -26 985 l 68 1022 b 118 1006 96 1031 108 1028 b 197 950 132 969 161 950 b 276 1006 233 950 263 969 b 319 1024 288 1028 297 1031 l 399 996 b 421 949 424 985 429 974 b 197 808 388 861 306 808 "},"˙":{"ha":313,"x_min":0,"x_max":0,"o":"m 151 817 b 63 906 83 817 63 836 l 63 917 b 151 1007 63 986 83 1007 l 160 1007 b 250 917 229 1007 250 986 l 250 906 b 160 817 250 836 229 817 l 151 817 "},"˚":{"ha":344,"x_min":0,"x_max":0,"o":"m 175 774 b 14 925 81 774 14 835 b 175 1081 14 1017 81 1081 b 332 925 267 1081 332 1017 b 175 774 332 836 267 774 m 175 867 b 233 925 208 867 233 892 b 175 985 233 961 208 985 b 113 925 138 985 113 961 b 175 867 113 892 138 867 "},"˛":{"ha":361,"x_min":0,"x_max":0,"o":"m 172 -340 b 39 -251 108 -340 50 -321 b 156 0 25 -176 69 -85 l 283 1 b 206 -175 218 -87 201 -147 b 235 -200 210 -190 221 -200 b 258 -193 242 -200 250 -199 b 290 -201 272 -183 283 -187 l 313 -256 b 311 -290 321 -272 319 -282 b 172 -340 275 -324 222 -340 "},"˜":{"ha":435,"x_min":0,"x_max":0,"o":"m 29 822 b -1 853 7 822 -1 832 b 119 1015 -1 978 42 1015 b 296 944 217 1015 246 944 b 319 985 311 944 319 956 b 347 1015 319 1006 325 1015 l 404 1015 b 436 985 429 1015 436 1006 b 313 822 436 861 396 822 b 140 892 224 822 192 892 b 117 851 125 892 117 882 b 88 822 117 831 108 822 l 29 822 "},"˝":{"ha":560,"x_min":0,"x_max":0,"o":"m 86 813 b 69 863 51 824 53 839 l 154 988 b 240 1022 176 1019 201 1032 l 303 1003 b 318 946 338 990 343 971 l 178 825 b 118 804 151 804 140 796 m 317 807 b 300 857 282 815 282 835 l 396 988 b 482 1021 418 1019 443 1032 l 549 1001 b 564 944 583 989 590 967 l 407 818 b 349 797 382 797 371 789 "},"̀":{"ha":0,"x_min":0,"x_max":0,"o":"m -333 903 b -340 958 -365 915 -364 929 l -293 1014 b -201 1017 -267 1046 -233 1036 l -6 901 b -3 849 19 888 18 875 l -28 817 b -92 814 -42 799 -60 803 "},"́":{"ha":0,"x_min":0,"x_max":0,"o":"m -253 814 b -317 817 -285 803 -303 799 l -342 849 b -339 901 -362 875 -364 888 l -143 1017 b -51 1014 -111 1036 -78 1046 l -4 958 b -11 903 19 929 21 915 l -253 814 "},"̂":{"ha":0,"x_min":0,"x_max":0,"o":"m -501 808 b -525 850 -544 808 -544 829 l -393 983 b -296 1025 -356 1022 -346 1025 l -274 1025 b -182 983 -233 1025 -222 1024 l -51 850 b -74 808 -31 829 -32 808 l -154 808 b -236 836 -197 808 -214 811 l -290 899 l -350 838 b -429 808 -375 810 -386 808 l -501 808 "},"̃":{"ha":0,"x_min":0,"x_max":0,"o":"m -406 822 b -436 853 -428 822 -436 832 b -315 1015 -436 978 -393 1015 b -139 944 -218 1015 -189 944 b -115 985 -124 944 -115 956 b -87 1015 -115 1006 -110 1015 l -31 1015 b 1 985 -6 1015 1 1006 b -122 822 1 861 -39 822 b -294 892 -211 822 -243 892 b -318 851 -310 892 -318 882 b -347 822 -318 831 -326 822 l -406 822 "},"̄":{"ha":0,"x_min":0,"x_max":0,"o":"m -408 842 b -457 889 -446 842 -457 851 l -457 933 b -408 981 -457 971 -442 981 l -86 981 b -37 933 -47 981 -37 971 l -37 889 b -86 842 -37 851 -47 842 l -408 842 "},"̆":{"ha":0,"x_min":0,"x_max":0,"o":"m -212 808 b -433 949 -318 808 -401 861 b -411 996 -442 974 -436 985 l -342 1022 b -292 1006 -314 1031 -301 1028 b -212 950 -278 969 -249 950 b -133 1006 -176 950 -147 969 b -90 1024 -122 1028 -112 1031 l -11 996 b 11 949 14 985 19 974 b -212 808 -22 861 -104 808 "},"̇":{"ha":0,"x_min":0,"x_max":0,"o":"m -190 813 b -265 900 -249 813 -265 829 l -265 922 b -190 1011 -265 990 -247 1011 l -124 1011 b -49 922 -65 1011 -49 990 l -49 900 b -124 813 -49 829 -65 813 l -190 813 "},"̈":{"ha":0,"x_min":0,"x_max":0,"o":"m -450 814 b -536 900 -517 814 -536 836 l -536 915 b -450 1001 -536 979 -517 1001 l -440 1001 b -353 915 -374 1001 -353 979 l -353 900 b -440 814 -353 836 -374 814 l -450 814 m -176 814 b -264 900 -243 814 -264 836 l -264 915 b -176 1001 -264 979 -243 1001 l -167 1001 b -81 915 -100 1001 -81 979 l -81 900 b -167 814 -81 836 -100 814 l -176 814 "},"̊":{"ha":0,"x_min":0,"x_max":0,"o":"m -169 774 b -331 925 -264 774 -331 835 b -169 1081 -331 1017 -264 1081 b -12 925 -78 1081 -12 1017 b -169 774 -12 836 -78 774 m -169 867 b -111 925 -136 867 -111 892 b -169 985 -111 961 -136 985 b -232 925 -207 985 -232 961 b -169 867 -232 892 -207 867 "},"̋":{"ha":0,"x_min":0,"x_max":0,"o":"m -474 813 b -490 863 -508 824 -507 839 l -406 988 b -319 1022 -383 1019 -358 1032 l -257 1003 b -242 946 -222 990 -217 971 l -382 825 b -442 804 -408 804 -419 796 m -243 807 b -260 857 -278 815 -278 835 l -164 988 b -78 1021 -142 1019 -117 1032 l -11 1001 b 4 944 24 989 31 967 l -153 818 b -211 797 -178 797 -189 789 "},"̌":{"ha":0,"x_min":0,"x_max":0,"o":"m -260 806 b -356 849 -307 806 -317 810 l -487 982 b -465 1024 -507 1003 -507 1024 l -389 1024 b -310 994 -346 1024 -335 1021 l -251 933 l -196 994 b -115 1024 -174 1019 -157 1024 l -36 1024 b -14 982 6 1024 6 1003 l -144 849 b -236 806 -185 808 -196 806 l -260 806 "},"̧":{"ha":0,"x_min":0,"x_max":0,"o":"m -210 -340 b -307 -325 -228 -340 -279 -339 b -336 -282 -331 -315 -336 -306 l -337 -232 b -308 -211 -337 -214 -331 -200 b -233 -231 -285 -224 -269 -231 b -178 -193 -192 -231 -178 -211 b -229 -161 -178 -171 -190 -162 l -258 -161 b -279 -122 -285 -161 -290 -150 l -225 0 l -111 0 l -139 -69 l -128 -69 b -12 -203 -54 -69 -4 -129 b -210 -340 -25 -312 -119 -340 "},"̨":{"ha":0,"x_min":0,"x_max":0,"o":"m -189 -340 b -322 -251 -253 -340 -311 -321 b -206 0 -336 -176 -292 -85 l -78 1 b -156 -175 -143 -87 -160 -147 b -126 -200 -151 -190 -140 -200 b -103 -193 -119 -200 -111 -199 b -71 -201 -89 -183 -78 -187 l -49 -256 b -50 -290 -40 -272 -42 -282 b -189 -340 -86 -324 -139 -340 "},"π":{"ha":871,"x_min":0,"x_max":0,"o":"m 656 0 b 588 28 619 -14 603 -10 b 553 221 558 100 553 149 l 553 539 l 372 539 l 372 50 b 325 0 372 13 360 0 l 218 0 b 169 50 182 0 169 13 l 169 539 b 114 521 151 538 144 535 b 50 543 83 507 67 510 l 14 621 b 38 686 -1 654 4 671 b 226 722 99 714 146 722 l 781 722 b 828 672 815 722 828 710 l 828 592 b 781 539 828 553 815 539 l 754 539 l 754 217 b 774 110 754 169 756 151 b 749 36 789 74 783 50 l 656 0 "},"Ё":{"ha":768,"x_min":0,"x_max":0,"o":"m 258 1064 b 172 1150 192 1064 172 1085 l 172 1164 b 258 1250 172 1229 192 1250 l 268 1250 b 356 1164 335 1250 356 1229 l 356 1150 b 268 1064 356 1085 335 1064 l 258 1064 m 543 1064 b 456 1150 476 1064 456 1085 l 456 1164 b 543 1250 456 1229 476 1250 l 553 1250 b 639 1164 619 1250 639 1229 l 639 1150 b 553 1064 639 1085 619 1064 l 543 1064 m 146 0 b 93 56 107 0 93 14 l 93 931 b 146 986 93 972 107 986 l 657 986 b 710 931 697 986 710 972 l 710 843 b 657 786 710 800 697 786 l 310 786 l 310 599 l 593 599 b 644 543 632 599 644 585 l 644 456 b 593 399 644 414 632 399 l 310 399 l 310 200 l 668 200 b 721 143 708 200 721 186 l 721 56 b 668 0 721 14 708 0 l 146 0 "},"А":{"ha":885,"x_min":0,"x_max":0,"o":"m 53 0 b 18 54 14 0 6 18 l 319 940 b 383 986 332 978 347 986 l 501 986 b 565 943 536 986 553 978 l 867 54 b 831 0 879 18 868 0 l 721 0 b 631 50 660 0 642 11 l 594 185 l 282 185 l 244 50 b 157 0 233 11 215 0 l 53 0 m 539 365 l 481 586 b 443 778 461 661 447 739 l 433 778 b 397 588 429 738 418 660 l 339 365 "},"Б":{"ha":842,"x_min":0,"x_max":0,"o":"m 144 0 b 93 53 108 0 93 13 l 93 929 b 146 986 93 972 107 986 l 686 986 b 739 929 726 986 739 972 l 739 846 b 686 789 739 803 726 789 l 310 789 l 310 611 l 497 611 b 800 310 685 611 800 503 b 499 0 800 119 685 0 l 144 0 m 482 194 b 583 310 546 194 583 242 b 482 426 583 381 546 426 l 310 426 l 310 194 "},"В":{"ha":864,"x_min":0,"x_max":0,"o":"m 146 0 b 93 56 107 0 93 14 l 93 929 b 146 986 93 972 107 986 l 490 986 b 778 719 661 986 778 886 b 686 517 778 624 750 564 l 686 513 b 813 274 767 471 813 396 b 511 0 813 99 697 0 l 146 0 m 475 590 b 565 692 529 590 565 621 b 475 793 565 761 529 793 l 310 793 l 310 590 m 499 194 b 597 300 557 194 597 229 b 499 408 597 374 557 408 l 310 408 l 310 194 "},"Г":{"ha":688,"x_min":0,"x_max":0,"o":"m 144 0 b 93 56 107 0 93 14 l 93 931 b 144 986 93 972 107 986 l 613 986 b 664 931 651 986 664 972 l 664 844 b 613 788 664 801 651 788 l 310 788 l 310 56 b 258 0 310 14 297 0 l 144 0 "},"Д":{"ha":979,"x_min":0,"x_max":0,"o":"m 86 -212 b 33 -157 46 -212 33 -199 l 33 144 b 86 200 33 186 46 200 l 107 200 b 215 636 167 243 215 333 l 215 931 b 269 986 215 972 229 986 l 792 986 b 846 931 832 986 846 972 l 846 200 l 897 200 b 950 144 938 200 950 186 l 950 -157 b 897 -212 950 -199 938 -212 l 794 -212 b 740 -157 754 -212 740 -199 l 740 0 l 244 0 l 244 -157 b 192 -212 244 -199 231 -212 l 86 -212 m 629 200 l 629 786 l 424 786 l 424 638 b 343 200 424 417 394 289 "},"Е":{"ha":768,"x_min":0,"x_max":0,"o":"m 146 0 b 93 56 107 0 93 14 l 93 931 b 146 986 93 972 107 986 l 657 986 b 710 931 697 986 710 972 l 710 843 b 657 786 710 800 697 786 l 310 786 l 310 599 l 593 599 b 644 543 632 599 644 585 l 644 456 b 593 399 644 414 632 399 l 310 399 l 310 200 l 668 200 b 721 143 708 200 721 186 l 721 56 b 668 0 721 14 708 0 l 146 0 "},"Ж":{"ha":1249,"x_min":0,"x_max":0,"o":"m 57 0 b 28 58 17 0 14 26 l 188 397 b 275 529 213 453 240 497 l 43 932 b 71 986 26 961 33 986 l 185 986 b 292 939 250 986 269 982 l 471 597 l 504 597 l 515 597 l 515 931 b 569 986 515 972 529 986 l 678 986 b 733 931 719 986 733 972 l 733 597 l 746 597 l 778 597 l 957 939 b 1063 986 979 982 999 986 l 1176 986 b 1206 932 1215 986 1222 961 l 974 529 b 1063 397 1008 497 1036 453 l 1221 58 b 1190 0 1235 26 1232 0 l 1086 0 b 979 50 1018 0 997 8 l 863 319 b 751 401 835 386 813 401 l 733 401 l 733 56 b 678 0 733 14 719 0 l 569 0 b 515 56 529 0 515 14 l 515 401 l 499 401 b 386 319 436 401 415 386 l 269 50 b 163 0 251 8 231 0 l 57 0 "},"З":{"ha":850,"x_min":0,"x_max":0,"o":"m 436 -21 b 47 211 225 -21 100 63 b 81 282 33 250 43 269 l 181 317 b 247 281 218 329 233 322 b 432 178 271 213 332 178 b 565 296 532 178 565 225 b 454 403 565 360 531 403 l 333 403 b 281 458 293 403 281 417 l 281 540 b 333 596 281 582 293 596 l 443 596 b 544 701 508 596 544 626 b 419 808 544 772 501 808 b 249 707 328 808 274 776 b 181 672 235 667 221 658 l 90 703 b 58 775 53 717 44 736 b 428 1007 110 924 215 1007 b 764 721 639 1007 764 903 b 665 515 764 624 736 563 b 796 278 771 463 796 375 b 436 -21 796 96 678 -21 "},"И":{"ha":932,"x_min":0,"x_max":0,"o":"m 146 0 b 93 56 107 0 93 14 l 93 931 b 146 986 93 972 107 986 l 258 986 b 310 931 297 986 310 972 l 310 604 b 281 283 310 478 307 406 l 290 283 b 394 560 324 400 342 461 l 607 960 b 657 986 617 979 628 986 l 786 986 b 839 931 826 986 839 972 l 839 56 b 786 0 839 14 826 0 l 675 0 b 622 57 636 0 622 14 l 622 382 b 654 703 622 507 628 582 l 644 703 b 540 431 607 579 588 522 l 324 26 b 272 0 313 7 299 0 l 146 0 "},"Й":{"ha":921,"x_min":0,"x_max":0,"o":"m 475 1049 b 225 1197 354 1049 260 1104 b 250 1246 215 1224 222 1236 l 329 1275 b 386 1257 361 1283 374 1281 b 475 1197 401 1219 435 1197 b 565 1257 517 1197 549 1219 b 615 1275 578 1281 588 1283 l 703 1246 b 729 1197 732 1235 739 1224 b 475 1049 692 1104 597 1049 m 146 0 b 93 56 107 0 93 14 l 93 931 b 146 986 93 972 107 986 l 258 986 b 310 931 297 986 310 972 l 310 604 b 281 283 310 478 307 406 l 290 283 b 394 560 324 400 342 461 l 607 960 b 657 986 617 979 628 986 l 786 986 b 839 931 826 986 839 972 l 839 56 b 786 0 839 14 826 0 l 675 0 b 622 57 636 0 622 14 l 622 382 b 654 703 622 507 628 582 l 644 703 b 540 431 607 579 588 522 l 324 26 b 272 0 313 7 299 0 l 146 0 "},"К":{"ha":846,"x_min":0,"x_max":0,"o":"m 146 0 b 93 56 107 0 93 14 l 93 931 b 146 986 93 972 107 986 l 258 986 b 310 931 297 986 310 972 l 310 597 l 351 597 l 364 597 l 560 939 b 651 986 583 981 596 986 l 774 986 b 803 932 810 986 819 961 l 561 547 b 660 397 601 517 628 465 l 818 58 b 786 0 832 25 826 0 l 671 0 b 583 50 613 0 601 7 l 467 317 b 365 401 439 382 425 401 l 310 401 l 310 56 b 258 0 310 14 297 0 l 146 0 "},"Л":{"ha":901,"x_min":0,"x_max":0,"o":"m 147 -11 b 75 15 110 -29 94 -22 l 21 108 b 43 183 -1 144 8 163 b 189 621 140 239 186 264 l 192 931 b 244 986 192 972 204 986 l 756 986 b 808 931 794 986 808 972 l 808 56 b 756 0 808 14 794 0 l 643 0 b 590 56 604 0 590 14 l 590 786 l 399 786 l 399 622 b 147 -11 399 179 299 65 "},"М":{"ha":1090,"x_min":0,"x_max":0,"o":"m 146 0 b 93 56 107 0 93 14 l 93 931 b 146 986 93 972 107 986 l 244 986 b 318 944 288 986 303 978 l 543 454 l 768 943 b 838 986 785 979 797 986 l 943 986 b 997 931 985 986 997 972 l 997 56 b 943 0 997 14 985 0 l 842 0 b 789 56 801 0 789 14 l 789 389 b 825 693 789 472 793 560 l 814 693 b 718 432 783 589 754 510 l 636 256 b 576 217 622 226 610 217 l 507 217 b 447 256 475 217 463 224 l 364 432 b 274 693 325 511 301 583 l 263 693 b 297 388 292 557 297 479 l 297 56 b 246 0 297 14 285 0 l 146 0 "},"Н":{"ha":914,"x_min":0,"x_max":0,"o":"m 146 0 b 93 56 107 0 93 14 l 93 929 b 146 986 93 972 107 986 l 258 986 b 310 929 297 986 310 972 l 310 599 l 604 599 l 604 929 b 657 986 604 972 617 986 l 768 986 b 821 929 807 986 821 972 l 821 56 b 768 0 821 14 807 0 l 657 0 b 604 56 617 0 604 14 l 604 400 l 310 400 l 310 56 b 258 0 310 14 297 0 l 146 0 "},"О":{"ha":893,"x_min":0,"x_max":0,"o":"m 446 -21 b 67 350 203 -21 67 121 l 67 636 b 446 1007 67 865 203 1007 b 826 636 690 1007 826 865 l 826 350 b 446 -21 826 121 690 -21 m 446 179 b 610 346 553 179 610 236 l 610 640 b 446 807 610 750 553 807 b 283 640 339 807 283 750 l 283 346 b 446 179 283 236 339 179 "},"П":{"ha":907,"x_min":0,"x_max":0,"o":"m 146 0 b 93 56 107 0 93 14 l 93 931 b 146 986 93 972 107 986 l 761 986 b 814 931 801 986 814 972 l 814 56 b 761 0 814 14 801 0 l 650 0 b 597 56 610 0 597 14 l 597 786 l 310 786 l 310 56 b 258 0 310 14 297 0 l 146 0 "},"Р":{"ha":843,"x_min":0,"x_max":0,"o":"m 146 0 b 93 56 107 0 93 14 l 93 931 b 146 986 93 972 107 986 l 482 986 b 803 654 675 986 803 863 b 483 325 803 449 678 325 l 310 325 l 310 56 b 258 0 310 14 297 0 l 146 0 m 471 525 b 585 656 543 525 585 574 b 471 786 585 736 543 786 l 310 786 l 310 525 "},"С":{"ha":849,"x_min":0,"x_max":0,"o":"m 444 -21 b 67 350 203 -21 67 121 l 67 636 b 444 1007 67 865 203 1007 b 804 775 635 1007 751 924 b 771 704 818 736 807 715 l 668 672 b 601 708 629 660 615 667 b 446 807 579 776 528 807 b 283 638 335 807 283 751 l 283 349 b 444 179 283 236 333 181 b 599 279 524 178 575 211 b 665 317 613 321 628 329 l 772 282 b 804 211 808 271 817 250 b 444 -21 754 63 635 -21 "},"Т":{"ha":756,"x_min":0,"x_max":0,"o":"m 322 0 b 269 54 283 0 269 13 l 269 786 l 78 786 b 25 843 38 786 25 800 l 25 931 b 78 986 25 972 38 986 l 678 986 b 731 931 718 986 731 972 l 731 843 b 678 786 731 800 718 786 l 486 786 l 486 54 b 433 0 486 13 472 0 l 322 0 "},"У":{"ha":817,"x_min":0,"x_max":0,"o":"m 218 0 b 190 56 179 0 176 24 l 293 292 l 17 931 b 46 986 1 964 7 986 l 154 986 b 251 938 217 986 233 986 l 407 532 l 574 938 b 657 986 590 979 597 986 l 771 986 b 797 931 807 986 811 964 l 431 49 b 343 0 413 8 399 0 l 218 0 "},"Ф":{"ha":1114,"x_min":0,"x_max":0,"o":"m 503 -31 b 450 26 463 -31 450 -17 l 450 90 l 401 90 b 42 446 167 90 42 222 l 42 547 b 401 903 42 771 167 903 l 450 903 l 450 965 b 503 1021 450 1007 463 1021 l 611 1021 b 664 965 651 1021 664 1007 l 664 903 l 713 903 b 1072 547 947 903 1072 771 l 1072 446 b 713 90 1072 222 947 90 l 664 90 l 664 26 b 611 -31 664 -17 651 -31 l 503 -31 m 450 283 l 450 710 l 406 710 b 258 556 306 710 258 660 l 258 438 b 406 283 258 333 306 283 m 707 283 b 856 438 807 283 856 333 l 856 556 b 707 710 856 660 807 710 l 663 710 l 663 283 "},"Х":{"ha":858,"x_min":0,"x_max":0,"o":"m 56 0 b 29 56 18 0 11 25 l 290 506 l 42 933 b 67 986 24 961 32 986 l 190 986 b 290 939 253 986 268 983 l 429 672 l 568 939 b 657 986 589 982 601 986 l 793 986 b 818 933 828 986 835 961 l 564 507 l 831 56 b 804 0 849 26 842 0 l 669 0 b 576 50 608 0 600 4 l 424 342 l 281 50 b 192 0 258 4 247 0 l 56 0 "},"Ц":{"ha":953,"x_min":0,"x_max":0,"o":"m 765 -212 b 713 -157 725 -212 713 -199 l 713 0 l 147 0 b 93 56 107 0 93 14 l 93 931 b 147 986 93 972 107 986 l 258 986 b 310 931 297 986 310 972 l 310 200 l 600 200 l 600 931 b 653 986 600 972 613 986 l 763 986 b 817 931 803 986 817 972 l 817 200 l 867 200 b 921 144 907 200 921 186 l 921 -157 b 867 -212 921 -199 907 -212 l 765 -212 "},"Ч":{"ha":860,"x_min":0,"x_max":0,"o":"m 601 0 b 549 56 561 0 549 14 l 549 363 b 396 349 522 357 468 349 b 53 696 149 349 53 474 l 53 931 b 106 986 53 972 65 986 l 217 986 b 269 931 257 986 269 972 l 269 696 b 422 550 269 592 314 550 b 549 568 483 550 529 561 l 549 931 b 601 986 549 972 561 986 l 713 986 b 765 931 753 986 765 972 l 765 56 b 713 0 765 14 753 0 l 601 0 "},"Ш":{"ha":1256,"x_min":0,"x_max":0,"o":"m 147 0 b 93 56 107 0 93 14 l 93 931 b 147 986 93 972 107 986 l 257 986 b 310 931 297 986 310 972 l 310 200 l 521 200 l 521 931 b 575 986 521 972 535 986 l 682 986 b 736 931 722 986 736 972 l 736 200 l 946 200 l 946 931 b 999 986 946 972 958 986 l 1108 986 b 1163 931 1149 986 1163 972 l 1163 56 b 1108 0 1163 14 1149 0 l 147 0 "},"Щ":{"ha":1304,"x_min":0,"x_max":0,"o":"m 1119 -212 b 1064 -157 1078 -212 1064 -199 l 1064 0 l 147 0 b 93 56 107 0 93 14 l 93 931 b 147 986 93 972 107 986 l 257 986 b 310 931 297 986 310 972 l 310 200 l 524 200 l 524 931 b 578 986 524 972 538 986 l 685 986 b 739 931 725 986 739 972 l 739 200 l 951 200 l 951 931 b 1004 986 951 972 965 986 l 1114 986 b 1168 931 1154 986 1168 972 l 1168 200 l 1218 200 b 1271 144 1257 200 1271 186 l 1271 -157 b 1218 -212 1271 -199 1257 -212 l 1119 -212 "},"Ъ":{"ha":989,"x_min":0,"x_max":0,"o":"m 282 0 b 228 56 242 0 228 14 l 228 786 l 79 786 b 26 843 39 786 26 800 l 26 931 b 79 986 26 972 39 986 l 392 986 b 444 931 431 986 444 972 l 444 660 l 625 660 b 949 331 822 660 949 538 b 624 0 949 124 821 0 l 282 0 m 615 200 b 732 331 690 200 732 250 b 615 461 732 413 690 461 l 444 461 l 444 200 "},"Ы":{"ha":1235,"x_min":0,"x_max":0,"o":"m 147 0 b 93 56 107 0 93 14 l 93 931 b 147 986 93 972 107 986 l 257 986 b 310 931 297 986 310 972 l 310 658 l 492 658 b 817 332 690 658 817 539 b 492 0 817 125 689 0 l 147 0 m 976 0 b 925 56 938 0 925 14 l 925 931 b 976 986 925 972 938 986 l 1089 986 b 1142 931 1129 986 1142 972 l 1142 56 b 1089 0 1142 14 1129 0 l 976 0 m 481 200 b 601 332 558 200 601 250 b 481 463 601 414 557 463 l 310 463 l 310 200 "},"Ь":{"ha":843,"x_min":0,"x_max":0,"o":"m 146 0 b 93 56 107 0 93 14 l 93 931 b 146 986 93 972 107 986 l 258 986 b 310 931 297 986 310 972 l 310 660 l 483 660 b 801 331 679 660 801 538 b 482 0 801 124 676 0 l 146 0 m 474 200 b 585 331 546 200 585 250 b 474 461 585 413 544 461 l 310 461 l 310 200 "},"Э":{"ha":854,"x_min":0,"x_max":0,"o":"m 410 -21 b 50 211 219 -21 100 61 b 82 283 38 250 46 271 l 186 318 b 253 281 222 331 239 322 b 410 179 275 213 332 179 b 571 349 518 179 571 236 l 571 400 l 329 400 b 276 456 290 400 276 414 l 276 542 b 329 599 276 583 290 599 l 571 599 l 571 638 b 410 807 571 751 518 807 b 249 707 333 807 272 776 b 182 671 235 665 219 658 l 85 703 b 50 775 47 715 36 736 b 410 1007 101 924 219 1007 b 788 636 653 1007 788 865 l 788 350 b 410 -21 788 121 653 -21 "},"Ю":{"ha":1269,"x_min":0,"x_max":0,"o":"m 825 -21 b 450 347 588 -21 450 121 l 450 400 l 310 400 l 310 56 b 257 0 310 14 296 0 l 147 0 b 93 56 107 0 93 14 l 93 931 b 147 986 93 972 107 986 l 257 986 b 310 931 296 986 310 972 l 310 599 l 450 599 l 450 642 b 825 1007 450 868 588 1007 b 1203 636 1069 1007 1203 865 l 1203 350 b 825 -21 1203 121 1069 -21 m 826 179 b 986 346 932 179 986 236 l 986 640 b 826 807 986 750 932 807 b 664 640 718 807 664 750 l 664 346 b 826 179 664 236 718 179 "},"Я":{"ha":867,"x_min":0,"x_max":0,"o":"m 88 0 b 56 58 47 0 40 24 l 182 338 b 222 396 190 357 203 379 b 78 668 131 443 78 533 b 389 986 78 869 201 986 l 719 986 b 772 931 760 986 772 972 l 772 56 b 719 0 772 14 760 0 l 608 0 b 556 56 568 0 556 14 l 556 354 l 496 354 b 383 269 431 354 413 338 l 292 50 b 188 0 272 8 254 0 l 88 0 m 556 553 l 556 786 l 394 786 b 294 669 332 786 294 744 b 394 553 294 594 332 553 "},"а":{"ha":686,"x_min":0,"x_max":0,"o":"m 333 -21 b 44 208 128 -21 44 49 b 336 433 44 369 128 433 b 419 429 360 433 404 431 l 419 475 b 333 571 419 549 396 571 b 236 517 286 571 256 553 b 169 494 218 486 203 478 l 101 524 b 75 596 68 539 57 557 b 336 743 119 688 201 743 b 619 464 550 743 619 635 l 619 96 b 574 15 619 47 610 32 b 333 -21 526 -7 443 -21 m 325 139 b 413 144 363 139 399 142 b 419 156 418 146 419 149 l 419 278 b 328 281 394 279 353 281 b 243 208 269 281 243 258 b 325 139 243 161 268 139 "},"б":{"ha":732,"x_min":0,"x_max":0,"o":"m 374 -21 b 72 268 176 -21 72 89 l 72 593 b 429 1013 72 869 169 1013 l 468 1013 b 556 1028 506 1013 538 1019 b 622 994 593 1046 607 1033 l 647 926 b 621 856 663 889 653 872 b 479 829 582 835 547 829 l 432 829 b 265 651 318 829 265 782 l 265 639 b 413 701 288 668 340 701 b 678 419 581 701 678 600 l 678 268 b 374 -21 678 89 575 -21 m 374 160 b 476 268 446 160 476 199 l 476 413 b 374 521 476 483 446 521 b 274 413 303 521 274 483 l 274 268 b 374 160 274 199 303 160 "},"в":{"ha":704,"x_min":0,"x_max":0,"o":"m 125 0 b 78 50 89 0 78 13 l 78 672 b 125 722 78 710 89 722 l 428 722 b 632 518 560 722 632 639 b 574 376 632 458 617 411 b 658 207 632 339 658 281 b 444 0 658 82 575 0 l 125 0 m 389 444 b 439 503 421 444 439 469 b 389 560 439 536 421 560 l 278 560 l 278 444 m 400 161 b 457 228 436 161 457 190 b 400 292 457 265 436 292 l 278 292 l 278 161 "},"г":{"ha":546,"x_min":0,"x_max":0,"o":"m 124 0 b 78 50 89 0 78 13 l 78 672 b 124 722 78 710 89 722 l 479 722 b 525 672 513 722 525 710 l 525 589 b 479 538 525 550 513 538 l 279 538 l 279 50 b 233 0 279 13 267 0 l 124 0 "},"д":{"ha":822,"x_min":0,"x_max":0,"o":"m 86 -193 b 38 -143 50 -193 38 -181 l 38 129 b 86 182 38 169 50 182 l 104 182 b 171 468 136 213 171 275 l 171 672 b 219 722 171 710 183 722 l 660 722 b 708 672 696 722 708 710 l 708 182 l 747 182 b 794 129 783 182 794 169 l 794 -143 b 747 -193 794 -181 783 -193 l 651 -193 b 601 -143 615 -193 601 -181 l 601 -3 l 232 -3 l 232 -143 b 182 -193 232 -181 219 -193 l 86 -193 m 507 182 l 507 538 l 364 538 l 364 458 b 315 182 364 328 347 242 "},"е":{"ha":700,"x_min":0,"x_max":0,"o":"m 356 -21 b 54 285 140 -21 54 110 l 54 438 b 356 743 54 636 163 743 b 654 453 563 743 654 611 l 654 365 b 588 297 654 324 638 297 l 254 297 l 254 261 b 358 147 254 183 290 147 b 464 203 414 147 444 165 b 532 222 482 236 496 242 l 601 188 b 624 107 636 169 644 144 b 356 -21 579 26 490 -21 m 456 446 l 456 468 b 356 579 456 542 425 579 b 254 468 286 579 254 542 l 254 446 "},"ж":{"ha":990,"x_min":0,"x_max":0,"o":"m 71 0 b 38 61 22 0 17 18 l 143 304 b 196 397 161 344 176 376 l 47 663 b 82 722 24 703 35 722 l 167 722 b 257 682 221 722 239 718 l 369 457 l 381 457 l 396 457 l 396 671 b 444 722 396 710 407 722 l 544 722 b 594 671 582 722 594 710 l 594 457 l 608 457 l 619 457 l 731 682 b 821 722 749 718 767 722 l 903 722 b 940 663 953 722 963 701 l 794 397 b 846 304 813 376 828 344 l 953 61 b 917 0 972 18 967 0 l 832 0 b 743 47 775 0 758 6 l 679 218 b 608 276 664 258 644 276 l 594 276 l 594 53 b 544 0 594 13 582 0 l 444 0 b 396 53 407 0 396 13 l 396 276 l 382 276 b 311 218 344 276 326 258 l 249 47 b 161 0 233 6 217 0 l 71 0 "},"з":{"ha":679,"x_min":0,"x_max":0,"o":"m 347 -21 b 39 161 183 -21 83 47 b 71 235 24 203 35 225 l 147 257 b 213 225 188 269 200 263 b 340 151 228 181 265 151 b 429 222 406 151 429 176 b 364 283 429 261 407 283 l 282 283 b 239 333 250 283 239 296 l 239 393 b 282 443 239 431 250 443 l 361 443 b 422 504 396 443 422 463 b 343 572 422 544 400 572 b 219 501 274 572 235 546 b 157 467 207 464 197 454 l 83 490 b 54 564 47 503 42 524 b 340 743 88 667 179 743 b 614 519 525 743 614 664 b 536 374 614 468 593 400 l 536 371 b 629 201 604 336 629 275 b 347 -21 629 53 546 -21 "},"и":{"ha":744,"x_min":0,"x_max":0,"o":"m 125 0 b 78 50 89 0 78 13 l 78 672 b 125 722 78 710 89 722 l 232 722 b 279 672 268 722 279 710 l 279 486 b 246 263 279 401 268 343 l 254 263 b 313 417 276 335 289 369 l 451 696 b 499 722 461 717 475 722 l 619 722 b 667 672 656 722 667 710 l 667 50 b 619 0 667 13 656 0 l 513 0 b 465 50 476 0 465 13 l 465 236 b 501 458 465 335 479 392 l 492 458 b 426 296 471 396 453 351 l 292 26 b 243 0 281 6 267 0 l 125 0 "},"й":{"ha":733,"x_min":0,"x_max":0,"o":"m 379 808 b 158 949 272 808 190 861 b 181 996 150 975 156 986 l 250 1022 b 300 1006 278 1031 290 1028 b 379 950 314 971 343 950 b 458 1006 415 950 444 971 b 501 1024 469 1028 478 1031 l 579 996 b 601 949 604 985 611 975 b 379 808 569 861 486 808 m 125 0 b 78 50 89 0 78 13 l 78 672 b 125 722 78 710 89 722 l 232 722 b 279 672 268 722 279 710 l 279 486 b 246 263 279 401 268 343 l 254 263 b 313 417 276 335 289 369 l 451 696 b 499 722 461 717 475 722 l 619 722 b 667 672 656 722 667 710 l 667 50 b 619 0 667 13 656 0 l 513 0 b 465 50 476 0 465 13 l 465 236 b 501 458 465 335 479 392 l 492 458 b 426 296 471 396 453 351 l 292 26 b 243 0 281 6 267 0 l 125 0 "},"к":{"ha":699,"x_min":0,"x_max":0,"o":"m 126 0 b 79 53 90 0 79 13 l 79 671 b 126 722 79 710 90 722 l 233 722 b 281 671 268 722 281 710 l 281 457 l 318 457 l 324 457 l 444 682 b 531 722 464 719 479 722 l 618 722 b 654 663 665 722 676 700 l 503 413 b 563 307 525 389 542 354 l 665 61 b 628 0 685 18 676 0 l 539 0 b 454 47 486 0 469 7 l 390 218 b 329 276 374 258 361 276 l 281 276 l 281 53 b 233 0 281 13 268 0 l 126 0 "},"л":{"ha":722,"x_min":0,"x_max":0,"o":"m 126 -15 b 67 11 100 -28 82 -17 l 14 104 b 31 163 -3 131 6 149 b 126 461 78 190 126 207 l 126 672 b 174 722 126 710 138 722 l 596 722 b 643 672 632 722 643 710 l 643 50 b 596 0 643 13 632 0 l 490 0 b 443 50 454 0 443 13 l 443 538 l 318 538 l 318 442 b 126 -15 318 96 219 33 "},"м":{"ha":882,"x_min":0,"x_max":0,"o":"m 125 0 b 78 50 86 0 78 10 l 78 668 b 131 722 78 708 88 722 l 235 722 b 301 682 272 722 288 714 l 440 367 l 579 681 b 643 722 593 711 604 722 l 753 722 b 804 668 796 722 804 708 l 804 50 b 757 0 804 11 793 0 l 664 0 b 615 51 626 0 615 11 l 615 233 b 647 454 615 290 622 365 l 639 454 b 575 306 611 386 596 351 l 522 194 b 465 158 508 167 496 158 l 414 158 b 357 196 383 158 371 167 l 307 307 b 243 454 286 354 269 386 l 233 454 b 265 232 256 364 265 289 l 265 51 b 217 0 265 11 251 0 l 125 0 "},"н":{"ha":733,"x_min":0,"x_max":0,"o":"m 125 0 b 78 50 89 0 78 13 l 78 672 b 125 722 78 710 89 722 l 232 722 b 279 672 267 722 279 710 l 279 458 l 454 458 l 454 672 b 501 722 454 710 467 722 l 608 722 b 656 672 644 722 656 710 l 656 50 b 608 0 656 13 644 0 l 501 0 b 454 50 467 0 454 13 l 454 275 l 279 275 l 279 50 b 232 0 279 13 267 0 l 125 0 "},"о":{"ha":718,"x_min":0,"x_max":0,"o":"m 358 -21 b 56 268 161 -21 56 89 l 56 453 b 358 743 56 632 161 743 b 663 453 558 743 663 632 l 663 268 b 358 -21 663 89 558 -21 m 358 160 b 461 268 426 160 461 199 l 461 454 b 358 563 461 526 426 563 b 257 454 292 563 257 526 l 257 268 b 358 160 257 199 292 160 "},"п":{"ha":728,"x_min":0,"x_max":0,"o":"m 125 0 b 78 50 89 0 78 13 l 78 672 b 125 722 78 710 89 722 l 604 722 b 650 672 639 722 650 710 l 650 50 b 604 0 650 13 639 0 l 496 0 b 450 50 463 0 450 13 l 450 538 l 279 538 l 279 50 b 232 0 279 13 267 0 l 125 0 "},"р":{"ha":722,"x_min":0,"x_max":0,"o":"m 122 -306 b 76 -254 88 -306 76 -293 l 76 619 b 122 697 76 664 82 676 b 363 743 168 719 256 743 b 665 444 568 743 665 639 l 665 264 b 386 -21 665 83 578 -21 b 278 -6 350 -21 307 -14 l 278 -254 b 231 -306 278 -293 267 -306 l 122 -306 m 363 161 b 464 268 433 161 464 197 l 464 443 b 357 561 464 525 435 561 b 281 550 332 561 300 560 b 278 543 278 549 278 544 l 278 174 b 363 161 306 164 333 161 "},"с":{"ha":679,"x_min":0,"x_max":0,"o":"m 346 -21 b 56 265 144 -21 56 85 l 56 456 b 360 743 56 635 151 743 b 633 560 511 743 601 663 b 601 489 646 519 636 500 l 519 463 b 451 500 481 451 465 460 b 351 568 435 544 406 568 b 257 461 286 568 257 531 l 257 261 b 349 154 257 192 285 154 b 447 226 403 154 431 181 b 514 261 461 265 476 272 l 604 235 b 635 161 639 224 650 203 b 346 -21 592 47 501 -21 "},"т":{"ha":607,"x_min":0,"x_max":0,"o":"m 250 0 b 203 50 214 0 203 13 l 203 538 l 71 538 b 24 589 35 538 24 550 l 24 672 b 71 722 24 710 35 722 l 536 722 b 583 672 572 722 583 710 l 583 589 b 536 538 583 550 572 538 l 404 538 l 404 50 b 357 0 404 13 393 0 l 250 0 "},"у":{"ha":733,"x_min":0,"x_max":0,"o":"m 365 -321 b 93 -192 226 -321 142 -274 b 114 -112 71 -154 79 -129 l 192 -74 b 263 -94 228 -56 243 -61 b 361 -144 281 -129 318 -144 b 454 -32 426 -144 454 -110 l 454 31 b 346 21 426 25 390 21 b 72 306 158 21 72 126 l 72 672 b 118 722 72 710 83 722 l 226 722 b 274 672 261 722 274 710 l 274 313 b 372 204 274 238 300 204 b 454 214 407 204 433 208 l 454 672 b 500 722 454 710 465 722 l 608 722 b 656 672 643 722 656 710 l 656 -14 b 365 -321 656 -194 575 -321 "},"ф":{"ha":989,"x_min":0,"x_max":0,"o":"m 442 -306 b 394 -256 406 -306 394 -293 l 394 -18 b 351 -21 381 -19 365 -21 b 54 294 150 -21 54 93 l 54 426 b 351 743 54 629 150 743 b 394 740 365 743 381 742 l 394 976 b 442 1026 394 1014 406 1026 l 547 1026 b 596 976 583 1026 596 1014 l 596 740 b 638 743 610 742 624 743 b 935 426 840 743 935 629 l 935 294 b 638 -21 935 93 840 -21 b 596 -18 624 -21 610 -19 l 596 -256 b 547 -306 596 -293 583 -306 l 442 -306 m 363 161 b 399 163 376 161 386 161 l 399 560 b 363 561 386 560 376 561 b 254 425 286 561 254 517 l 254 297 b 363 161 254 206 286 161 m 626 161 b 735 297 703 161 735 206 l 735 425 b 626 561 735 517 703 561 b 590 560 613 561 603 560 l 590 163 b 626 161 603 161 614 161 "},"х":{"ha":683,"x_min":0,"x_max":0,"o":"m 69 0 b 35 60 14 0 11 19 l 210 369 l 43 663 b 79 722 22 697 25 722 l 178 722 b 260 679 228 722 243 715 l 343 506 l 424 678 b 501 722 442 718 453 722 l 608 722 b 639 663 656 722 663 701 l 476 372 l 651 60 b 617 0 674 19 668 0 l 514 0 b 432 43 464 0 451 4 l 340 236 l 254 43 b 172 0 236 4 221 0 l 69 0 "},"ц":{"ha":768,"x_min":0,"x_max":0,"o":"m 596 -193 b 546 -143 560 -193 546 -181 l 546 0 l 125 0 b 78 50 89 0 78 13 l 78 672 b 125 722 78 710 89 722 l 231 722 b 279 672 267 722 279 710 l 279 185 l 456 185 l 456 672 b 503 722 456 710 468 722 l 611 722 b 657 672 646 722 657 710 l 657 185 l 693 185 b 740 132 729 185 740 172 l 740 -143 b 693 -193 740 -181 729 -193 l 596 -193 "},"ч":{"ha":686,"x_min":0,"x_max":0,"o":"m 454 0 b 407 50 418 0 407 13 l 407 238 b 289 228 378 232 350 228 b 42 508 119 228 42 331 l 42 672 b 89 722 42 710 54 722 l 196 722 b 243 672 232 722 243 710 l 243 517 b 332 410 243 443 263 410 b 407 422 371 410 397 418 l 407 672 b 454 722 407 710 418 722 l 561 722 b 608 672 597 722 608 710 l 608 50 b 561 0 608 13 597 0 l 454 0 "},"ш":{"ha":1036,"x_min":0,"x_max":0,"o":"m 125 0 b 78 50 89 0 78 13 l 78 672 b 125 722 78 710 89 722 l 232 722 b 279 672 267 722 279 710 l 279 185 l 418 185 l 418 672 b 465 722 418 710 429 722 l 569 722 b 617 672 606 722 617 710 l 617 185 l 757 185 l 757 672 b 804 722 757 710 768 722 l 911 722 b 958 672 947 722 958 710 l 958 50 b 911 0 958 13 947 0 l 125 0 "},"щ":{"ha":1078,"x_min":0,"x_max":0,"o":"m 907 -193 b 856 -143 869 -193 856 -181 l 856 0 l 125 0 b 78 50 90 0 78 13 l 78 672 b 125 722 78 710 90 722 l 231 722 b 279 672 267 722 279 710 l 279 185 l 422 185 l 422 672 b 469 722 422 710 433 722 l 574 722 b 622 672 611 722 622 710 l 622 185 l 765 185 l 765 672 b 814 722 765 710 778 722 l 918 722 b 967 672 954 722 967 710 l 967 185 l 1003 185 b 1051 132 1039 185 1051 172 l 1051 -143 b 1003 -193 1051 -181 1039 -193 l 907 -193 "},"ъ":{"ha":797,"x_min":0,"x_max":0,"o":"m 224 0 b 176 50 188 0 176 13 l 176 539 l 72 539 b 25 590 36 539 25 551 l 25 672 b 72 722 25 710 36 722 l 331 722 b 378 672 367 722 378 710 l 378 525 l 507 525 b 763 264 665 525 763 428 b 507 0 763 99 665 0 l 224 0 m 486 176 b 561 264 533 176 561 214 b 486 350 561 315 533 350 l 378 350 l 378 176 "},"ы":{"ha":983,"x_min":0,"x_max":0,"o":"m 125 0 b 78 50 89 0 78 13 l 78 672 b 125 722 78 710 89 722 l 232 722 b 279 672 267 722 279 710 l 279 525 l 404 525 b 654 264 558 525 654 428 b 404 0 654 99 558 0 l 125 0 m 751 0 b 704 50 717 0 704 13 l 704 672 b 751 722 704 710 717 722 l 858 722 b 906 672 894 722 906 710 l 906 50 b 858 0 906 13 894 0 l 751 0 m 382 176 b 453 264 426 176 453 214 b 382 350 453 315 425 350 l 279 350 l 279 176 "},"ь":{"ha":685,"x_min":0,"x_max":0,"o":"m 125 0 b 78 50 89 0 78 13 l 78 672 b 125 722 78 710 89 722 l 232 722 b 279 672 267 722 279 710 l 279 525 l 401 525 b 650 264 556 525 650 428 b 401 0 650 99 556 0 l 125 0 m 379 176 b 449 264 425 176 449 214 b 379 350 449 315 424 350 l 279 350 l 279 176 "},"э":{"ha":672,"x_min":0,"x_max":0,"o":"m 331 -21 b 43 163 176 -21 88 47 b 76 236 28 204 39 225 l 158 260 b 222 226 196 271 210 265 b 322 156 238 181 269 156 b 414 258 390 156 414 188 l 414 279 l 285 281 b 242 329 253 281 242 293 l 242 399 b 285 449 242 436 253 449 l 414 449 l 414 464 b 322 568 414 535 389 568 b 221 500 271 568 238 544 b 157 464 207 461 194 453 l 82 486 b 50 560 46 497 38 518 b 318 743 82 661 168 743 b 617 453 525 743 617 633 l 617 269 b 331 -21 617 88 531 -21 "},"ю":{"ha":1021,"x_min":0,"x_max":0,"o":"m 661 -21 b 363 261 471 -21 364 85 l 363 275 l 279 275 l 279 50 b 232 0 279 13 267 0 l 124 0 b 78 50 89 0 78 13 l 78 672 b 124 722 78 710 89 722 l 232 722 b 279 672 267 722 279 710 l 279 458 l 363 458 l 363 463 b 661 743 365 638 474 743 b 964 453 861 743 964 632 l 964 268 b 661 -21 964 89 861 -21 m 661 160 b 763 268 732 160 763 199 l 763 454 b 661 563 763 525 732 563 b 557 454 588 563 557 525 l 557 268 b 661 160 557 199 588 160 "},"я":{"ha":707,"x_min":0,"x_max":0,"o":"m 92 0 b 56 61 38 0 33 19 l 157 264 b 60 472 93 303 60 367 b 290 722 60 628 149 722 l 583 722 b 629 672 618 722 629 710 l 629 50 b 583 0 629 13 618 0 l 474 0 b 428 50 439 0 428 13 l 428 221 l 344 221 l 272 44 b 186 0 254 4 239 0 l 92 0 m 428 394 l 428 547 l 324 547 b 260 471 279 547 260 513 b 324 394 260 426 279 394 "},"ё":{"ha":700,"x_min":0,"x_max":0,"o":"m 208 814 b 122 900 142 814 122 836 l 122 915 b 208 1001 122 979 142 1001 l 218 1001 b 306 915 285 1001 306 979 l 306 900 b 218 814 306 836 285 814 l 208 814 m 482 814 b 394 900 415 814 394 836 l 394 915 b 482 1001 394 979 415 1001 l 492 1001 b 578 915 558 1001 578 979 l 578 900 b 492 814 578 836 558 814 l 482 814 m 356 -21 b 54 285 140 -21 54 110 l 54 438 b 356 743 54 636 163 743 b 654 453 563 743 654 611 l 654 365 b 588 297 654 324 638 297 l 254 297 l 254 261 b 358 147 254 183 290 147 b 464 203 414 147 444 165 b 532 222 482 236 496 242 l 601 188 b 624 107 636 169 644 144 b 356 -21 579 26 490 -21 m 456 446 l 456 468 b 356 579 456 542 425 579 b 254 468 286 579 254 542 l 254 446 "}}}
